<svg width="161" height="77" viewBox="0 0 161 77" fill="none" xmlns="http://www.w3.org/2000/svg">
<path d="M3.10754 1.55377C3.10754 2.44164 2.44164 3.10754 1.55377 3.10754C0.665902 3.10754 0 2.44164 0 1.55377C0 0.665902 0.665902 0 1.55377 0C2.44164 0 3.10754 0.665902 3.10754 1.55377Z" fill="#E2E2E2"/>
<path d="M45.2072 1.55377C45.2072 2.44164 44.5412 3.10754 43.6534 3.10754C42.7655 3.10754 42.0996 2.44164 42.0996 1.55377C42.0996 0.665902 42.7655 0 43.6534 0C44.5412 0 45.2072 0.665902 45.2072 1.55377Z" fill="#E2E2E2"/>
<path d="M13.6139 1.55377C13.6139 2.44164 12.948 3.10754 12.0601 3.10754C11.1722 3.10754 10.5063 2.44164 10.5063 1.55377C10.5063 0.665902 11.2462 0 12.0601 0C12.948 0 13.6139 0.665902 13.6139 1.55377Z" fill="#E2E2E2"/>
<path d="M55.7137 1.55377C55.7137 2.44164 55.0478 3.10754 54.16 3.10754C53.2721 3.10754 52.6062 2.44164 52.6062 1.55377C52.6062 0.665902 53.3461 0 54.16 0C55.0478 0 55.7137 0.665902 55.7137 1.55377Z" fill="#E2E2E2"/>
<path d="M24.1945 1.55377C24.1945 2.44164 23.5286 3.10754 22.6407 3.10754C21.7528 3.10754 21.0129 2.44164 21.0129 1.55377C21.0129 0.665902 21.7528 0 22.6407 0C23.4546 0 24.1945 0.665902 24.1945 1.55377Z" fill="#E2E2E2"/>
<path d="M66.2941 1.55377C66.2941 2.44164 65.6282 3.10754 64.7403 3.10754C63.8524 3.10754 63.1125 2.44164 63.1125 1.55377C63.1125 0.665902 63.8524 0 64.7403 0C65.5542 0 66.2941 0.665902 66.2941 1.55377Z" fill="#E2E2E2"/>
<path d="M33.147 3.10754C34.0052 3.10754 34.7008 2.41189 34.7008 1.55377C34.7008 0.695647 34.0052 0 33.147 0C32.2889 0 31.5933 0.695647 31.5933 1.55377C31.5933 2.41189 32.2889 3.10754 33.147 3.10754Z" fill="#E2E2E2"/>
<path d="M75.2469 3.10754C76.105 3.10754 76.8007 2.41189 76.8007 1.55377C76.8007 0.695647 76.105 0 75.2469 0C74.3888 0 73.6931 0.695647 73.6931 1.55377C73.6931 2.41189 74.3888 3.10754 75.2469 3.10754Z" fill="#E2E2E2"/>
<path d="M3.10754 12.0602C3.10754 12.9481 2.44164 13.614 1.55377 13.614C0.665902 13.614 0 12.9481 0 12.0602C0 11.1724 0.665902 10.5065 1.55377 10.5065C2.44164 10.5065 3.10754 11.1724 3.10754 12.0602Z" fill="#E2E2E2"/>
<path d="M45.1332 12.0602C45.1332 12.9481 44.4673 13.614 43.5794 13.614C42.6915 13.614 42.0256 12.9481 42.0256 12.0602C42.0256 11.1724 42.6915 10.5065 43.5794 10.5065C44.4673 10.5065 45.1332 11.1724 45.1332 12.0602Z" fill="#E2E2E2"/>
<path d="M13.6139 12.0602C13.6139 12.9481 12.948 13.614 12.0601 13.614C11.1722 13.614 10.5063 12.9481 10.5063 12.0602C10.5063 11.1724 11.1722 10.5065 12.0601 10.5065C12.948 10.5065 13.6139 11.1724 13.6139 12.0602Z" fill="#E2E2E2"/>
<path d="M55.6395 12.0602C55.6395 12.9481 54.9736 13.614 54.0858 13.614C53.1979 13.614 52.532 12.9481 52.532 12.0602C52.532 11.1724 53.1979 10.5065 54.0858 10.5065C54.9736 10.5065 55.6395 11.1724 55.6395 12.0602Z" fill="#E2E2E2"/>
<path d="M24.1205 12.0602C24.1205 12.9481 23.4546 13.614 22.5667 13.614C21.6788 13.614 21.0129 12.9481 21.0129 12.0602C21.0129 11.1724 21.6788 10.5065 22.5667 10.5065C23.3806 10.5065 24.1205 11.1724 24.1205 12.0602Z" fill="#E2E2E2"/>
<path d="M66.1461 12.0602C66.1461 12.9481 65.4802 13.614 64.5923 13.614C63.7045 13.614 63.0386 12.9481 63.0386 12.0602C63.0386 11.1724 63.7045 10.5065 64.5923 10.5065C65.4062 10.5065 66.1461 11.1724 66.1461 12.0602Z" fill="#E2E2E2"/>
<path d="M33.0731 13.614C33.9312 13.614 34.6268 12.9183 34.6268 12.0602C34.6268 11.2021 33.9312 10.5065 33.0731 10.5065C32.2149 10.5065 31.5193 11.2021 31.5193 12.0602C31.5193 12.9183 32.2149 13.614 33.0731 13.614Z" fill="#E2E2E2"/>
<path d="M75.0987 13.614C75.9568 13.614 76.6525 12.9183 76.6525 12.0602C76.6525 11.2021 75.9568 10.5065 75.0987 10.5065C74.2406 10.5065 73.5449 11.2021 73.5449 12.0602C73.5449 12.9183 74.2406 13.614 75.0987 13.614Z" fill="#E2E2E2"/>
<path d="M3.10754 22.5667C3.10754 23.4546 2.44164 24.1205 1.55377 24.1205C0.665902 24.1205 0 23.3806 0 22.5667C0 21.6788 0.665902 21.0129 1.55377 21.0129C2.44164 21.0129 3.10754 21.6788 3.10754 22.5667Z" fill="#E2E2E2"/>
<path d="M45.1332 22.5667C45.1332 23.4546 44.4673 24.1205 43.5794 24.1205C42.6915 24.1205 42.0256 23.3806 42.0256 22.5667C42.0256 21.6788 42.6915 21.0129 43.5794 21.0129C44.4673 21.0129 45.1332 21.6788 45.1332 22.5667Z" fill="#E2E2E2"/>
<path d="M13.6139 22.5667C13.6139 23.4546 12.948 24.1205 12.0601 24.1205C11.1722 24.1205 10.5063 23.4546 10.5063 22.5667C10.5063 21.6788 11.1722 21.0129 12.0601 21.0129C12.948 21.0129 13.6139 21.6788 13.6139 22.5667Z" fill="#E2E2E2"/>
<path d="M55.6395 22.5667C55.6395 23.4546 54.9736 24.1205 54.0858 24.1205C53.1979 24.1205 52.532 23.4546 52.532 22.5667C52.532 21.6788 53.1979 21.0129 54.0858 21.0129C54.9736 21.0129 55.6395 21.6788 55.6395 22.5667Z" fill="#E2E2E2"/>
<path d="M24.1205 22.5667C24.1205 23.4546 23.4546 24.1205 22.5667 24.1205C21.6788 24.1205 21.0129 23.4546 21.0129 22.5667C21.0129 21.6788 21.6788 21.0129 22.5667 21.0129C23.3806 21.0129 24.1205 21.6788 24.1205 22.5667Z" fill="#E2E2E2"/>
<path d="M66.1461 22.5667C66.1461 23.4546 65.4802 24.1205 64.5923 24.1205C63.7045 24.1205 63.0386 23.4546 63.0386 22.5667C63.0386 21.6788 63.7045 21.0129 64.5923 21.0129C65.4062 21.0129 66.1461 21.6788 66.1461 22.5667Z" fill="#E2E2E2"/>
<path d="M34.6268 22.5667C34.6268 23.4546 33.9609 24.1205 33.0731 24.1205C32.1852 24.1205 31.5193 23.4546 31.5193 22.5667C31.5193 21.6788 32.1852 21.0129 33.0731 21.0129C33.9609 21.0129 34.6268 21.6788 34.6268 22.5667Z" fill="#E2E2E2"/>
<path d="M76.6525 22.5667C76.6525 23.4546 75.9866 24.1205 75.0987 24.1205C74.2108 24.1205 73.5449 23.4546 73.5449 22.5667C73.5449 21.6788 74.2108 21.0129 75.0987 21.0129C75.9866 21.0129 76.6525 21.6788 76.6525 22.5667Z" fill="#E2E2E2"/>
<path d="M3.10754 33.0783C3.10754 33.9662 2.44164 34.6321 1.55377 34.6321C0.665902 34.6321 0 33.8922 0 33.0783C0 32.2644 0.665902 31.5245 1.55377 31.5245C2.44164 31.5245 3.10754 32.1904 3.10754 33.0783Z" fill="#E2E2E2"/>
<path d="M45.2072 33.0783C45.2072 33.9662 44.5412 34.6321 43.6534 34.6321C42.7655 34.6321 42.0996 33.8922 42.0996 33.0783C42.0996 32.2644 42.7655 31.5245 43.6534 31.5245C44.5412 31.5245 45.2072 32.1904 45.2072 33.0783Z" fill="#E2E2E2"/>
<path d="M13.6139 33.0783C13.6139 33.9661 12.948 34.632 12.0601 34.632C11.1722 34.632 10.5063 33.9661 10.5063 33.0783C10.5063 32.1904 11.1722 31.5245 12.0601 31.5245C12.948 31.4505 13.6139 32.1904 13.6139 33.0783Z" fill="#E2E2E2"/>
<path d="M55.7137 33.0783C55.7137 33.9661 55.0478 34.632 54.16 34.632C53.2721 34.632 52.6062 33.9661 52.6062 33.0783C52.6062 32.1904 53.2721 31.5245 54.16 31.5245C55.0478 31.4505 55.7137 32.1904 55.7137 33.0783Z" fill="#E2E2E2"/>
<path d="M24.1945 33.0783C24.1945 33.9661 23.5286 34.632 22.6407 34.632C21.7528 34.632 21.0129 33.8921 21.0129 33.0783C21.0129 32.2644 21.6788 31.5245 22.5667 31.5245C23.4546 31.4505 24.1945 32.1904 24.1945 33.0783Z" fill="#E2E2E2"/>
<path d="M66.2941 33.0783C66.2941 33.9661 65.6282 34.632 64.7403 34.632C63.8524 34.632 63.1125 33.8921 63.1125 33.0783C63.1125 32.2644 63.7784 31.5245 64.6663 31.5245C65.5542 31.4505 66.2941 32.1904 66.2941 33.0783Z" fill="#E2E2E2"/>
<path d="M33.147 34.6321C34.0052 34.6321 34.7008 33.9364 34.7008 33.0783C34.7008 32.2202 34.0052 31.5245 33.147 31.5245C32.2889 31.5245 31.5933 32.2202 31.5933 33.0783C31.5933 33.9364 32.2889 34.6321 33.147 34.6321Z" fill="#E2E2E2"/>
<path d="M75.2469 34.6321C76.105 34.6321 76.8007 33.9364 76.8007 33.0783C76.8007 32.2202 76.105 31.5245 75.2469 31.5245C74.3888 31.5245 73.6931 32.2202 73.6931 33.0783C73.6931 33.9364 74.3888 34.6321 75.2469 34.6321Z" fill="#E2E2E2"/>
<path d="M3.10754 43.5847C3.10754 44.4726 2.44164 45.1385 1.55377 45.1385C0.665902 45.1385 0 44.4726 0 43.5847C0 42.6969 0.665902 42.031 1.55377 42.031C2.44164 42.031 3.10754 42.6969 3.10754 43.5847Z" fill="#E2E2E2"/>
<path d="M45.2072 43.5847C45.2072 44.4726 44.5412 45.1385 43.6534 45.1385C42.7655 45.1385 42.0996 44.4726 42.0996 43.5847C42.0996 42.6969 42.7655 42.031 43.6534 42.031C44.5412 42.031 45.2072 42.6969 45.2072 43.5847Z" fill="#E2E2E2"/>
<path d="M13.6139 43.5847C13.6139 44.4726 12.948 45.1385 12.0601 45.1385C11.1722 45.1385 10.5063 44.4726 10.5063 43.5847C10.5063 42.6969 11.2462 42.031 12.0601 42.031C12.948 42.031 13.6139 42.6969 13.6139 43.5847Z" fill="#E2E2E2"/>
<path d="M55.7137 43.5847C55.7137 44.4726 55.0478 45.1385 54.16 45.1385C53.2721 45.1385 52.6062 44.4726 52.6062 43.5847C52.6062 42.6969 53.3461 42.031 54.16 42.031C55.0478 42.031 55.7137 42.6969 55.7137 43.5847Z" fill="#E2E2E2"/>
<path d="M24.1945 43.5847C24.1945 44.4726 23.5286 45.1385 22.6407 45.1385C21.7528 45.1385 21.0129 44.4726 21.0129 43.5847C21.0129 42.6969 21.7528 42.031 22.6407 42.031C23.4546 42.031 24.1945 42.6969 24.1945 43.5847Z" fill="#E2E2E2"/>
<path d="M66.2941 43.5847C66.2941 44.4726 65.6282 45.1385 64.7403 45.1385C63.8524 45.1385 63.1125 44.4726 63.1125 43.5847C63.1125 42.6969 63.8524 42.031 64.7403 42.031C65.5542 42.031 66.2941 42.6969 66.2941 43.5847Z" fill="#E2E2E2"/>
<path d="M33.147 45.1385C34.0052 45.1385 34.7008 44.4429 34.7008 43.5847C34.7008 42.7266 34.0052 42.031 33.147 42.031C32.2889 42.031 31.5933 42.7266 31.5933 43.5847C31.5933 44.4429 32.2889 45.1385 33.147 45.1385Z" fill="#E2E2E2"/>
<path d="M75.2469 45.1385C76.105 45.1385 76.8007 44.4429 76.8007 43.5847C76.8007 42.7266 76.105 42.031 75.2469 42.031C74.3888 42.031 73.6931 42.7266 73.6931 43.5847C73.6931 44.4429 74.3888 45.1385 75.2469 45.1385Z" fill="#E2E2E2"/>
<path d="M3.10754 54.0912C3.10754 54.9791 2.44164 55.645 1.55377 55.645C0.665902 55.645 0 54.9791 0 54.0912C0 53.2033 0.665902 52.5374 1.55377 52.5374C2.44164 52.5374 3.10754 53.2033 3.10754 54.0912Z" fill="#E2E2E2"/>
<path d="M45.1332 54.0912C45.1332 54.9791 44.4673 55.645 43.5794 55.645C42.6915 55.645 42.0256 54.9791 42.0256 54.0912C42.0256 53.2033 42.6915 52.5374 43.5794 52.5374C44.4673 52.5374 45.1332 53.2033 45.1332 54.0912Z" fill="#E2E2E2"/>
<path d="M13.6139 54.0912C13.6139 54.9791 12.948 55.645 12.0601 55.645C11.1722 55.645 10.5063 54.9791 10.5063 54.0912C10.5063 53.2033 11.1722 52.5374 12.0601 52.5374C12.948 52.5374 13.6139 53.2033 13.6139 54.0912Z" fill="#E2E2E2"/>
<path d="M55.6395 54.0912C55.6395 54.9791 54.9736 55.645 54.0858 55.645C53.1979 55.645 52.532 54.9791 52.532 54.0912C52.532 53.2033 53.1979 52.5374 54.0858 52.5374C54.9736 52.5374 55.6395 53.2033 55.6395 54.0912Z" fill="#E2E2E2"/>
<path d="M24.1205 54.0912C24.1205 54.9791 23.4546 55.645 22.5667 55.645C21.6788 55.645 21.0129 54.9791 21.0129 54.0912C21.0129 53.2033 21.6788 52.5374 22.5667 52.5374C23.3806 52.5374 24.1205 53.2033 24.1205 54.0912Z" fill="#E2E2E2"/>
<path d="M66.1461 54.0912C66.1461 54.9791 65.4802 55.645 64.5923 55.645C63.7045 55.645 63.0386 54.9791 63.0386 54.0912C63.0386 53.2033 63.7045 52.5374 64.5923 52.5374C65.4062 52.5374 66.1461 53.2033 66.1461 54.0912Z" fill="#E2E2E2"/>
<path d="M33.0731 55.645C33.9312 55.645 34.6268 54.9493 34.6268 54.0912C34.6268 53.2331 33.9312 52.5374 33.0731 52.5374C32.2149 52.5374 31.5193 53.2331 31.5193 54.0912C31.5193 54.9493 32.2149 55.645 33.0731 55.645Z" fill="#E2E2E2"/>
<path d="M75.0987 55.645C75.9568 55.645 76.6525 54.9493 76.6525 54.0912C76.6525 53.2331 75.9568 52.5374 75.0987 52.5374C74.2406 52.5374 73.5449 53.2331 73.5449 54.0912C73.5449 54.9493 74.2406 55.645 75.0987 55.645Z" fill="#E2E2E2"/>
<path d="M3.10754 64.5976C3.10754 65.4855 2.44164 66.1514 1.55377 66.1514C0.665902 66.1514 0 65.4115 0 64.5976C0 63.7098 0.665902 63.0439 1.55377 63.0439C2.44164 63.0439 3.10754 63.7098 3.10754 64.5976Z" fill="#E2E2E2"/>
<path d="M45.1332 64.5976C45.1332 65.4855 44.4673 66.1514 43.5794 66.1514C42.6915 66.1514 42.0256 65.4115 42.0256 64.5976C42.0256 63.7098 42.6915 63.0439 43.5794 63.0439C44.4673 63.0439 45.1332 63.7098 45.1332 64.5976Z" fill="#E2E2E2"/>
<path d="M13.6139 64.5976C13.6139 65.4855 12.948 66.1514 12.0601 66.1514C11.1722 66.1514 10.5063 65.4855 10.5063 64.5976C10.5063 63.7098 11.1722 63.0439 12.0601 63.0439C12.948 63.0439 13.6139 63.7098 13.6139 64.5976Z" fill="#E2E2E2"/>
<path d="M55.6395 64.5976C55.6395 65.4855 54.9736 66.1514 54.0858 66.1514C53.1979 66.1514 52.532 65.4855 52.532 64.5976C52.532 63.7098 53.1979 63.0439 54.0858 63.0439C54.9736 63.0439 55.6395 63.7098 55.6395 64.5976Z" fill="#E2E2E2"/>
<path d="M24.1205 64.5976C24.1205 65.4855 23.4546 66.1514 22.5667 66.1514C21.6788 66.1514 21.0129 65.4855 21.0129 64.5976C21.0129 63.7098 21.6788 63.0439 22.5667 63.0439C23.3806 63.0439 24.1205 63.7098 24.1205 64.5976Z" fill="#E2E2E2"/>
<path d="M66.1461 64.5976C66.1461 65.4855 65.4802 66.1514 64.5923 66.1514C63.7045 66.1514 63.0386 65.4855 63.0386 64.5976C63.0386 63.7098 63.7045 63.0439 64.5923 63.0439C65.4062 63.0439 66.1461 63.7098 66.1461 64.5976Z" fill="#E2E2E2"/>
<path d="M34.6268 64.5976C34.6268 65.4855 33.9609 66.1514 33.0731 66.1514C32.1852 66.1514 31.5193 65.4855 31.5193 64.5976C31.5193 63.7098 32.1852 63.0439 33.0731 63.0439C33.9609 63.0439 34.6268 63.7098 34.6268 64.5976Z" fill="#E2E2E2"/>
<path d="M76.6525 64.5976C76.6525 65.4855 75.9866 66.1514 75.0987 66.1514C74.2108 66.1514 73.5449 65.4855 73.5449 64.5976C73.5449 63.7098 74.2108 63.0439 75.0987 63.0439C75.9866 63.0439 76.6525 63.7098 76.6525 64.5976Z" fill="#E2E2E2"/>
<path d="M3.10754 75.1093C3.10754 75.9971 2.44164 76.663 1.55377 76.663C0.665902 76.663 0 75.9231 0 75.1093C0 74.2954 0.665902 73.5555 1.55377 73.5555C2.44164 73.5555 3.10754 74.2214 3.10754 75.1093Z" fill="#E2E2E2"/>
<path d="M45.2072 75.1093C45.2072 75.9971 44.5412 76.663 43.6534 76.663C42.7655 76.663 42.0996 75.9231 42.0996 75.1093C42.0996 74.2954 42.7655 73.5555 43.6534 73.5555C44.5412 73.5555 45.2072 74.2214 45.2072 75.1093Z" fill="#E2E2E2"/>
<path d="M13.6139 75.1092C13.6139 75.9971 12.948 76.663 12.0601 76.663C11.1722 76.663 10.5063 75.9971 10.5063 75.1092C10.5063 74.2213 11.1722 73.5554 12.0601 73.5554C12.948 73.4814 13.6139 74.2213 13.6139 75.1092Z" fill="#E2E2E2"/>
<path d="M55.7137 75.1092C55.7137 75.9971 55.0478 76.663 54.16 76.663C53.2721 76.663 52.6062 75.9971 52.6062 75.1092C52.6062 74.2213 53.2721 73.5554 54.16 73.5554C55.0478 73.4814 55.7137 74.2213 55.7137 75.1092Z" fill="#E2E2E2"/>
<path d="M24.1945 75.1092C24.1945 75.9971 23.5286 76.663 22.6407 76.663C21.7528 76.663 21.0129 75.9231 21.0129 75.1092C21.0129 74.2953 21.6788 73.5554 22.5667 73.5554C23.4546 73.4814 24.1945 74.2213 24.1945 75.1092Z" fill="#E2E2E2"/>
<path d="M66.2941 75.1092C66.2941 75.9971 65.6282 76.663 64.7403 76.663C63.8524 76.663 63.1125 75.9231 63.1125 75.1092C63.1125 74.2953 63.7784 73.5554 64.6663 73.5554C65.5542 73.4814 66.2941 74.2213 66.2941 75.1092Z" fill="#E2E2E2"/>
<path d="M33.147 76.663C34.0052 76.663 34.7008 75.9674 34.7008 75.1093C34.7008 74.2511 34.0052 73.5555 33.147 73.5555C32.2889 73.5555 31.5933 74.2511 31.5933 75.1093C31.5933 75.9674 32.2889 76.663 33.147 76.663Z" fill="#E2E2E2"/>
<path d="M75.2469 76.663C76.105 76.663 76.8007 75.9674 76.8007 75.1093C76.8007 74.2511 76.105 73.5555 75.2469 73.5555C74.3888 73.5555 73.6931 74.2511 73.6931 75.1093C73.6931 75.9674 74.3888 76.663 75.2469 76.663Z" fill="#E2E2E2"/>
<path d="M87.307 1.55377C87.307 2.44164 86.6411 3.10754 85.7532 3.10754C84.8654 3.10754 84.1995 2.44164 84.1995 1.55377C84.1995 0.665902 84.8654 0 85.7532 0C86.6411 0 87.307 0.665902 87.307 1.55377Z" fill="#E2E2E2"/>
<path d="M129.407 1.55377C129.407 2.44164 128.741 3.10754 127.853 3.10754C126.965 3.10754 126.299 2.44164 126.299 1.55377C126.299 0.665902 126.965 0 127.853 0C128.741 0 129.407 0.665902 129.407 1.55377Z" fill="#E2E2E2"/>
<path d="M97.8134 1.55377C97.8134 2.44164 97.1475 3.10754 96.2596 3.10754C95.3717 3.10754 94.7058 2.44164 94.7058 1.55377C94.7058 0.665902 95.4457 0 96.2596 0C97.1475 0 97.8134 0.665902 97.8134 1.55377Z" fill="#E2E2E2"/>
<path d="M139.913 1.55377C139.913 2.44164 139.247 3.10754 138.359 3.10754C137.472 3.10754 136.806 2.44164 136.806 1.55377C136.806 0.665902 137.546 0 138.359 0C139.247 0 139.913 0.665902 139.913 1.55377Z" fill="#E2E2E2"/>
<path d="M108.394 1.55377C108.394 2.44164 107.728 3.10754 106.84 3.10754C105.952 3.10754 105.212 2.44164 105.212 1.55377C105.212 0.665902 105.952 0 106.84 0C107.654 0 108.394 0.665902 108.394 1.55377Z" fill="#E2E2E2"/>
<path d="M150.494 1.55377C150.494 2.44164 149.828 3.10754 148.94 3.10754C148.052 3.10754 147.312 2.44164 147.312 1.55377C147.312 0.665902 148.052 0 148.94 0C149.754 0 150.494 0.665902 150.494 1.55377Z" fill="#E2E2E2"/>
<path d="M117.346 3.10754C118.205 3.10754 118.9 2.41189 118.9 1.55377C118.9 0.695647 118.205 0 117.346 0C116.488 0 115.793 0.695647 115.793 1.55377C115.793 2.41189 116.488 3.10754 117.346 3.10754Z" fill="#E2E2E2"/>
<path d="M159.446 3.10754C160.304 3.10754 161 2.41189 161 1.55377C161 0.695647 160.304 0 159.446 0C158.588 0 157.892 0.695647 157.892 1.55377C157.892 2.41189 158.588 3.10754 159.446 3.10754Z" fill="#E2E2E2"/>
<path d="M87.307 12.0602C87.307 12.9481 86.6411 13.614 85.7532 13.614C84.8654 13.614 84.1995 12.9481 84.1995 12.0602C84.1995 11.1724 84.8654 10.5065 85.7532 10.5065C86.6411 10.5065 87.307 11.1724 87.307 12.0602Z" fill="#E2E2E2"/>
<path d="M129.333 12.0602C129.333 12.9481 128.667 13.614 127.779 13.614C126.891 13.614 126.225 12.9481 126.225 12.0602C126.225 11.1724 126.891 10.5065 127.779 10.5065C128.667 10.5065 129.333 11.1724 129.333 12.0602Z" fill="#E2E2E2"/>
<path d="M97.8134 12.0602C97.8134 12.9481 97.1475 13.614 96.2596 13.614C95.3717 13.614 94.7058 12.9481 94.7058 12.0602C94.7058 11.1724 95.3717 10.5065 96.2596 10.5065C97.1475 10.5065 97.8134 11.1724 97.8134 12.0602Z" fill="#E2E2E2"/>
<path d="M139.839 12.0602C139.839 12.9481 139.173 13.614 138.285 13.614C137.397 13.614 136.731 12.9481 136.731 12.0602C136.731 11.1724 137.397 10.5065 138.285 10.5065C139.173 10.5065 139.839 11.1724 139.839 12.0602Z" fill="#E2E2E2"/>
<path d="M108.32 12.0602C108.32 12.9481 107.654 13.614 106.766 13.614C105.878 13.614 105.212 12.9481 105.212 12.0602C105.212 11.1724 105.878 10.5065 106.766 10.5065C107.58 10.5065 108.32 11.1724 108.32 12.0602Z" fill="#E2E2E2"/>
<path d="M150.345 12.0602C150.345 12.9481 149.679 13.614 148.792 13.614C147.904 13.614 147.238 12.9481 147.238 12.0602C147.238 11.1724 147.904 10.5065 148.792 10.5065C149.605 10.5065 150.345 11.1724 150.345 12.0602Z" fill="#E2E2E2"/>
<path d="M117.273 13.614C118.131 13.614 118.826 12.9183 118.826 12.0602C118.826 11.2021 118.131 10.5065 117.273 10.5065C116.414 10.5065 115.719 11.2021 115.719 12.0602C115.719 12.9183 116.414 13.614 117.273 13.614Z" fill="#E2E2E2"/>
<path d="M159.298 13.614C160.156 13.614 160.852 12.9183 160.852 12.0602C160.852 11.2021 160.156 10.5065 159.298 10.5065C158.44 10.5065 157.744 11.2021 157.744 12.0602C157.744 12.9183 158.44 13.614 159.298 13.614Z" fill="#E2E2E2"/>
<path d="M87.307 22.5667C87.307 23.4546 86.6411 24.1205 85.7532 24.1205C84.8654 24.1205 84.1995 23.3806 84.1995 22.5667C84.1995 21.6788 84.8654 21.0129 85.7532 21.0129C86.6411 21.0129 87.307 21.6788 87.307 22.5667Z" fill="#E2E2E2"/>
<path d="M129.333 22.5667C129.333 23.4546 128.667 24.1205 127.779 24.1205C126.891 24.1205 126.225 23.3806 126.225 22.5667C126.225 21.6788 126.891 21.0129 127.779 21.0129C128.667 21.0129 129.333 21.6788 129.333 22.5667Z" fill="#E2E2E2"/>
<path d="M97.8134 22.5667C97.8134 23.4546 97.1475 24.1205 96.2596 24.1205C95.3717 24.1205 94.7058 23.4546 94.7058 22.5667C94.7058 21.6788 95.3717 21.0129 96.2596 21.0129C97.1475 21.0129 97.8134 21.6788 97.8134 22.5667Z" fill="#E2E2E2"/>
<path d="M139.839 22.5667C139.839 23.4546 139.173 24.1205 138.285 24.1205C137.397 24.1205 136.731 23.4546 136.731 22.5667C136.731 21.6788 137.397 21.0129 138.285 21.0129C139.173 21.0129 139.839 21.6788 139.839 22.5667Z" fill="#E2E2E2"/>
<path d="M108.32 22.5667C108.32 23.4546 107.654 24.1205 106.766 24.1205C105.878 24.1205 105.212 23.4546 105.212 22.5667C105.212 21.6788 105.878 21.0129 106.766 21.0129C107.58 21.0129 108.32 21.6788 108.32 22.5667Z" fill="#E2E2E2"/>
<path d="M150.345 22.5667C150.345 23.4546 149.679 24.1205 148.792 24.1205C147.904 24.1205 147.238 23.4546 147.238 22.5667C147.238 21.6788 147.904 21.0129 148.792 21.0129C149.605 21.0129 150.345 21.6788 150.345 22.5667Z" fill="#E2E2E2"/>
<path d="M118.826 22.5667C118.826 23.4546 118.16 24.1205 117.273 24.1205C116.385 24.1205 115.719 23.4546 115.719 22.5667C115.719 21.6788 116.385 21.0129 117.273 21.0129C118.16 21.0129 118.826 21.6788 118.826 22.5667Z" fill="#E2E2E2"/>
<path d="M160.852 22.5667C160.852 23.4546 160.186 24.1205 159.298 24.1205C158.41 24.1205 157.744 23.4546 157.744 22.5667C157.744 21.6788 158.41 21.0129 159.298 21.0129C160.186 21.0129 160.852 21.6788 160.852 22.5667Z" fill="#E2E2E2"/>
<path d="M87.307 33.0783C87.307 33.9662 86.6411 34.6321 85.7532 34.6321C84.8654 34.6321 84.1995 33.8922 84.1995 33.0783C84.1995 32.2644 84.8654 31.5245 85.7532 31.5245C86.6411 31.5245 87.307 32.1904 87.307 33.0783Z" fill="#E2E2E2"/>
<path d="M129.407 33.0783C129.407 33.9662 128.741 34.6321 127.853 34.6321C126.965 34.6321 126.299 33.8922 126.299 33.0783C126.299 32.2644 126.965 31.5245 127.853 31.5245C128.741 31.5245 129.407 32.1904 129.407 33.0783Z" fill="#E2E2E2"/>
<path d="M97.8134 33.0783C97.8134 33.9661 97.1475 34.632 96.2596 34.632C95.3717 34.632 94.7058 33.9661 94.7058 33.0783C94.7058 32.1904 95.3717 31.5245 96.2596 31.5245C97.1475 31.4505 97.8134 32.1904 97.8134 33.0783Z" fill="#E2E2E2"/>
<path d="M139.913 33.0783C139.913 33.9661 139.247 34.632 138.359 34.632C137.472 34.632 136.806 33.9661 136.806 33.0783C136.806 32.1904 137.472 31.5245 138.359 31.5245C139.247 31.4505 139.913 32.1904 139.913 33.0783Z" fill="#E2E2E2"/>
<path d="M108.394 33.0783C108.394 33.9661 107.728 34.632 106.84 34.632C105.952 34.632 105.212 33.8921 105.212 33.0783C105.212 32.2644 105.878 31.5245 106.766 31.5245C107.654 31.4505 108.394 32.1904 108.394 33.0783Z" fill="#E2E2E2"/>
<path d="M150.494 33.0783C150.494 33.9661 149.828 34.632 148.94 34.632C148.052 34.632 147.312 33.8921 147.312 33.0783C147.312 32.2644 147.978 31.5245 148.866 31.5245C149.754 31.4505 150.494 32.1904 150.494 33.0783Z" fill="#E2E2E2"/>
<path d="M117.346 34.6321C118.205 34.6321 118.9 33.9364 118.9 33.0783C118.9 32.2202 118.205 31.5245 117.346 31.5245C116.488 31.5245 115.793 32.2202 115.793 33.0783C115.793 33.9364 116.488 34.6321 117.346 34.6321Z" fill="#E2E2E2"/>
<path d="M159.446 34.6321C160.304 34.6321 161 33.9364 161 33.0783C161 32.2202 160.304 31.5245 159.446 31.5245C158.588 31.5245 157.892 32.2202 157.892 33.0783C157.892 33.9364 158.588 34.6321 159.446 34.6321Z" fill="#E2E2E2"/>
<path d="M87.307 43.5847C87.307 44.4726 86.6411 45.1385 85.7532 45.1385C84.8654 45.1385 84.1995 44.4726 84.1995 43.5847C84.1995 42.6969 84.8654 42.031 85.7532 42.031C86.6411 42.031 87.307 42.6969 87.307 43.5847Z" fill="#E2E2E2"/>
<path d="M129.407 43.5847C129.407 44.4726 128.741 45.1385 127.853 45.1385C126.965 45.1385 126.299 44.4726 126.299 43.5847C126.299 42.6969 126.965 42.031 127.853 42.031C128.741 42.031 129.407 42.6969 129.407 43.5847Z" fill="#E2E2E2"/>
<path d="M97.8134 43.5847C97.8134 44.4726 97.1475 45.1385 96.2596 45.1385C95.3717 45.1385 94.7058 44.4726 94.7058 43.5847C94.7058 42.6969 95.4457 42.031 96.2596 42.031C97.1475 42.031 97.8134 42.6969 97.8134 43.5847Z" fill="#E2E2E2"/>
<path d="M139.913 43.5847C139.913 44.4726 139.247 45.1385 138.359 45.1385C137.472 45.1385 136.806 44.4726 136.806 43.5847C136.806 42.6969 137.546 42.031 138.359 42.031C139.247 42.031 139.913 42.6969 139.913 43.5847Z" fill="#E2E2E2"/>
<path d="M108.394 43.5847C108.394 44.4726 107.728 45.1385 106.84 45.1385C105.952 45.1385 105.212 44.4726 105.212 43.5847C105.212 42.6969 105.952 42.031 106.84 42.031C107.654 42.031 108.394 42.6969 108.394 43.5847Z" fill="#E2E2E2"/>
<path d="M150.494 43.5847C150.494 44.4726 149.828 45.1385 148.94 45.1385C148.052 45.1385 147.312 44.4726 147.312 43.5847C147.312 42.6969 148.052 42.031 148.94 42.031C149.754 42.031 150.494 42.6969 150.494 43.5847Z" fill="#E2E2E2"/>
<path d="M117.346 45.1385C118.205 45.1385 118.9 44.4429 118.9 43.5847C118.9 42.7266 118.205 42.031 117.346 42.031C116.488 42.031 115.793 42.7266 115.793 43.5847C115.793 44.4429 116.488 45.1385 117.346 45.1385Z" fill="#E2E2E2"/>
<path d="M159.446 45.1385C160.304 45.1385 161 44.4429 161 43.5847C161 42.7266 160.304 42.031 159.446 42.031C158.588 42.031 157.892 42.7266 157.892 43.5847C157.892 44.4429 158.588 45.1385 159.446 45.1385Z" fill="#E2E2E2"/>
<path d="M87.307 54.0912C87.307 54.9791 86.6411 55.645 85.7532 55.645C84.8654 55.645 84.1995 54.9791 84.1995 54.0912C84.1995 53.2033 84.8654 52.5374 85.7532 52.5374C86.6411 52.5374 87.307 53.2033 87.307 54.0912Z" fill="#E2E2E2"/>
<path d="M129.333 54.0912C129.333 54.9791 128.667 55.645 127.779 55.645C126.891 55.645 126.225 54.9791 126.225 54.0912C126.225 53.2033 126.891 52.5374 127.779 52.5374C128.667 52.5374 129.333 53.2033 129.333 54.0912Z" fill="#E2E2E2"/>
<path d="M97.8134 54.0912C97.8134 54.9791 97.1475 55.645 96.2596 55.645C95.3717 55.645 94.7058 54.9791 94.7058 54.0912C94.7058 53.2033 95.3717 52.5374 96.2596 52.5374C97.1475 52.5374 97.8134 53.2033 97.8134 54.0912Z" fill="#E2E2E2"/>
<path d="M139.839 54.0912C139.839 54.9791 139.173 55.645 138.285 55.645C137.397 55.645 136.731 54.9791 136.731 54.0912C136.731 53.2033 137.397 52.5374 138.285 52.5374C139.173 52.5374 139.839 53.2033 139.839 54.0912Z" fill="#E2E2E2"/>
<path d="M108.32 54.0912C108.32 54.9791 107.654 55.645 106.766 55.645C105.878 55.645 105.212 54.9791 105.212 54.0912C105.212 53.2033 105.878 52.5374 106.766 52.5374C107.58 52.5374 108.32 53.2033 108.32 54.0912Z" fill="#E2E2E2"/>
<path d="M150.345 54.0912C150.345 54.9791 149.679 55.645 148.792 55.645C147.904 55.645 147.238 54.9791 147.238 54.0912C147.238 53.2033 147.904 52.5374 148.792 52.5374C149.605 52.5374 150.345 53.2033 150.345 54.0912Z" fill="#E2E2E2"/>
<path d="M117.273 55.645C118.131 55.645 118.826 54.9493 118.826 54.0912C118.826 53.2331 118.131 52.5374 117.273 52.5374C116.414 52.5374 115.719 53.2331 115.719 54.0912C115.719 54.9493 116.414 55.645 117.273 55.645Z" fill="#E2E2E2"/>
<path d="M159.298 55.645C160.156 55.645 160.852 54.9493 160.852 54.0912C160.852 53.2331 160.156 52.5374 159.298 52.5374C158.44 52.5374 157.744 53.2331 157.744 54.0912C157.744 54.9493 158.44 55.645 159.298 55.645Z" fill="#E2E2E2"/>
<path d="M87.307 64.5976C87.307 65.4855 86.6411 66.1514 85.7532 66.1514C84.8654 66.1514 84.1995 65.4115 84.1995 64.5976C84.1995 63.7098 84.8654 63.0439 85.7532 63.0439C86.6411 63.0439 87.307 63.7098 87.307 64.5976Z" fill="#E2E2E2"/>
<path d="M129.333 64.5976C129.333 65.4855 128.667 66.1514 127.779 66.1514C126.891 66.1514 126.225 65.4115 126.225 64.5976C126.225 63.7098 126.891 63.0439 127.779 63.0439C128.667 63.0439 129.333 63.7098 129.333 64.5976Z" fill="#E2E2E2"/>
<path d="M97.8134 64.5976C97.8134 65.4855 97.1475 66.1514 96.2596 66.1514C95.3717 66.1514 94.7058 65.4855 94.7058 64.5976C94.7058 63.7098 95.3717 63.0439 96.2596 63.0439C97.1475 63.0439 97.8134 63.7098 97.8134 64.5976Z" fill="#E2E2E2"/>
<path d="M139.839 64.5976C139.839 65.4855 139.173 66.1514 138.285 66.1514C137.397 66.1514 136.731 65.4855 136.731 64.5976C136.731 63.7098 137.397 63.0439 138.285 63.0439C139.173 63.0439 139.839 63.7098 139.839 64.5976Z" fill="#E2E2E2"/>
<path d="M108.32 64.5976C108.32 65.4855 107.654 66.1514 106.766 66.1514C105.878 66.1514 105.212 65.4855 105.212 64.5976C105.212 63.7098 105.878 63.0439 106.766 63.0439C107.58 63.0439 108.32 63.7098 108.32 64.5976Z" fill="#E2E2E2"/>
<path d="M150.345 64.5976C150.345 65.4855 149.679 66.1514 148.792 66.1514C147.904 66.1514 147.238 65.4855 147.238 64.5976C147.238 63.7098 147.904 63.0439 148.792 63.0439C149.605 63.0439 150.345 63.7098 150.345 64.5976Z" fill="#E2E2E2"/>
<path d="M118.826 64.5976C118.826 65.4855 118.16 66.1514 117.273 66.1514C116.385 66.1514 115.719 65.4855 115.719 64.5976C115.719 63.7098 116.385 63.0439 117.273 63.0439C118.16 63.0439 118.826 63.7098 118.826 64.5976Z" fill="#E2E2E2"/>
<path d="M160.852 64.5976C160.852 65.4855 160.186 66.1514 159.298 66.1514C158.41 66.1514 157.744 65.4855 157.744 64.5976C157.744 63.7098 158.41 63.0439 159.298 63.0439C160.186 63.0439 160.852 63.7098 160.852 64.5976Z" fill="#E2E2E2"/>
<path d="M87.307 75.1093C87.307 75.9971 86.6411 76.663 85.7532 76.663C84.8654 76.663 84.1995 75.9231 84.1995 75.1093C84.1995 74.2954 84.8654 73.5555 85.7532 73.5555C86.6411 73.5555 87.307 74.2214 87.307 75.1093Z" fill="#E2E2E2"/>
<path d="M129.407 75.1093C129.407 75.9971 128.741 76.663 127.853 76.663C126.965 76.663 126.299 75.9231 126.299 75.1093C126.299 74.2954 126.965 73.5555 127.853 73.5555C128.741 73.5555 129.407 74.2214 129.407 75.1093Z" fill="#E2E2E2"/>
<path d="M97.8134 75.1092C97.8134 75.9971 97.1475 76.663 96.2596 76.663C95.3717 76.663 94.7058 75.9971 94.7058 75.1092C94.7058 74.2213 95.3717 73.5554 96.2596 73.5554C97.1475 73.4814 97.8134 74.2213 97.8134 75.1092Z" fill="#E2E2E2"/>
<path d="M139.913 75.1092C139.913 75.9971 139.247 76.663 138.359 76.663C137.472 76.663 136.806 75.9971 136.806 75.1092C136.806 74.2213 137.472 73.5554 138.359 73.5554C139.247 73.4814 139.913 74.2213 139.913 75.1092Z" fill="#E2E2E2"/>
<path d="M108.394 75.1092C108.394 75.9971 107.728 76.663 106.84 76.663C105.952 76.663 105.212 75.9231 105.212 75.1092C105.212 74.2953 105.878 73.5554 106.766 73.5554C107.654 73.4814 108.394 74.2213 108.394 75.1092Z" fill="#E2E2E2"/>
<path d="M150.494 75.1092C150.494 75.9971 149.828 76.663 148.94 76.663C148.052 76.663 147.312 75.9231 147.312 75.1092C147.312 74.2953 147.978 73.5554 148.866 73.5554C149.754 73.4814 150.494 74.2213 150.494 75.1092Z" fill="#E2E2E2"/>
<path d="M117.346 76.663C118.205 76.663 118.9 75.9674 118.9 75.1093C118.9 74.2511 118.205 73.5555 117.346 73.5555C116.488 73.5555 115.793 74.2511 115.793 75.1093C115.793 75.9674 116.488 76.663 117.346 76.663Z" fill="#E2E2E2"/>
<path d="M159.446 76.663C160.304 76.663 161 75.9674 161 75.1093C161 74.2511 160.304 73.5555 159.446 73.5555C158.588 73.5555 157.892 74.2511 157.892 75.1093C157.892 75.9674 158.588 76.663 159.446 76.663Z" fill="#E2E2E2"/>
</svg>
