<svg width="40" height="40" viewBox="0 0 40 40" fill="none" xmlns="http://www.w3.org/2000/svg">
<path d="M19.9997 3.33334C29.2047 3.33334 36.6663 10.795 36.6663 20C36.6663 21.2117 36.538 22.3917 36.2913 23.53L33.3213 20.5583C33.4436 17.6329 32.5996 14.7486 30.9195 12.3506C29.2393 9.95265 26.8166 8.1744 24.0253 7.29037C21.234 6.40635 18.2292 6.46572 15.475 7.45932C12.7208 8.45292 10.3702 10.3255 8.78613 12.788C7.20205 15.2504 6.47259 18.1658 6.71034 21.0841C6.94809 24.0024 8.13984 26.7613 10.1016 28.9349C12.0634 31.1085 14.6861 32.5759 17.5648 33.1106C20.4436 33.6453 23.4182 33.2175 26.0297 31.8933C26.6658 32.9015 27.5608 33.7206 28.6213 34.265C26.0217 35.8401 23.0393 36.6709 19.9997 36.6667C10.7947 36.6667 3.33301 29.205 3.33301 20C3.33301 10.795 10.7947 3.33334 19.9997 3.33334ZM31.6663 23.62L34.023 25.9767C34.4818 26.4353 34.7968 27.0178 34.9294 27.6527C35.062 28.2877 35.0064 28.9476 34.7695 29.5514C34.5326 30.1553 34.1247 30.6769 33.5957 31.0524C33.0667 31.4278 32.4397 31.6408 31.7915 31.6651C31.1432 31.6894 30.502 31.5241 29.9464 31.1894C29.3907 30.8547 28.9448 30.3651 28.6633 29.7807C28.3818 29.1963 28.2769 28.5424 28.3616 27.8993C28.4462 27.2562 28.7166 26.6517 29.1397 26.16L29.3097 25.9767L31.6663 23.62ZM19.9997 25C22.443 25 24.6413 26.0517 26.1663 27.7283L24.5913 29.1617C23.2747 28.6367 21.6963 28.3333 19.9997 28.3333C18.303 28.3333 16.7247 28.6383 15.408 29.16L13.833 27.7267C14.6134 26.8666 15.5653 26.1796 16.6274 25.7099C17.6896 25.2403 18.8383 24.9985 19.9997 25ZM14.1663 16.6667C14.8294 16.6667 15.4653 16.9301 15.9341 17.3989C16.403 17.8677 16.6663 18.5036 16.6663 19.1667C16.6663 19.8297 16.403 20.4656 15.9341 20.9344C15.4653 21.4033 14.8294 21.6667 14.1663 21.6667C13.5033 21.6667 12.8674 21.4033 12.3986 20.9344C11.9297 20.4656 11.6663 19.8297 11.6663 19.1667C11.6663 18.5036 11.9297 17.8677 12.3986 17.3989C12.8674 16.9301 13.5033 16.6667 14.1663 16.6667ZM25.833 16.6667C26.496 16.6667 27.1319 16.9301 27.6008 17.3989C28.0696 17.8677 28.333 18.5036 28.333 19.1667C28.333 19.8297 28.0696 20.4656 27.6008 20.9344C27.1319 21.4033 26.496 21.6667 25.833 21.6667C25.17 21.6667 24.5341 21.4033 24.0652 20.9344C23.5964 20.4656 23.333 19.8297 23.333 19.1667C23.333 18.5036 23.5964 17.8677 24.0652 17.3989C24.5341 16.9301 25.17 16.6667 25.833 16.6667Z" fill="#E31837"/>
</svg>
