<svg width="40" height="40" viewBox="0 0 40 40" fill="none" xmlns="http://www.w3.org/2000/svg">
<path d="M19.9997 36.6667C10.7947 36.6667 3.33301 29.205 3.33301 20C3.33301 10.795 10.7947 3.33334 19.9997 3.33334C29.2047 3.33334 36.6663 10.795 36.6663 20C36.6663 29.205 29.2047 36.6667 19.9997 36.6667ZM19.9997 33.3333C23.5359 33.3333 26.9273 31.9286 29.4278 29.4281C31.9283 26.9276 33.333 23.5362 33.333 20C33.333 16.4638 31.9283 13.0724 29.4278 10.5719C26.9273 8.07143 23.5359 6.66667 19.9997 6.66667C16.4635 6.66667 13.0721 8.07143 10.5716 10.5719C8.0711 13.0724 6.66634 16.4638 6.66634 20C6.66634 23.5362 8.0711 26.9276 10.5716 29.4281C13.0721 31.9286 16.4635 33.3333 19.9997 33.3333ZM11.6663 21.6667H14.9997C14.9997 22.9928 15.5265 24.2645 16.4641 25.2022C17.4018 26.1399 18.6736 26.6667 19.9997 26.6667C21.3258 26.6667 22.5975 26.1399 23.5352 25.2022C24.4729 24.2645 24.9997 22.9928 24.9997 21.6667H28.333C28.333 23.8768 27.455 25.9964 25.8922 27.5592C24.3294 29.122 22.2098 30 19.9997 30C17.7895 30 15.6699 29.122 14.1071 27.5592C12.5443 25.9964 11.6663 23.8768 11.6663 21.6667ZM13.333 18.3333C12.67 18.3333 12.0341 18.0699 11.5652 17.6011C11.0964 17.1323 10.833 16.4964 10.833 15.8333C10.833 15.1703 11.0964 14.5344 11.5652 14.0656C12.0341 13.5967 12.67 13.3333 13.333 13.3333C13.996 13.3333 14.6319 13.5967 15.1008 14.0656C15.5696 14.5344 15.833 15.1703 15.833 15.8333C15.833 16.4964 15.5696 17.1323 15.1008 17.6011C14.6319 18.0699 13.996 18.3333 13.333 18.3333ZM26.6663 18.3333C26.0033 18.3333 25.3674 18.0699 24.8986 17.6011C24.4297 17.1323 24.1663 16.4964 24.1663 15.8333C24.1663 15.1703 24.4297 14.5344 24.8986 14.0656C25.3674 13.5967 26.0033 13.3333 26.6663 13.3333C27.3294 13.3333 27.9653 13.5967 28.4341 14.0656C28.9029 14.5344 29.1663 15.1703 29.1663 15.8333C29.1663 16.4964 28.9029 17.1323 28.4341 17.6011C27.9653 18.0699 27.3294 18.3333 26.6663 18.3333Z" fill="#11A420"/>
</svg>
