<svg width="503" height="694" viewBox="0 0 503 694" fill="none" xmlns="http://www.w3.org/2000/svg">
<g opacity="0.2">
<path d="M398.093 690.814C616.747 690.814 794 513.56 794 294.907C794 76.2535 616.747 -101 398.093 -101C179.44 -101 2.18677 76.2535 2.18677 294.907C2.18677 513.56 179.44 690.814 398.093 690.814Z" stroke="#F4901D" stroke-width="0.9014" stroke-miterlimit="10"/>
<path d="M398.094 665.891C602.983 665.891 769.078 499.796 769.078 294.907C769.078 90.0176 602.983 -76.0778 398.094 -76.0778C193.205 -76.0778 27.1091 90.0176 27.1091 294.907C27.1091 499.796 193.205 665.891 398.094 665.891Z" stroke="#F4901D" stroke-width="0.9014" stroke-miterlimit="10"/>
<path d="M398.093 640.969C589.218 640.969 744.156 486.032 744.156 294.907C744.156 103.782 589.218 -51.1556 398.093 -51.1556C206.968 -51.1556 52.031 103.782 52.031 294.907C52.031 486.032 206.968 640.969 398.093 640.969Z" stroke="#F4901D" stroke-width="0.9014" stroke-miterlimit="10"/>
<path d="M398.094 616.047C575.454 616.047 719.234 472.267 719.234 294.907C719.234 117.546 575.454 -26.2335 398.094 -26.2335C220.733 -26.2335 76.9534 117.546 76.9534 294.907C76.9534 472.267 220.733 616.047 398.094 616.047Z" stroke="#F4901D" stroke-width="0.9014" stroke-miterlimit="10"/>
<path d="M398.093 591.125C561.69 591.125 694.311 458.504 694.311 294.907C694.311 131.31 561.69 -1.31091 398.093 -1.31091C234.497 -1.31091 101.875 131.31 101.875 294.907C101.875 458.504 234.497 591.125 398.093 591.125Z" stroke="#F4901D" stroke-width="0.9014" stroke-miterlimit="10"/>
<path d="M398.093 566.203C547.926 566.203 669.389 444.739 669.389 294.907C669.389 145.074 547.926 23.6109 398.093 23.6109C248.261 23.6109 126.798 145.074 126.798 294.907C126.798 444.739 248.261 566.203 398.093 566.203Z" stroke="#F4901D" stroke-width="0.9014" stroke-miterlimit="10"/>
<path d="M565.428 653.786C367.119 746.354 131.782 660.551 39.214 462.241C-53.3541 263.932 32.8054 28.5953 230.759 -63.9728" stroke="#F4901D" stroke-width="4" stroke-miterlimit="10"/>
<path d="M555.103 631.356C369.255 717.872 148.516 637.765 62 451.917C-24.5155 266.068 55.5914 45.3289 241.44 -41.1866" stroke="#F4901D" stroke-width="4" stroke-miterlimit="10"/>
<path d="M544.422 608.57C371.391 689.389 165.249 614.266 84.43 441.235C3.61091 268.204 78.7335 62.0622 251.765 -18.7569" stroke="#F4901D" stroke-width="4" stroke-miterlimit="10"/>
<path d="M534.097 586.14C373.527 661.263 182.338 591.481 107.216 430.911C32.0932 269.985 101.875 78.7958 262.445 4.0293" stroke="#F4901D" stroke-width="4" stroke-miterlimit="10"/>
<path d="M523.416 563.354C375.307 632.424 199.072 568.338 129.646 420.23C60.5758 272.121 124.661 95.8851 272.77 26.459" stroke="#F4901D" stroke-width="4" stroke-miterlimit="10"/>
<path d="M512.735 540.924C377.088 604.298 215.805 545.553 152.432 409.549C89.0583 273.901 147.803 112.619 283.451 49.2452" stroke="#F4901D" stroke-width="4" stroke-miterlimit="10"/>
</g>
</svg>
