<svg width="16" height="16" viewBox="0 0 16 16" fill="none" xmlns="http://www.w3.org/2000/svg">
<path d="M4.30325 12.6667L1.33325 15V2.66667C1.33325 2.48986 1.40349 2.32029 1.52851 2.19526C1.65354 2.07024 1.82311 2 1.99992 2H13.9999C14.1767 2 14.3463 2.07024 14.4713 2.19526C14.5963 2.32029 14.6666 2.48986 14.6666 2.66667V12C14.6666 12.1768 14.5963 12.3464 14.4713 12.4714C14.3463 12.5964 14.1767 12.6667 13.9999 12.6667H4.30325ZM2.66659 12.2567L3.84192 11.3333H13.3333V3.33333H2.66659V12.2567ZM7.33325 8.66667H8.66659V10H7.33325V8.66667ZM7.33325 4.66667H8.66659V8H7.33325V4.66667Z" fill="#646464"/>
</svg>
