<svg width="161" height="161" viewBox="0 0 161 161" fill="none" xmlns="http://www.w3.org/2000/svg">
<path d="M3.10754 1.55377C3.10754 2.44164 2.44164 3.10754 1.55377 3.10754C0.665902 3.10754 0 2.44164 0 1.55377C0 0.665902 0.665902 0 1.55377 0C2.44164 0 3.10754 0.665902 3.10754 1.55377Z" fill="#E2E2E2"/>
<path d="M45.2073 1.55377C45.2073 2.44164 44.5414 3.10754 43.6535 3.10754C42.7656 3.10754 42.0997 2.44164 42.0997 1.55377C42.0997 0.665902 42.7656 0 43.6535 0C44.5414 0 45.2073 0.665902 45.2073 1.55377Z" fill="#E2E2E2"/>
<path d="M13.614 1.55377C13.614 2.44164 12.9481 3.10754 12.0602 3.10754C11.1724 3.10754 10.5065 2.44164 10.5065 1.55377C10.5065 0.665902 11.2464 0 12.0602 0C12.9481 0 13.614 0.665902 13.614 1.55377Z" fill="#E2E2E2"/>
<path d="M55.7136 1.55377C55.7136 2.44164 55.0477 3.10754 54.1599 3.10754C53.272 3.10754 52.6061 2.44164 52.6061 1.55377C52.6061 0.665902 53.346 0 54.1599 0C55.0477 0 55.7136 0.665902 55.7136 1.55377Z" fill="#E2E2E2"/>
<path d="M24.1943 1.55377C24.1943 2.44164 23.5284 3.10754 22.6406 3.10754C21.7527 3.10754 21.0128 2.44164 21.0128 1.55377C21.0128 0.665902 21.7527 0 22.6406 0C23.4545 0 24.1943 0.665902 24.1943 1.55377Z" fill="#E2E2E2"/>
<path d="M66.2941 1.55377C66.2941 2.44164 65.6282 3.10754 64.7403 3.10754C63.8524 3.10754 63.1125 2.44164 63.1125 1.55377C63.1125 0.665902 63.8524 0 64.7403 0C65.5542 0 66.2941 0.665902 66.2941 1.55377Z" fill="#E2E2E2"/>
<path d="M33.147 3.10754C34.0052 3.10754 34.7008 2.41189 34.7008 1.55377C34.7008 0.695647 34.0052 0 33.147 0C32.2889 0 31.5933 0.695647 31.5933 1.55377C31.5933 2.41189 32.2889 3.10754 33.147 3.10754Z" fill="#E2E2E2"/>
<path d="M75.2468 3.10754C76.1049 3.10754 76.8005 2.41189 76.8005 1.55377C76.8005 0.695647 76.1049 0 75.2468 0C74.3886 0 73.693 0.695647 73.693 1.55377C73.693 2.41189 74.3886 3.10754 75.2468 3.10754Z" fill="#E2E2E2"/>
<path d="M3.10754 12.0601C3.10754 12.948 2.44164 13.6139 1.55377 13.6139C0.665902 13.6139 0 12.948 0 12.0601C0 11.1722 0.665902 10.5063 1.55377 10.5063C2.44164 10.5063 3.10754 11.1722 3.10754 12.0601Z" fill="#E2E2E2"/>
<path d="M45.1332 12.0601C45.1332 12.948 44.4673 13.6139 43.5794 13.6139C42.6915 13.6139 42.0256 12.948 42.0256 12.0601C42.0256 11.1722 42.6915 10.5063 43.5794 10.5063C44.4673 10.5063 45.1332 11.1722 45.1332 12.0601Z" fill="#E2E2E2"/>
<path d="M13.614 12.0601C13.614 12.948 12.9481 13.6139 12.0602 13.6139C11.1724 13.6139 10.5065 12.948 10.5065 12.0601C10.5065 11.1722 11.1724 10.5063 12.0602 10.5063C12.9481 10.5063 13.614 11.1722 13.614 12.0601Z" fill="#E2E2E2"/>
<path d="M55.6396 12.0601C55.6396 12.948 54.9737 13.6139 54.0859 13.6139C53.198 13.6139 52.5321 12.948 52.5321 12.0601C52.5321 11.1722 53.198 10.5063 54.0859 10.5063C54.9737 10.5063 55.6396 11.1722 55.6396 12.0601Z" fill="#E2E2E2"/>
<path d="M24.1204 12.0601C24.1204 12.948 23.4545 13.6139 22.5666 13.6139C21.6787 13.6139 21.0128 12.948 21.0128 12.0601C21.0128 11.1722 21.6787 10.5063 22.5666 10.5063C23.3805 10.5063 24.1204 11.1722 24.1204 12.0601Z" fill="#E2E2E2"/>
<path d="M66.146 12.0601C66.146 12.948 65.4801 13.6139 64.5922 13.6139C63.7044 13.6139 63.0385 12.948 63.0385 12.0601C63.0385 11.1722 63.7044 10.5063 64.5922 10.5063C65.4061 10.5063 66.146 11.1722 66.146 12.0601Z" fill="#E2E2E2"/>
<path d="M33.0731 13.6139C33.9312 13.6139 34.6268 12.9182 34.6268 12.0601C34.6268 11.202 33.9312 10.5063 33.0731 10.5063C32.2149 10.5063 31.5193 11.202 31.5193 12.0601C31.5193 12.9182 32.2149 13.6139 33.0731 13.6139Z" fill="#E2E2E2"/>
<path d="M75.0987 13.6139C75.9568 13.6139 76.6525 12.9182 76.6525 12.0601C76.6525 11.202 75.9568 10.5063 75.0987 10.5063C74.2406 10.5063 73.5449 11.202 73.5449 12.0601C73.5449 12.9182 74.2406 13.6139 75.0987 13.6139Z" fill="#E2E2E2"/>
<path d="M3.10754 22.5667C3.10754 23.4546 2.44164 24.1205 1.55377 24.1205C0.665902 24.1205 0 23.3806 0 22.5667C0 21.6788 0.665902 21.0129 1.55377 21.0129C2.44164 21.0129 3.10754 21.6788 3.10754 22.5667Z" fill="#E2E2E2"/>
<path d="M45.1332 22.5667C45.1332 23.4546 44.4673 24.1205 43.5794 24.1205C42.6915 24.1205 42.0256 23.3806 42.0256 22.5667C42.0256 21.6788 42.6915 21.0129 43.5794 21.0129C44.4673 21.0129 45.1332 21.6788 45.1332 22.5667Z" fill="#E2E2E2"/>
<path d="M13.614 22.5667C13.614 23.4546 12.9481 24.1205 12.0602 24.1205C11.1724 24.1205 10.5065 23.4546 10.5065 22.5667C10.5065 21.6788 11.1724 21.0129 12.0602 21.0129C12.9481 21.0129 13.614 21.6788 13.614 22.5667Z" fill="#E2E2E2"/>
<path d="M55.6396 22.5667C55.6396 23.4546 54.9737 24.1205 54.0859 24.1205C53.198 24.1205 52.5321 23.4546 52.5321 22.5667C52.5321 21.6788 53.198 21.0129 54.0859 21.0129C54.9737 21.0129 55.6396 21.6788 55.6396 22.5667Z" fill="#E2E2E2"/>
<path d="M24.1204 22.5667C24.1204 23.4546 23.4545 24.1205 22.5666 24.1205C21.6787 24.1205 21.0128 23.4546 21.0128 22.5667C21.0128 21.6788 21.6787 21.0129 22.5666 21.0129C23.3805 21.0129 24.1204 21.6788 24.1204 22.5667Z" fill="#E2E2E2"/>
<path d="M66.146 22.5667C66.146 23.4546 65.4801 24.1205 64.5922 24.1205C63.7044 24.1205 63.0385 23.4546 63.0385 22.5667C63.0385 21.6788 63.7044 21.0129 64.5922 21.0129C65.4061 21.0129 66.146 21.6788 66.146 22.5667Z" fill="#E2E2E2"/>
<path d="M34.6268 22.5667C34.6268 23.4546 33.9609 24.1205 33.0731 24.1205C32.1852 24.1205 31.5193 23.4546 31.5193 22.5667C31.5193 21.6788 32.1852 21.0129 33.0731 21.0129C33.9609 21.0129 34.6268 21.6788 34.6268 22.5667Z" fill="#E2E2E2"/>
<path d="M76.6525 22.5667C76.6525 23.4546 75.9866 24.1205 75.0987 24.1205C74.2108 24.1205 73.5449 23.4546 73.5449 22.5667C73.5449 21.6788 74.2108 21.0129 75.0987 21.0129C75.9866 21.0129 76.6525 21.6788 76.6525 22.5667Z" fill="#E2E2E2"/>
<path d="M3.10754 33.0782C3.10754 33.9661 2.44164 34.632 1.55377 34.632C0.665902 34.632 0 33.8921 0 33.0782C0 32.2643 0.665902 31.5244 1.55377 31.5244C2.44164 31.5244 3.10754 32.1903 3.10754 33.0782Z" fill="#E2E2E2"/>
<path d="M45.2073 33.0782C45.2073 33.9661 44.5414 34.632 43.6535 34.632C42.7656 34.632 42.0997 33.8921 42.0997 33.0782C42.0997 32.2643 42.7656 31.5244 43.6535 31.5244C44.5414 31.5244 45.2073 32.1903 45.2073 33.0782Z" fill="#E2E2E2"/>
<path d="M13.614 33.0782C13.614 33.966 12.9481 34.6319 12.0602 34.6319C11.1724 34.6319 10.5065 33.966 10.5065 33.0782C10.5065 32.1903 11.1724 31.5244 12.0602 31.5244C12.9481 31.4504 13.614 32.1903 13.614 33.0782Z" fill="#E2E2E2"/>
<path d="M55.7136 33.0782C55.7136 33.966 55.0477 34.6319 54.1599 34.6319C53.272 34.6319 52.6061 33.966 52.6061 33.0782C52.6061 32.1903 53.272 31.5244 54.1599 31.5244C55.0477 31.4504 55.7136 32.1903 55.7136 33.0782Z" fill="#E2E2E2"/>
<path d="M24.1943 33.0782C24.1943 33.966 23.5284 34.6319 22.6406 34.6319C21.7527 34.6319 21.0128 33.892 21.0128 33.0782C21.0128 32.2643 21.6787 31.5244 22.5666 31.5244C23.4545 31.4504 24.1943 32.1903 24.1943 33.0782Z" fill="#E2E2E2"/>
<path d="M66.2941 33.0782C66.2941 33.966 65.6282 34.6319 64.7403 34.6319C63.8524 34.6319 63.1125 33.892 63.1125 33.0782C63.1125 32.2643 63.7784 31.5244 64.6663 31.5244C65.5542 31.4504 66.2941 32.1903 66.2941 33.0782Z" fill="#E2E2E2"/>
<path d="M33.147 34.632C34.0052 34.632 34.7008 33.9363 34.7008 33.0782C34.7008 32.2201 34.0052 31.5244 33.147 31.5244C32.2889 31.5244 31.5933 32.2201 31.5933 33.0782C31.5933 33.9363 32.2889 34.632 33.147 34.632Z" fill="#E2E2E2"/>
<path d="M75.2468 34.632C76.1049 34.632 76.8005 33.9363 76.8005 33.0782C76.8005 32.2201 76.1049 31.5244 75.2468 31.5244C74.3886 31.5244 73.693 32.2201 73.693 33.0782C73.693 33.9363 74.3886 34.632 75.2468 34.632Z" fill="#E2E2E2"/>
<path d="M3.10754 43.5848C3.10754 44.4726 2.44164 45.1385 1.55377 45.1385C0.665902 45.1385 0 44.4726 0 43.5848C0 42.6969 0.665902 42.031 1.55377 42.031C2.44164 42.031 3.10754 42.6969 3.10754 43.5848Z" fill="#E2E2E2"/>
<path d="M45.2073 43.5848C45.2073 44.4726 44.5414 45.1385 43.6535 45.1385C42.7656 45.1385 42.0997 44.4726 42.0997 43.5848C42.0997 42.6969 42.7656 42.031 43.6535 42.031C44.5414 42.031 45.2073 42.6969 45.2073 43.5848Z" fill="#E2E2E2"/>
<path d="M13.614 43.5848C13.614 44.4726 12.9481 45.1385 12.0602 45.1385C11.1724 45.1385 10.5065 44.4726 10.5065 43.5848C10.5065 42.6969 11.2464 42.031 12.0602 42.031C12.9481 42.031 13.614 42.6969 13.614 43.5848Z" fill="#E2E2E2"/>
<path d="M55.7136 43.5848C55.7136 44.4726 55.0477 45.1385 54.1599 45.1385C53.272 45.1385 52.6061 44.4726 52.6061 43.5848C52.6061 42.6969 53.346 42.031 54.1599 42.031C55.0477 42.031 55.7136 42.6969 55.7136 43.5848Z" fill="#E2E2E2"/>
<path d="M24.1943 43.5848C24.1943 44.4726 23.5284 45.1385 22.6406 45.1385C21.7527 45.1385 21.0128 44.4726 21.0128 43.5848C21.0128 42.6969 21.7527 42.031 22.6406 42.031C23.4545 42.031 24.1943 42.6969 24.1943 43.5848Z" fill="#E2E2E2"/>
<path d="M66.2941 43.5848C66.2941 44.4726 65.6282 45.1385 64.7403 45.1385C63.8524 45.1385 63.1125 44.4726 63.1125 43.5848C63.1125 42.6969 63.8524 42.031 64.7403 42.031C65.5542 42.031 66.2941 42.6969 66.2941 43.5848Z" fill="#E2E2E2"/>
<path d="M33.147 45.1385C34.0052 45.1385 34.7008 44.4429 34.7008 43.5848C34.7008 42.7267 34.0052 42.031 33.147 42.031C32.2889 42.031 31.5933 42.7267 31.5933 43.5848C31.5933 44.4429 32.2889 45.1385 33.147 45.1385Z" fill="#E2E2E2"/>
<path d="M75.2468 45.1385C76.1049 45.1385 76.8005 44.4429 76.8005 43.5848C76.8005 42.7267 76.1049 42.031 75.2468 42.031C74.3886 42.031 73.693 42.7267 73.693 43.5848C73.693 44.4429 74.3886 45.1385 75.2468 45.1385Z" fill="#E2E2E2"/>
<path d="M3.10754 54.0911C3.10754 54.979 2.44164 55.6449 1.55377 55.6449C0.665902 55.6449 0 54.979 0 54.0911C0 53.2033 0.665902 52.5374 1.55377 52.5374C2.44164 52.5374 3.10754 53.2033 3.10754 54.0911Z" fill="#E2E2E2"/>
<path d="M45.1332 54.0911C45.1332 54.979 44.4673 55.6449 43.5794 55.6449C42.6915 55.6449 42.0256 54.979 42.0256 54.0911C42.0256 53.2033 42.6915 52.5374 43.5794 52.5374C44.4673 52.5374 45.1332 53.2033 45.1332 54.0911Z" fill="#E2E2E2"/>
<path d="M13.614 54.0911C13.614 54.979 12.9481 55.6449 12.0602 55.6449C11.1724 55.6449 10.5065 54.979 10.5065 54.0911C10.5065 53.2033 11.1724 52.5374 12.0602 52.5374C12.9481 52.5374 13.614 53.2033 13.614 54.0911Z" fill="#E2E2E2"/>
<path d="M55.6396 54.0911C55.6396 54.979 54.9737 55.6449 54.0859 55.6449C53.198 55.6449 52.5321 54.979 52.5321 54.0911C52.5321 53.2033 53.198 52.5374 54.0859 52.5374C54.9737 52.5374 55.6396 53.2033 55.6396 54.0911Z" fill="#E2E2E2"/>
<path d="M24.1204 54.0911C24.1204 54.979 23.4545 55.6449 22.5666 55.6449C21.6787 55.6449 21.0128 54.979 21.0128 54.0911C21.0128 53.2033 21.6787 52.5374 22.5666 52.5374C23.3805 52.5374 24.1204 53.2033 24.1204 54.0911Z" fill="#E2E2E2"/>
<path d="M66.146 54.0911C66.146 54.979 65.4801 55.6449 64.5922 55.6449C63.7044 55.6449 63.0385 54.979 63.0385 54.0911C63.0385 53.2033 63.7044 52.5374 64.5922 52.5374C65.4061 52.5374 66.146 53.2033 66.146 54.0911Z" fill="#E2E2E2"/>
<path d="M33.0731 55.6449C33.9312 55.6449 34.6268 54.9492 34.6268 54.0911C34.6268 53.233 33.9312 52.5374 33.0731 52.5374C32.2149 52.5374 31.5193 53.233 31.5193 54.0911C31.5193 54.9492 32.2149 55.6449 33.0731 55.6449Z" fill="#E2E2E2"/>
<path d="M75.0987 55.6449C75.9568 55.6449 76.6525 54.9492 76.6525 54.0911C76.6525 53.233 75.9568 52.5374 75.0987 52.5374C74.2406 52.5374 73.5449 53.233 73.5449 54.0911C73.5449 54.9492 74.2406 55.6449 75.0987 55.6449Z" fill="#E2E2E2"/>
<path d="M3.10754 64.5977C3.10754 65.4856 2.44164 66.1515 1.55377 66.1515C0.665902 66.1515 0 65.4116 0 64.5977C0 63.7098 0.665902 63.0439 1.55377 63.0439C2.44164 63.0439 3.10754 63.7098 3.10754 64.5977Z" fill="#E2E2E2"/>
<path d="M45.1332 64.5977C45.1332 65.4856 44.4673 66.1515 43.5794 66.1515C42.6915 66.1515 42.0256 65.4116 42.0256 64.5977C42.0256 63.7098 42.6915 63.0439 43.5794 63.0439C44.4673 63.0439 45.1332 63.7098 45.1332 64.5977Z" fill="#E2E2E2"/>
<path d="M13.614 64.5977C13.614 65.4856 12.9481 66.1515 12.0602 66.1515C11.1724 66.1515 10.5065 65.4856 10.5065 64.5977C10.5065 63.7098 11.1724 63.0439 12.0602 63.0439C12.9481 63.0439 13.614 63.7098 13.614 64.5977Z" fill="#E2E2E2"/>
<path d="M55.6396 64.5977C55.6396 65.4856 54.9737 66.1515 54.0859 66.1515C53.198 66.1515 52.5321 65.4856 52.5321 64.5977C52.5321 63.7098 53.198 63.0439 54.0859 63.0439C54.9737 63.0439 55.6396 63.7098 55.6396 64.5977Z" fill="#E2E2E2"/>
<path d="M24.1204 64.5977C24.1204 65.4856 23.4545 66.1515 22.5666 66.1515C21.6787 66.1515 21.0128 65.4856 21.0128 64.5977C21.0128 63.7098 21.6787 63.0439 22.5666 63.0439C23.3805 63.0439 24.1204 63.7098 24.1204 64.5977Z" fill="#E2E2E2"/>
<path d="M66.146 64.5977C66.146 65.4856 65.4801 66.1515 64.5922 66.1515C63.7044 66.1515 63.0385 65.4856 63.0385 64.5977C63.0385 63.7098 63.7044 63.0439 64.5922 63.0439C65.4061 63.0439 66.146 63.7098 66.146 64.5977Z" fill="#E2E2E2"/>
<path d="M34.6268 64.5977C34.6268 65.4856 33.9609 66.1515 33.0731 66.1515C32.1852 66.1515 31.5193 65.4856 31.5193 64.5977C31.5193 63.7098 32.1852 63.0439 33.0731 63.0439C33.9609 63.0439 34.6268 63.7098 34.6268 64.5977Z" fill="#E2E2E2"/>
<path d="M76.6525 64.5977C76.6525 65.4856 75.9866 66.1515 75.0987 66.1515C74.2108 66.1515 73.5449 65.4856 73.5449 64.5977C73.5449 63.7098 74.2108 63.0439 75.0987 63.0439C75.9866 63.0439 76.6525 63.7098 76.6525 64.5977Z" fill="#E2E2E2"/>
<path d="M3.10754 75.1092C3.10754 75.9971 2.44164 76.663 1.55377 76.663C0.665902 76.663 0 75.9231 0 75.1092C0 74.2953 0.665902 73.5554 1.55377 73.5554C2.44164 73.5554 3.10754 74.2213 3.10754 75.1092Z" fill="#E2E2E2"/>
<path d="M45.2073 75.1092C45.2073 75.9971 44.5414 76.663 43.6535 76.663C42.7656 76.663 42.0997 75.9231 42.0997 75.1092C42.0997 74.2953 42.7656 73.5554 43.6535 73.5554C44.5414 73.5554 45.2073 74.2213 45.2073 75.1092Z" fill="#E2E2E2"/>
<path d="M13.614 75.1092C13.614 75.997 12.9481 76.6629 12.0602 76.6629C11.1724 76.6629 10.5065 75.997 10.5065 75.1092C10.5065 74.2213 11.1724 73.5554 12.0602 73.5554C12.9481 73.4814 13.614 74.2213 13.614 75.1092Z" fill="#E2E2E2"/>
<path d="M55.7136 75.1092C55.7136 75.997 55.0477 76.6629 54.1599 76.6629C53.272 76.6629 52.6061 75.997 52.6061 75.1092C52.6061 74.2213 53.272 73.5554 54.1599 73.5554C55.0477 73.4814 55.7136 74.2213 55.7136 75.1092Z" fill="#E2E2E2"/>
<path d="M24.1943 75.1092C24.1943 75.997 23.5284 76.6629 22.6406 76.6629C21.7527 76.6629 21.0128 75.9231 21.0128 75.1092C21.0128 74.2953 21.6787 73.5554 22.5666 73.5554C23.4545 73.4814 24.1943 74.2213 24.1943 75.1092Z" fill="#E2E2E2"/>
<path d="M66.2941 75.1092C66.2941 75.997 65.6282 76.6629 64.7403 76.6629C63.8524 76.6629 63.1125 75.9231 63.1125 75.1092C63.1125 74.2953 63.7784 73.5554 64.6663 73.5554C65.5542 73.4814 66.2941 74.2213 66.2941 75.1092Z" fill="#E2E2E2"/>
<path d="M33.147 76.663C34.0052 76.663 34.7008 75.9673 34.7008 75.1092C34.7008 74.2511 34.0052 73.5554 33.147 73.5554C32.2889 73.5554 31.5933 74.2511 31.5933 75.1092C31.5933 75.9673 32.2889 76.663 33.147 76.663Z" fill="#E2E2E2"/>
<path d="M75.2468 76.663C76.1049 76.663 76.8005 75.9673 76.8005 75.1092C76.8005 74.2511 76.1049 73.5554 75.2468 73.5554C74.3886 73.5554 73.693 74.2511 73.693 75.1092C73.693 75.9673 74.3886 76.663 75.2468 76.663Z" fill="#E2E2E2"/>
<path d="M87.307 1.55377C87.307 2.44164 86.6411 3.10754 85.7532 3.10754C84.8654 3.10754 84.1995 2.44164 84.1995 1.55377C84.1995 0.665902 84.8654 0 85.7532 0C86.6411 0 87.307 0.665902 87.307 1.55377Z" fill="#E2E2E2"/>
<path d="M129.407 1.55377C129.407 2.44164 128.741 3.10754 127.853 3.10754C126.965 3.10754 126.299 2.44164 126.299 1.55377C126.299 0.665902 126.965 0 127.853 0C128.741 0 129.407 0.665902 129.407 1.55377Z" fill="#E2E2E2"/>
<path d="M97.8134 1.55377C97.8134 2.44164 97.1475 3.10754 96.2596 3.10754C95.3717 3.10754 94.7058 2.44164 94.7058 1.55377C94.7058 0.665902 95.4457 0 96.2596 0C97.1475 0 97.8134 0.665902 97.8134 1.55377Z" fill="#E2E2E2"/>
<path d="M139.913 1.55377C139.913 2.44164 139.247 3.10754 138.359 3.10754C137.471 3.10754 136.806 2.44164 136.806 1.55377C136.806 0.665902 137.545 0 138.359 0C139.247 0 139.913 0.665902 139.913 1.55377Z" fill="#E2E2E2"/>
<path d="M108.394 1.55377C108.394 2.44164 107.728 3.10754 106.84 3.10754C105.952 3.10754 105.212 2.44164 105.212 1.55377C105.212 0.665902 105.952 0 106.84 0C107.654 0 108.394 0.665902 108.394 1.55377Z" fill="#E2E2E2"/>
<path d="M150.493 1.55377C150.493 2.44164 149.828 3.10754 148.94 3.10754C148.052 3.10754 147.312 2.44164 147.312 1.55377C147.312 0.665902 148.052 0 148.94 0C149.754 0 150.493 0.665902 150.493 1.55377Z" fill="#E2E2E2"/>
<path d="M117.346 3.10754C118.205 3.10754 118.9 2.41189 118.9 1.55377C118.9 0.695647 118.205 0 117.346 0C116.488 0 115.793 0.695647 115.793 1.55377C115.793 2.41189 116.488 3.10754 117.346 3.10754Z" fill="#E2E2E2"/>
<path d="M159.446 3.10754C160.304 3.10754 161 2.41189 161 1.55377C161 0.695647 160.304 0 159.446 0C158.588 0 157.892 0.695647 157.892 1.55377C157.892 2.41189 158.588 3.10754 159.446 3.10754Z" fill="#E2E2E2"/>
<path d="M87.307 12.0601C87.307 12.948 86.6411 13.6139 85.7532 13.6139C84.8654 13.6139 84.1995 12.948 84.1995 12.0601C84.1995 11.1722 84.8654 10.5063 85.7532 10.5063C86.6411 10.5063 87.307 11.1722 87.307 12.0601Z" fill="#E2E2E2"/>
<path d="M129.333 12.0601C129.333 12.948 128.667 13.6139 127.779 13.6139C126.891 13.6139 126.225 12.948 126.225 12.0601C126.225 11.1722 126.891 10.5063 127.779 10.5063C128.667 10.5063 129.333 11.1722 129.333 12.0601Z" fill="#E2E2E2"/>
<path d="M97.8134 12.0601C97.8134 12.948 97.1475 13.6139 96.2596 13.6139C95.3717 13.6139 94.7058 12.948 94.7058 12.0601C94.7058 11.1722 95.3717 10.5063 96.2596 10.5063C97.1475 10.5063 97.8134 11.1722 97.8134 12.0601Z" fill="#E2E2E2"/>
<path d="M139.839 12.0601C139.839 12.948 139.173 13.6139 138.285 13.6139C137.397 13.6139 136.732 12.948 136.732 12.0601C136.732 11.1722 137.397 10.5063 138.285 10.5063C139.173 10.5063 139.839 11.1722 139.839 12.0601Z" fill="#E2E2E2"/>
<path d="M108.32 12.0601C108.32 12.948 107.654 13.6139 106.766 13.6139C105.878 13.6139 105.212 12.948 105.212 12.0601C105.212 11.1722 105.878 10.5063 106.766 10.5063C107.58 10.5063 108.32 11.1722 108.32 12.0601Z" fill="#E2E2E2"/>
<path d="M150.345 12.0601C150.345 12.948 149.68 13.6139 148.792 13.6139C147.904 13.6139 147.238 12.948 147.238 12.0601C147.238 11.1722 147.904 10.5063 148.792 10.5063C149.606 10.5063 150.345 11.1722 150.345 12.0601Z" fill="#E2E2E2"/>
<path d="M117.272 13.6139C118.131 13.6139 118.826 12.9182 118.826 12.0601C118.826 11.202 118.131 10.5063 117.272 10.5063C116.414 10.5063 115.719 11.202 115.719 12.0601C115.719 12.9182 116.414 13.6139 117.272 13.6139Z" fill="#E2E2E2"/>
<path d="M159.298 13.6139C160.156 13.6139 160.852 12.9182 160.852 12.0601C160.852 11.202 160.156 10.5063 159.298 10.5063C158.44 10.5063 157.744 11.202 157.744 12.0601C157.744 12.9182 158.44 13.6139 159.298 13.6139Z" fill="#E2E2E2"/>
<path d="M87.307 22.5667C87.307 23.4546 86.6411 24.1205 85.7532 24.1205C84.8654 24.1205 84.1995 23.3806 84.1995 22.5667C84.1995 21.6788 84.8654 21.0129 85.7532 21.0129C86.6411 21.0129 87.307 21.6788 87.307 22.5667Z" fill="#E2E2E2"/>
<path d="M129.333 22.5667C129.333 23.4546 128.667 24.1205 127.779 24.1205C126.891 24.1205 126.225 23.3806 126.225 22.5667C126.225 21.6788 126.891 21.0129 127.779 21.0129C128.667 21.0129 129.333 21.6788 129.333 22.5667Z" fill="#E2E2E2"/>
<path d="M97.8134 22.5667C97.8134 23.4546 97.1475 24.1205 96.2596 24.1205C95.3717 24.1205 94.7058 23.4546 94.7058 22.5667C94.7058 21.6788 95.3717 21.0129 96.2596 21.0129C97.1475 21.0129 97.8134 21.6788 97.8134 22.5667Z" fill="#E2E2E2"/>
<path d="M139.839 22.5667C139.839 23.4546 139.173 24.1205 138.285 24.1205C137.397 24.1205 136.732 23.4546 136.732 22.5667C136.732 21.6788 137.397 21.0129 138.285 21.0129C139.173 21.0129 139.839 21.6788 139.839 22.5667Z" fill="#E2E2E2"/>
<path d="M108.32 22.5667C108.32 23.4546 107.654 24.1205 106.766 24.1205C105.878 24.1205 105.212 23.4546 105.212 22.5667C105.212 21.6788 105.878 21.0129 106.766 21.0129C107.58 21.0129 108.32 21.6788 108.32 22.5667Z" fill="#E2E2E2"/>
<path d="M150.345 22.5667C150.345 23.4546 149.68 24.1205 148.792 24.1205C147.904 24.1205 147.238 23.4546 147.238 22.5667C147.238 21.6788 147.904 21.0129 148.792 21.0129C149.606 21.0129 150.345 21.6788 150.345 22.5667Z" fill="#E2E2E2"/>
<path d="M118.826 22.5667C118.826 23.4546 118.16 24.1205 117.272 24.1205C116.385 24.1205 115.719 23.4546 115.719 22.5667C115.719 21.6788 116.385 21.0129 117.272 21.0129C118.16 21.0129 118.826 21.6788 118.826 22.5667Z" fill="#E2E2E2"/>
<path d="M160.852 22.5667C160.852 23.4546 160.186 24.1205 159.298 24.1205C158.41 24.1205 157.744 23.4546 157.744 22.5667C157.744 21.6788 158.41 21.0129 159.298 21.0129C160.186 21.0129 160.852 21.6788 160.852 22.5667Z" fill="#E2E2E2"/>
<path d="M87.307 33.0782C87.307 33.9661 86.6411 34.632 85.7532 34.632C84.8654 34.632 84.1995 33.8921 84.1995 33.0782C84.1995 32.2643 84.8654 31.5244 85.7532 31.5244C86.6411 31.5244 87.307 32.1903 87.307 33.0782Z" fill="#E2E2E2"/>
<path d="M129.407 33.0782C129.407 33.9661 128.741 34.632 127.853 34.632C126.965 34.632 126.299 33.8921 126.299 33.0782C126.299 32.2643 126.965 31.5244 127.853 31.5244C128.741 31.5244 129.407 32.1903 129.407 33.0782Z" fill="#E2E2E2"/>
<path d="M97.8134 33.0782C97.8134 33.966 97.1475 34.6319 96.2596 34.6319C95.3717 34.6319 94.7058 33.966 94.7058 33.0782C94.7058 32.1903 95.3717 31.5244 96.2596 31.5244C97.1475 31.4504 97.8134 32.1903 97.8134 33.0782Z" fill="#E2E2E2"/>
<path d="M139.913 33.0782C139.913 33.966 139.247 34.6319 138.359 34.6319C137.471 34.6319 136.806 33.966 136.806 33.0782C136.806 32.1903 137.471 31.5244 138.359 31.5244C139.247 31.4504 139.913 32.1903 139.913 33.0782Z" fill="#E2E2E2"/>
<path d="M108.394 33.0782C108.394 33.966 107.728 34.6319 106.84 34.6319C105.952 34.6319 105.212 33.892 105.212 33.0782C105.212 32.2643 105.878 31.5244 106.766 31.5244C107.654 31.4504 108.394 32.1903 108.394 33.0782Z" fill="#E2E2E2"/>
<path d="M150.493 33.0782C150.493 33.966 149.828 34.6319 148.94 34.6319C148.052 34.6319 147.312 33.892 147.312 33.0782C147.312 32.2643 147.978 31.5244 148.866 31.5244C149.754 31.4504 150.493 32.1903 150.493 33.0782Z" fill="#E2E2E2"/>
<path d="M117.346 34.632C118.205 34.632 118.9 33.9363 118.9 33.0782C118.9 32.2201 118.205 31.5244 117.346 31.5244C116.488 31.5244 115.793 32.2201 115.793 33.0782C115.793 33.9363 116.488 34.632 117.346 34.632Z" fill="#E2E2E2"/>
<path d="M159.446 34.632C160.304 34.632 161 33.9363 161 33.0782C161 32.2201 160.304 31.5244 159.446 31.5244C158.588 31.5244 157.892 32.2201 157.892 33.0782C157.892 33.9363 158.588 34.632 159.446 34.632Z" fill="#E2E2E2"/>
<path d="M87.307 43.5848C87.307 44.4726 86.6411 45.1385 85.7532 45.1385C84.8654 45.1385 84.1995 44.4726 84.1995 43.5848C84.1995 42.6969 84.8654 42.031 85.7532 42.031C86.6411 42.031 87.307 42.6969 87.307 43.5848Z" fill="#E2E2E2"/>
<path d="M129.407 43.5848C129.407 44.4726 128.741 45.1385 127.853 45.1385C126.965 45.1385 126.299 44.4726 126.299 43.5848C126.299 42.6969 126.965 42.031 127.853 42.031C128.741 42.031 129.407 42.6969 129.407 43.5848Z" fill="#E2E2E2"/>
<path d="M97.8134 43.5848C97.8134 44.4726 97.1475 45.1385 96.2596 45.1385C95.3717 45.1385 94.7058 44.4726 94.7058 43.5848C94.7058 42.6969 95.4457 42.031 96.2596 42.031C97.1475 42.031 97.8134 42.6969 97.8134 43.5848Z" fill="#E2E2E2"/>
<path d="M139.913 43.5848C139.913 44.4726 139.247 45.1385 138.359 45.1385C137.471 45.1385 136.806 44.4726 136.806 43.5848C136.806 42.6969 137.545 42.031 138.359 42.031C139.247 42.031 139.913 42.6969 139.913 43.5848Z" fill="#E2E2E2"/>
<path d="M108.394 43.5848C108.394 44.4726 107.728 45.1385 106.84 45.1385C105.952 45.1385 105.212 44.4726 105.212 43.5848C105.212 42.6969 105.952 42.031 106.84 42.031C107.654 42.031 108.394 42.6969 108.394 43.5848Z" fill="#E2E2E2"/>
<path d="M150.493 43.5848C150.493 44.4726 149.828 45.1385 148.94 45.1385C148.052 45.1385 147.312 44.4726 147.312 43.5848C147.312 42.6969 148.052 42.031 148.94 42.031C149.754 42.031 150.493 42.6969 150.493 43.5848Z" fill="#E2E2E2"/>
<path d="M117.346 45.1385C118.205 45.1385 118.9 44.4429 118.9 43.5848C118.9 42.7267 118.205 42.031 117.346 42.031C116.488 42.031 115.793 42.7267 115.793 43.5848C115.793 44.4429 116.488 45.1385 117.346 45.1385Z" fill="#E2E2E2"/>
<path d="M159.446 45.1385C160.304 45.1385 161 44.4429 161 43.5848C161 42.7267 160.304 42.031 159.446 42.031C158.588 42.031 157.892 42.7267 157.892 43.5848C157.892 44.4429 158.588 45.1385 159.446 45.1385Z" fill="#E2E2E2"/>
<path d="M87.307 54.0911C87.307 54.979 86.6411 55.6449 85.7532 55.6449C84.8654 55.6449 84.1995 54.979 84.1995 54.0911C84.1995 53.2033 84.8654 52.5374 85.7532 52.5374C86.6411 52.5374 87.307 53.2033 87.307 54.0911Z" fill="#E2E2E2"/>
<path d="M129.333 54.0911C129.333 54.979 128.667 55.6449 127.779 55.6449C126.891 55.6449 126.225 54.979 126.225 54.0911C126.225 53.2033 126.891 52.5374 127.779 52.5374C128.667 52.5374 129.333 53.2033 129.333 54.0911Z" fill="#E2E2E2"/>
<path d="M97.8134 54.0911C97.8134 54.979 97.1475 55.6449 96.2596 55.6449C95.3717 55.6449 94.7058 54.979 94.7058 54.0911C94.7058 53.2033 95.3717 52.5374 96.2596 52.5374C97.1475 52.5374 97.8134 53.2033 97.8134 54.0911Z" fill="#E2E2E2"/>
<path d="M139.839 54.0911C139.839 54.979 139.173 55.6449 138.285 55.6449C137.397 55.6449 136.732 54.979 136.732 54.0911C136.732 53.2033 137.397 52.5374 138.285 52.5374C139.173 52.5374 139.839 53.2033 139.839 54.0911Z" fill="#E2E2E2"/>
<path d="M108.32 54.0911C108.32 54.979 107.654 55.6449 106.766 55.6449C105.878 55.6449 105.212 54.979 105.212 54.0911C105.212 53.2033 105.878 52.5374 106.766 52.5374C107.58 52.5374 108.32 53.2033 108.32 54.0911Z" fill="#E2E2E2"/>
<path d="M150.345 54.0911C150.345 54.979 149.68 55.6449 148.792 55.6449C147.904 55.6449 147.238 54.979 147.238 54.0911C147.238 53.2033 147.904 52.5374 148.792 52.5374C149.606 52.5374 150.345 53.2033 150.345 54.0911Z" fill="#E2E2E2"/>
<path d="M117.272 55.6449C118.131 55.6449 118.826 54.9492 118.826 54.0911C118.826 53.233 118.131 52.5374 117.272 52.5374C116.414 52.5374 115.719 53.233 115.719 54.0911C115.719 54.9492 116.414 55.6449 117.272 55.6449Z" fill="#E2E2E2"/>
<path d="M159.298 55.6449C160.156 55.6449 160.852 54.9492 160.852 54.0911C160.852 53.233 160.156 52.5374 159.298 52.5374C158.44 52.5374 157.744 53.233 157.744 54.0911C157.744 54.9492 158.44 55.6449 159.298 55.6449Z" fill="#E2E2E2"/>
<path d="M87.307 64.5977C87.307 65.4856 86.6411 66.1515 85.7532 66.1515C84.8654 66.1515 84.1995 65.4116 84.1995 64.5977C84.1995 63.7098 84.8654 63.0439 85.7532 63.0439C86.6411 63.0439 87.307 63.7098 87.307 64.5977Z" fill="#E2E2E2"/>
<path d="M129.333 64.5977C129.333 65.4856 128.667 66.1515 127.779 66.1515C126.891 66.1515 126.225 65.4116 126.225 64.5977C126.225 63.7098 126.891 63.0439 127.779 63.0439C128.667 63.0439 129.333 63.7098 129.333 64.5977Z" fill="#E2E2E2"/>
<path d="M97.8134 64.5977C97.8134 65.4856 97.1475 66.1515 96.2596 66.1515C95.3717 66.1515 94.7058 65.4856 94.7058 64.5977C94.7058 63.7098 95.3717 63.0439 96.2596 63.0439C97.1475 63.0439 97.8134 63.7098 97.8134 64.5977Z" fill="#E2E2E2"/>
<path d="M139.839 64.5977C139.839 65.4856 139.173 66.1515 138.285 66.1515C137.397 66.1515 136.732 65.4856 136.732 64.5977C136.732 63.7098 137.397 63.0439 138.285 63.0439C139.173 63.0439 139.839 63.7098 139.839 64.5977Z" fill="#E2E2E2"/>
<path d="M108.32 64.5977C108.32 65.4856 107.654 66.1515 106.766 66.1515C105.878 66.1515 105.212 65.4856 105.212 64.5977C105.212 63.7098 105.878 63.0439 106.766 63.0439C107.58 63.0439 108.32 63.7098 108.32 64.5977Z" fill="#E2E2E2"/>
<path d="M150.345 64.5977C150.345 65.4856 149.68 66.1515 148.792 66.1515C147.904 66.1515 147.238 65.4856 147.238 64.5977C147.238 63.7098 147.904 63.0439 148.792 63.0439C149.606 63.0439 150.345 63.7098 150.345 64.5977Z" fill="#E2E2E2"/>
<path d="M118.826 64.5977C118.826 65.4856 118.16 66.1515 117.272 66.1515C116.385 66.1515 115.719 65.4856 115.719 64.5977C115.719 63.7098 116.385 63.0439 117.272 63.0439C118.16 63.0439 118.826 63.7098 118.826 64.5977Z" fill="#E2E2E2"/>
<path d="M160.852 64.5977C160.852 65.4856 160.186 66.1515 159.298 66.1515C158.41 66.1515 157.744 65.4856 157.744 64.5977C157.744 63.7098 158.41 63.0439 159.298 63.0439C160.186 63.0439 160.852 63.7098 160.852 64.5977Z" fill="#E2E2E2"/>
<path d="M87.307 75.1092C87.307 75.9971 86.6411 76.663 85.7532 76.663C84.8654 76.663 84.1995 75.9231 84.1995 75.1092C84.1995 74.2953 84.8654 73.5554 85.7532 73.5554C86.6411 73.5554 87.307 74.2213 87.307 75.1092Z" fill="#E2E2E2"/>
<path d="M129.407 75.1092C129.407 75.9971 128.741 76.663 127.853 76.663C126.965 76.663 126.299 75.9231 126.299 75.1092C126.299 74.2953 126.965 73.5554 127.853 73.5554C128.741 73.5554 129.407 74.2213 129.407 75.1092Z" fill="#E2E2E2"/>
<path d="M97.8134 75.1092C97.8134 75.997 97.1475 76.6629 96.2596 76.6629C95.3717 76.6629 94.7058 75.997 94.7058 75.1092C94.7058 74.2213 95.3717 73.5554 96.2596 73.5554C97.1475 73.4814 97.8134 74.2213 97.8134 75.1092Z" fill="#E2E2E2"/>
<path d="M139.913 75.1092C139.913 75.997 139.247 76.6629 138.359 76.6629C137.471 76.6629 136.806 75.997 136.806 75.1092C136.806 74.2213 137.471 73.5554 138.359 73.5554C139.247 73.4814 139.913 74.2213 139.913 75.1092Z" fill="#E2E2E2"/>
<path d="M108.394 75.1092C108.394 75.997 107.728 76.6629 106.84 76.6629C105.952 76.6629 105.212 75.9231 105.212 75.1092C105.212 74.2953 105.878 73.5554 106.766 73.5554C107.654 73.4814 108.394 74.2213 108.394 75.1092Z" fill="#E2E2E2"/>
<path d="M150.493 75.1092C150.493 75.997 149.828 76.6629 148.94 76.6629C148.052 76.6629 147.312 75.9231 147.312 75.1092C147.312 74.2953 147.978 73.5554 148.866 73.5554C149.754 73.4814 150.493 74.2213 150.493 75.1092Z" fill="#E2E2E2"/>
<path d="M117.346 76.663C118.205 76.663 118.9 75.9673 118.9 75.1092C118.9 74.2511 118.205 73.5554 117.346 73.5554C116.488 73.5554 115.793 74.2511 115.793 75.1092C115.793 75.9673 116.488 76.663 117.346 76.663Z" fill="#E2E2E2"/>
<path d="M159.446 76.663C160.304 76.663 161 75.9673 161 75.1092C161 74.2511 160.304 73.5554 159.446 73.5554C158.588 73.5554 157.892 74.2511 157.892 75.1092C157.892 75.9673 158.588 76.663 159.446 76.663Z" fill="#E2E2E2"/>
<path d="M3.10754 85.5538C3.10754 86.4416 2.44164 87.1075 1.55377 87.1075C0.665902 87.1075 0 86.4416 0 85.5538C0 84.6659 0.665902 84 1.55377 84C2.44164 84 3.10754 84.6659 3.10754 85.5538Z" fill="#E2E2E2"/>
<path d="M45.2073 85.5538C45.2073 86.4416 44.5414 87.1075 43.6535 87.1075C42.7656 87.1075 42.0997 86.4416 42.0997 85.5538C42.0997 84.6659 42.7656 84 43.6535 84C44.5414 84 45.2073 84.6659 45.2073 85.5538Z" fill="#E2E2E2"/>
<path d="M13.614 85.5538C13.614 86.4416 12.9481 87.1075 12.0602 87.1075C11.1724 87.1075 10.5065 86.4416 10.5065 85.5538C10.5065 84.6659 11.2464 84 12.0602 84C12.9481 84 13.614 84.6659 13.614 85.5538Z" fill="#E2E2E2"/>
<path d="M55.7136 85.5538C55.7136 86.4416 55.0477 87.1075 54.1599 87.1075C53.272 87.1075 52.6061 86.4416 52.6061 85.5538C52.6061 84.6659 53.346 84 54.1599 84C55.0477 84 55.7136 84.6659 55.7136 85.5538Z" fill="#E2E2E2"/>
<path d="M24.1943 85.5538C24.1943 86.4416 23.5284 87.1075 22.6406 87.1075C21.7527 87.1075 21.0128 86.4416 21.0128 85.5538C21.0128 84.6659 21.7527 84 22.6406 84C23.4545 84 24.1943 84.6659 24.1943 85.5538Z" fill="#E2E2E2"/>
<path d="M66.2941 85.5538C66.2941 86.4416 65.6282 87.1075 64.7403 87.1075C63.8524 87.1075 63.1125 86.4416 63.1125 85.5538C63.1125 84.6659 63.8524 84 64.7403 84C65.5542 84 66.2941 84.6659 66.2941 85.5538Z" fill="#E2E2E2"/>
<path d="M33.147 87.1075C34.0052 87.1075 34.7008 86.4119 34.7008 85.5538C34.7008 84.6956 34.0052 84 33.147 84C32.2889 84 31.5933 84.6956 31.5933 85.5538C31.5933 86.4119 32.2889 87.1075 33.147 87.1075Z" fill="#E2E2E2"/>
<path d="M75.2468 87.1075C76.1049 87.1075 76.8005 86.4119 76.8005 85.5538C76.8005 84.6956 76.1049 84 75.2468 84C74.3886 84 73.693 84.6956 73.693 85.5538C73.693 86.4119 74.3886 87.1075 75.2468 87.1075Z" fill="#E2E2E2"/>
<path d="M3.10754 96.0601C3.10754 96.948 2.44164 97.6139 1.55377 97.6139C0.665902 97.6139 0 96.948 0 96.0601C0 95.1722 0.665902 94.5063 1.55377 94.5063C2.44164 94.5063 3.10754 95.1722 3.10754 96.0601Z" fill="#E2E2E2"/>
<path d="M45.1332 96.0601C45.1332 96.948 44.4673 97.6139 43.5794 97.6139C42.6915 97.6139 42.0256 96.948 42.0256 96.0601C42.0256 95.1722 42.6915 94.5063 43.5794 94.5063C44.4673 94.5063 45.1332 95.1722 45.1332 96.0601Z" fill="#E2E2E2"/>
<path d="M13.614 96.0601C13.614 96.948 12.9481 97.6139 12.0602 97.6139C11.1724 97.6139 10.5065 96.948 10.5065 96.0601C10.5065 95.1722 11.1724 94.5063 12.0602 94.5063C12.9481 94.5063 13.614 95.1722 13.614 96.0601Z" fill="#E2E2E2"/>
<path d="M55.6396 96.0601C55.6396 96.948 54.9737 97.6139 54.0859 97.6139C53.198 97.6139 52.5321 96.948 52.5321 96.0601C52.5321 95.1722 53.198 94.5063 54.0859 94.5063C54.9737 94.5063 55.6396 95.1722 55.6396 96.0601Z" fill="#E2E2E2"/>
<path d="M24.1204 96.0601C24.1204 96.948 23.4545 97.6139 22.5666 97.6139C21.6787 97.6139 21.0128 96.948 21.0128 96.0601C21.0128 95.1722 21.6787 94.5063 22.5666 94.5063C23.3805 94.5063 24.1204 95.1722 24.1204 96.0601Z" fill="#E2E2E2"/>
<path d="M66.146 96.0601C66.146 96.948 65.4801 97.6139 64.5922 97.6139C63.7044 97.6139 63.0385 96.948 63.0385 96.0601C63.0385 95.1722 63.7044 94.5063 64.5922 94.5063C65.4061 94.5063 66.146 95.1722 66.146 96.0601Z" fill="#E2E2E2"/>
<path d="M33.0731 97.6139C33.9312 97.6139 34.6268 96.9182 34.6268 96.0601C34.6268 95.202 33.9312 94.5063 33.0731 94.5063C32.2149 94.5063 31.5193 95.202 31.5193 96.0601C31.5193 96.9182 32.2149 97.6139 33.0731 97.6139Z" fill="#E2E2E2"/>
<path d="M75.0987 97.6139C75.9568 97.6139 76.6525 96.9182 76.6525 96.0601C76.6525 95.202 75.9568 94.5063 75.0987 94.5063C74.2406 94.5063 73.5449 95.202 73.5449 96.0601C73.5449 96.9182 74.2406 97.6139 75.0987 97.6139Z" fill="#E2E2E2"/>
<path d="M3.10754 106.567C3.10754 107.455 2.44164 108.12 1.55377 108.12C0.665902 108.12 0 107.381 0 106.567C0 105.679 0.665902 105.013 1.55377 105.013C2.44164 105.013 3.10754 105.679 3.10754 106.567Z" fill="#E2E2E2"/>
<path d="M45.1332 106.567C45.1332 107.455 44.4673 108.12 43.5794 108.12C42.6915 108.12 42.0256 107.381 42.0256 106.567C42.0256 105.679 42.6915 105.013 43.5794 105.013C44.4673 105.013 45.1332 105.679 45.1332 106.567Z" fill="#E2E2E2"/>
<path d="M13.614 106.567C13.614 107.455 12.9481 108.12 12.0602 108.12C11.1724 108.12 10.5065 107.455 10.5065 106.567C10.5065 105.679 11.1724 105.013 12.0602 105.013C12.9481 105.013 13.614 105.679 13.614 106.567Z" fill="#E2E2E2"/>
<path d="M55.6396 106.567C55.6396 107.455 54.9737 108.12 54.0859 108.12C53.198 108.12 52.5321 107.455 52.5321 106.567C52.5321 105.679 53.198 105.013 54.0859 105.013C54.9737 105.013 55.6396 105.679 55.6396 106.567Z" fill="#E2E2E2"/>
<path d="M24.1204 106.567C24.1204 107.455 23.4545 108.12 22.5666 108.12C21.6787 108.12 21.0128 107.455 21.0128 106.567C21.0128 105.679 21.6787 105.013 22.5666 105.013C23.3805 105.013 24.1204 105.679 24.1204 106.567Z" fill="#E2E2E2"/>
<path d="M66.146 106.567C66.146 107.455 65.4801 108.12 64.5922 108.12C63.7044 108.12 63.0385 107.455 63.0385 106.567C63.0385 105.679 63.7044 105.013 64.5922 105.013C65.4061 105.013 66.146 105.679 66.146 106.567Z" fill="#E2E2E2"/>
<path d="M34.6268 106.567C34.6268 107.455 33.9609 108.12 33.0731 108.12C32.1852 108.12 31.5193 107.455 31.5193 106.567C31.5193 105.679 32.1852 105.013 33.0731 105.013C33.9609 105.013 34.6268 105.679 34.6268 106.567Z" fill="#E2E2E2"/>
<path d="M76.6525 106.567C76.6525 107.455 75.9866 108.12 75.0987 108.12C74.2108 108.12 73.5449 107.455 73.5449 106.567C73.5449 105.679 74.2108 105.013 75.0987 105.013C75.9866 105.013 76.6525 105.679 76.6525 106.567Z" fill="#E2E2E2"/>
<path d="M3.10754 117.078C3.10754 117.966 2.44164 118.632 1.55377 118.632C0.665902 118.632 0 117.892 0 117.078C0 116.264 0.665902 115.524 1.55377 115.524C2.44164 115.524 3.10754 116.19 3.10754 117.078Z" fill="#E2E2E2"/>
<path d="M45.2073 117.078C45.2073 117.966 44.5414 118.632 43.6535 118.632C42.7656 118.632 42.0997 117.892 42.0997 117.078C42.0997 116.264 42.7656 115.524 43.6535 115.524C44.5414 115.524 45.2073 116.19 45.2073 117.078Z" fill="#E2E2E2"/>
<path d="M13.614 117.078C13.614 117.966 12.9481 118.632 12.0602 118.632C11.1724 118.632 10.5065 117.966 10.5065 117.078C10.5065 116.19 11.1724 115.524 12.0602 115.524C12.9481 115.45 13.614 116.19 13.614 117.078Z" fill="#E2E2E2"/>
<path d="M55.7136 117.078C55.7136 117.966 55.0477 118.632 54.1599 118.632C53.272 118.632 52.6061 117.966 52.6061 117.078C52.6061 116.19 53.272 115.524 54.1599 115.524C55.0477 115.45 55.7136 116.19 55.7136 117.078Z" fill="#E2E2E2"/>
<path d="M24.1943 117.078C24.1943 117.966 23.5284 118.632 22.6406 118.632C21.7527 118.632 21.0128 117.892 21.0128 117.078C21.0128 116.264 21.6787 115.524 22.5666 115.524C23.4545 115.45 24.1943 116.19 24.1943 117.078Z" fill="#E2E2E2"/>
<path d="M66.2941 117.078C66.2941 117.966 65.6282 118.632 64.7403 118.632C63.8524 118.632 63.1125 117.892 63.1125 117.078C63.1125 116.264 63.7784 115.524 64.6663 115.524C65.5542 115.45 66.2941 116.19 66.2941 117.078Z" fill="#E2E2E2"/>
<path d="M33.147 118.632C34.0052 118.632 34.7008 117.936 34.7008 117.078C34.7008 116.22 34.0052 115.524 33.147 115.524C32.2889 115.524 31.5933 116.22 31.5933 117.078C31.5933 117.936 32.2889 118.632 33.147 118.632Z" fill="#E2E2E2"/>
<path d="M75.2468 118.632C76.1049 118.632 76.8005 117.936 76.8005 117.078C76.8005 116.22 76.1049 115.524 75.2468 115.524C74.3886 115.524 73.693 116.22 73.693 117.078C73.693 117.936 74.3886 118.632 75.2468 118.632Z" fill="#E2E2E2"/>
<path d="M3.10754 127.585C3.10754 128.473 2.44164 129.139 1.55377 129.139C0.665902 129.139 0 128.473 0 127.585C0 126.697 0.665902 126.031 1.55377 126.031C2.44164 126.031 3.10754 126.697 3.10754 127.585Z" fill="#E2E2E2"/>
<path d="M45.2073 127.585C45.2073 128.473 44.5414 129.139 43.6535 129.139C42.7656 129.139 42.0997 128.473 42.0997 127.585C42.0997 126.697 42.7656 126.031 43.6535 126.031C44.5414 126.031 45.2073 126.697 45.2073 127.585Z" fill="#E2E2E2"/>
<path d="M13.614 127.585C13.614 128.473 12.9481 129.139 12.0602 129.139C11.1724 129.139 10.5065 128.473 10.5065 127.585C10.5065 126.697 11.2464 126.031 12.0602 126.031C12.9481 126.031 13.614 126.697 13.614 127.585Z" fill="#E2E2E2"/>
<path d="M55.7136 127.585C55.7136 128.473 55.0477 129.139 54.1599 129.139C53.272 129.139 52.6061 128.473 52.6061 127.585C52.6061 126.697 53.346 126.031 54.1599 126.031C55.0477 126.031 55.7136 126.697 55.7136 127.585Z" fill="#E2E2E2"/>
<path d="M24.1943 127.585C24.1943 128.473 23.5284 129.139 22.6406 129.139C21.7527 129.139 21.0128 128.473 21.0128 127.585C21.0128 126.697 21.7527 126.031 22.6406 126.031C23.4545 126.031 24.1943 126.697 24.1943 127.585Z" fill="#E2E2E2"/>
<path d="M66.2941 127.585C66.2941 128.473 65.6282 129.139 64.7403 129.139C63.8524 129.139 63.1125 128.473 63.1125 127.585C63.1125 126.697 63.8524 126.031 64.7403 126.031C65.5542 126.031 66.2941 126.697 66.2941 127.585Z" fill="#E2E2E2"/>
<path d="M33.147 129.139C34.0052 129.139 34.7008 128.443 34.7008 127.585C34.7008 126.727 34.0052 126.031 33.147 126.031C32.2889 126.031 31.5933 126.727 31.5933 127.585C31.5933 128.443 32.2889 129.139 33.147 129.139Z" fill="#E2E2E2"/>
<path d="M75.2468 129.139C76.1049 129.139 76.8005 128.443 76.8005 127.585C76.8005 126.727 76.1049 126.031 75.2468 126.031C74.3886 126.031 73.693 126.727 73.693 127.585C73.693 128.443 74.3886 129.139 75.2468 129.139Z" fill="#E2E2E2"/>
<path d="M3.10754 138.091C3.10754 138.979 2.44164 139.645 1.55377 139.645C0.665902 139.645 0 138.979 0 138.091C0 137.203 0.665902 136.537 1.55377 136.537C2.44164 136.537 3.10754 137.203 3.10754 138.091Z" fill="#E2E2E2"/>
<path d="M45.1332 138.091C45.1332 138.979 44.4673 139.645 43.5794 139.645C42.6915 139.645 42.0256 138.979 42.0256 138.091C42.0256 137.203 42.6915 136.537 43.5794 136.537C44.4673 136.537 45.1332 137.203 45.1332 138.091Z" fill="#E2E2E2"/>
<path d="M13.614 138.091C13.614 138.979 12.9481 139.645 12.0602 139.645C11.1724 139.645 10.5065 138.979 10.5065 138.091C10.5065 137.203 11.1724 136.537 12.0602 136.537C12.9481 136.537 13.614 137.203 13.614 138.091Z" fill="#E2E2E2"/>
<path d="M55.6396 138.091C55.6396 138.979 54.9737 139.645 54.0859 139.645C53.198 139.645 52.5321 138.979 52.5321 138.091C52.5321 137.203 53.198 136.537 54.0859 136.537C54.9737 136.537 55.6396 137.203 55.6396 138.091Z" fill="#E2E2E2"/>
<path d="M24.1204 138.091C24.1204 138.979 23.4545 139.645 22.5666 139.645C21.6787 139.645 21.0128 138.979 21.0128 138.091C21.0128 137.203 21.6787 136.537 22.5666 136.537C23.3805 136.537 24.1204 137.203 24.1204 138.091Z" fill="#E2E2E2"/>
<path d="M66.146 138.091C66.146 138.979 65.4801 139.645 64.5922 139.645C63.7044 139.645 63.0385 138.979 63.0385 138.091C63.0385 137.203 63.7044 136.537 64.5922 136.537C65.4061 136.537 66.146 137.203 66.146 138.091Z" fill="#E2E2E2"/>
<path d="M33.0731 139.645C33.9312 139.645 34.6268 138.949 34.6268 138.091C34.6268 137.233 33.9312 136.537 33.0731 136.537C32.2149 136.537 31.5193 137.233 31.5193 138.091C31.5193 138.949 32.2149 139.645 33.0731 139.645Z" fill="#E2E2E2"/>
<path d="M75.0987 139.645C75.9568 139.645 76.6525 138.949 76.6525 138.091C76.6525 137.233 75.9568 136.537 75.0987 136.537C74.2406 136.537 73.5449 137.233 73.5449 138.091C73.5449 138.949 74.2406 139.645 75.0987 139.645Z" fill="#E2E2E2"/>
<path d="M3.10754 148.598C3.10754 149.486 2.44164 150.151 1.55377 150.151C0.665902 150.151 0 149.412 0 148.598C0 147.71 0.665902 147.044 1.55377 147.044C2.44164 147.044 3.10754 147.71 3.10754 148.598Z" fill="#E2E2E2"/>
<path d="M45.1332 148.598C45.1332 149.486 44.4673 150.151 43.5794 150.151C42.6915 150.151 42.0256 149.412 42.0256 148.598C42.0256 147.71 42.6915 147.044 43.5794 147.044C44.4673 147.044 45.1332 147.71 45.1332 148.598Z" fill="#E2E2E2"/>
<path d="M13.614 148.598C13.614 149.486 12.9481 150.151 12.0602 150.151C11.1724 150.151 10.5065 149.486 10.5065 148.598C10.5065 147.71 11.1724 147.044 12.0602 147.044C12.9481 147.044 13.614 147.71 13.614 148.598Z" fill="#E2E2E2"/>
<path d="M55.6396 148.598C55.6396 149.486 54.9737 150.151 54.0859 150.151C53.198 150.151 52.5321 149.486 52.5321 148.598C52.5321 147.71 53.198 147.044 54.0859 147.044C54.9737 147.044 55.6396 147.71 55.6396 148.598Z" fill="#E2E2E2"/>
<path d="M24.1204 148.598C24.1204 149.486 23.4545 150.151 22.5666 150.151C21.6787 150.151 21.0128 149.486 21.0128 148.598C21.0128 147.71 21.6787 147.044 22.5666 147.044C23.3805 147.044 24.1204 147.71 24.1204 148.598Z" fill="#E2E2E2"/>
<path d="M66.146 148.598C66.146 149.486 65.4801 150.151 64.5922 150.151C63.7044 150.151 63.0385 149.486 63.0385 148.598C63.0385 147.71 63.7044 147.044 64.5922 147.044C65.4061 147.044 66.146 147.71 66.146 148.598Z" fill="#E2E2E2"/>
<path d="M34.6268 148.598C34.6268 149.486 33.9609 150.151 33.0731 150.151C32.1852 150.151 31.5193 149.486 31.5193 148.598C31.5193 147.71 32.1852 147.044 33.0731 147.044C33.9609 147.044 34.6268 147.71 34.6268 148.598Z" fill="#E2E2E2"/>
<path d="M76.6525 148.598C76.6525 149.486 75.9866 150.151 75.0987 150.151C74.2108 150.151 73.5449 149.486 73.5449 148.598C73.5449 147.71 74.2108 147.044 75.0987 147.044C75.9866 147.044 76.6525 147.71 76.6525 148.598Z" fill="#E2E2E2"/>
<path d="M3.10754 159.109C3.10754 159.997 2.44164 160.663 1.55377 160.663C0.665902 160.663 0 159.923 0 159.109C0 158.295 0.665902 157.555 1.55377 157.555C2.44164 157.555 3.10754 158.221 3.10754 159.109Z" fill="#E2E2E2"/>
<path d="M45.2073 159.109C45.2073 159.997 44.5414 160.663 43.6535 160.663C42.7656 160.663 42.0997 159.923 42.0997 159.109C42.0997 158.295 42.7656 157.555 43.6535 157.555C44.5414 157.555 45.2073 158.221 45.2073 159.109Z" fill="#E2E2E2"/>
<path d="M13.614 159.109C13.614 159.997 12.9481 160.663 12.0602 160.663C11.1724 160.663 10.5065 159.997 10.5065 159.109C10.5065 158.221 11.1724 157.555 12.0602 157.555C12.9481 157.481 13.614 158.221 13.614 159.109Z" fill="#E2E2E2"/>
<path d="M55.7136 159.109C55.7136 159.997 55.0477 160.663 54.1599 160.663C53.272 160.663 52.6061 159.997 52.6061 159.109C52.6061 158.221 53.272 157.555 54.1599 157.555C55.0477 157.481 55.7136 158.221 55.7136 159.109Z" fill="#E2E2E2"/>
<path d="M24.1943 159.109C24.1943 159.997 23.5284 160.663 22.6406 160.663C21.7527 160.663 21.0128 159.923 21.0128 159.109C21.0128 158.295 21.6787 157.555 22.5666 157.555C23.4545 157.481 24.1943 158.221 24.1943 159.109Z" fill="#E2E2E2"/>
<path d="M66.2941 159.109C66.2941 159.997 65.6282 160.663 64.7403 160.663C63.8524 160.663 63.1125 159.923 63.1125 159.109C63.1125 158.295 63.7784 157.555 64.6663 157.555C65.5542 157.481 66.2941 158.221 66.2941 159.109Z" fill="#E2E2E2"/>
<path d="M33.147 160.663C34.0052 160.663 34.7008 159.967 34.7008 159.109C34.7008 158.251 34.0052 157.555 33.147 157.555C32.2889 157.555 31.5933 158.251 31.5933 159.109C31.5933 159.967 32.2889 160.663 33.147 160.663Z" fill="#E2E2E2"/>
<path d="M75.2468 160.663C76.1049 160.663 76.8005 159.967 76.8005 159.109C76.8005 158.251 76.1049 157.555 75.2468 157.555C74.3886 157.555 73.693 158.251 73.693 159.109C73.693 159.967 74.3886 160.663 75.2468 160.663Z" fill="#E2E2E2"/>
<path d="M87.307 85.5538C87.307 86.4416 86.6411 87.1075 85.7532 87.1075C84.8654 87.1075 84.1995 86.4416 84.1995 85.5538C84.1995 84.6659 84.8654 84 85.7532 84C86.6411 84 87.307 84.6659 87.307 85.5538Z" fill="#E2E2E2"/>
<path d="M129.407 85.5538C129.407 86.4416 128.741 87.1075 127.853 87.1075C126.965 87.1075 126.299 86.4416 126.299 85.5538C126.299 84.6659 126.965 84 127.853 84C128.741 84 129.407 84.6659 129.407 85.5538Z" fill="#E2E2E2"/>
<path d="M97.8134 85.5538C97.8134 86.4416 97.1475 87.1075 96.2596 87.1075C95.3717 87.1075 94.7058 86.4416 94.7058 85.5538C94.7058 84.6659 95.4457 84 96.2596 84C97.1475 84 97.8134 84.6659 97.8134 85.5538Z" fill="#E2E2E2"/>
<path d="M139.913 85.5538C139.913 86.4416 139.247 87.1075 138.359 87.1075C137.471 87.1075 136.806 86.4416 136.806 85.5538C136.806 84.6659 137.545 84 138.359 84C139.247 84 139.913 84.6659 139.913 85.5538Z" fill="#E2E2E2"/>
<path d="M108.394 85.5538C108.394 86.4416 107.728 87.1075 106.84 87.1075C105.952 87.1075 105.212 86.4416 105.212 85.5538C105.212 84.6659 105.952 84 106.84 84C107.654 84 108.394 84.6659 108.394 85.5538Z" fill="#E2E2E2"/>
<path d="M150.493 85.5538C150.493 86.4416 149.828 87.1075 148.94 87.1075C148.052 87.1075 147.312 86.4416 147.312 85.5538C147.312 84.6659 148.052 84 148.94 84C149.754 84 150.493 84.6659 150.493 85.5538Z" fill="#E2E2E2"/>
<path d="M117.346 87.1075C118.205 87.1075 118.9 86.4119 118.9 85.5538C118.9 84.6956 118.205 84 117.346 84C116.488 84 115.793 84.6956 115.793 85.5538C115.793 86.4119 116.488 87.1075 117.346 87.1075Z" fill="#E2E2E2"/>
<path d="M159.446 87.1075C160.304 87.1075 161 86.4119 161 85.5538C161 84.6956 160.304 84 159.446 84C158.588 84 157.892 84.6956 157.892 85.5538C157.892 86.4119 158.588 87.1075 159.446 87.1075Z" fill="#E2E2E2"/>
<path d="M87.307 96.0601C87.307 96.948 86.6411 97.6139 85.7532 97.6139C84.8654 97.6139 84.1995 96.948 84.1995 96.0601C84.1995 95.1722 84.8654 94.5063 85.7532 94.5063C86.6411 94.5063 87.307 95.1722 87.307 96.0601Z" fill="#E2E2E2"/>
<path d="M129.333 96.0601C129.333 96.948 128.667 97.6139 127.779 97.6139C126.891 97.6139 126.225 96.948 126.225 96.0601C126.225 95.1722 126.891 94.5063 127.779 94.5063C128.667 94.5063 129.333 95.1722 129.333 96.0601Z" fill="#E2E2E2"/>
<path d="M97.8134 96.0601C97.8134 96.948 97.1475 97.6139 96.2596 97.6139C95.3717 97.6139 94.7058 96.948 94.7058 96.0601C94.7058 95.1722 95.3717 94.5063 96.2596 94.5063C97.1475 94.5063 97.8134 95.1722 97.8134 96.0601Z" fill="#E2E2E2"/>
<path d="M139.839 96.0601C139.839 96.948 139.173 97.6139 138.285 97.6139C137.397 97.6139 136.732 96.948 136.732 96.0601C136.732 95.1722 137.397 94.5063 138.285 94.5063C139.173 94.5063 139.839 95.1722 139.839 96.0601Z" fill="#E2E2E2"/>
<path d="M108.32 96.0601C108.32 96.948 107.654 97.6139 106.766 97.6139C105.878 97.6139 105.212 96.948 105.212 96.0601C105.212 95.1722 105.878 94.5063 106.766 94.5063C107.58 94.5063 108.32 95.1722 108.32 96.0601Z" fill="#E2E2E2"/>
<path d="M150.345 96.0601C150.345 96.948 149.68 97.6139 148.792 97.6139C147.904 97.6139 147.238 96.948 147.238 96.0601C147.238 95.1722 147.904 94.5063 148.792 94.5063C149.606 94.5063 150.345 95.1722 150.345 96.0601Z" fill="#E2E2E2"/>
<path d="M117.272 97.6139C118.131 97.6139 118.826 96.9182 118.826 96.0601C118.826 95.202 118.131 94.5063 117.272 94.5063C116.414 94.5063 115.719 95.202 115.719 96.0601C115.719 96.9182 116.414 97.6139 117.272 97.6139Z" fill="#E2E2E2"/>
<path d="M159.298 97.6139C160.156 97.6139 160.852 96.9182 160.852 96.0601C160.852 95.202 160.156 94.5063 159.298 94.5063C158.44 94.5063 157.744 95.202 157.744 96.0601C157.744 96.9182 158.44 97.6139 159.298 97.6139Z" fill="#E2E2E2"/>
<path d="M87.307 106.567C87.307 107.455 86.6411 108.12 85.7532 108.12C84.8654 108.12 84.1995 107.381 84.1995 106.567C84.1995 105.679 84.8654 105.013 85.7532 105.013C86.6411 105.013 87.307 105.679 87.307 106.567Z" fill="#E2E2E2"/>
<path d="M129.333 106.567C129.333 107.455 128.667 108.12 127.779 108.12C126.891 108.12 126.225 107.381 126.225 106.567C126.225 105.679 126.891 105.013 127.779 105.013C128.667 105.013 129.333 105.679 129.333 106.567Z" fill="#E2E2E2"/>
<path d="M97.8134 106.567C97.8134 107.455 97.1475 108.12 96.2596 108.12C95.3717 108.12 94.7058 107.455 94.7058 106.567C94.7058 105.679 95.3717 105.013 96.2596 105.013C97.1475 105.013 97.8134 105.679 97.8134 106.567Z" fill="#E2E2E2"/>
<path d="M139.839 106.567C139.839 107.455 139.173 108.12 138.285 108.12C137.397 108.12 136.732 107.455 136.732 106.567C136.732 105.679 137.397 105.013 138.285 105.013C139.173 105.013 139.839 105.679 139.839 106.567Z" fill="#E2E2E2"/>
<path d="M108.32 106.567C108.32 107.455 107.654 108.12 106.766 108.12C105.878 108.12 105.212 107.455 105.212 106.567C105.212 105.679 105.878 105.013 106.766 105.013C107.58 105.013 108.32 105.679 108.32 106.567Z" fill="#E2E2E2"/>
<path d="M150.345 106.567C150.345 107.455 149.68 108.12 148.792 108.12C147.904 108.12 147.238 107.455 147.238 106.567C147.238 105.679 147.904 105.013 148.792 105.013C149.606 105.013 150.345 105.679 150.345 106.567Z" fill="#E2E2E2"/>
<path d="M118.826 106.567C118.826 107.455 118.16 108.12 117.272 108.12C116.385 108.12 115.719 107.455 115.719 106.567C115.719 105.679 116.385 105.013 117.272 105.013C118.16 105.013 118.826 105.679 118.826 106.567Z" fill="#E2E2E2"/>
<path d="M160.852 106.567C160.852 107.455 160.186 108.12 159.298 108.12C158.41 108.12 157.744 107.455 157.744 106.567C157.744 105.679 158.41 105.013 159.298 105.013C160.186 105.013 160.852 105.679 160.852 106.567Z" fill="#E2E2E2"/>
<path d="M87.307 117.078C87.307 117.966 86.6411 118.632 85.7532 118.632C84.8654 118.632 84.1995 117.892 84.1995 117.078C84.1995 116.264 84.8654 115.524 85.7532 115.524C86.6411 115.524 87.307 116.19 87.307 117.078Z" fill="#E2E2E2"/>
<path d="M129.407 117.078C129.407 117.966 128.741 118.632 127.853 118.632C126.965 118.632 126.299 117.892 126.299 117.078C126.299 116.264 126.965 115.524 127.853 115.524C128.741 115.524 129.407 116.19 129.407 117.078Z" fill="#E2E2E2"/>
<path d="M97.8134 117.078C97.8134 117.966 97.1475 118.632 96.2596 118.632C95.3717 118.632 94.7058 117.966 94.7058 117.078C94.7058 116.19 95.3717 115.524 96.2596 115.524C97.1475 115.45 97.8134 116.19 97.8134 117.078Z" fill="#E2E2E2"/>
<path d="M139.913 117.078C139.913 117.966 139.247 118.632 138.359 118.632C137.471 118.632 136.806 117.966 136.806 117.078C136.806 116.19 137.471 115.524 138.359 115.524C139.247 115.45 139.913 116.19 139.913 117.078Z" fill="#E2E2E2"/>
<path d="M108.394 117.078C108.394 117.966 107.728 118.632 106.84 118.632C105.952 118.632 105.212 117.892 105.212 117.078C105.212 116.264 105.878 115.524 106.766 115.524C107.654 115.45 108.394 116.19 108.394 117.078Z" fill="#E2E2E2"/>
<path d="M150.493 117.078C150.493 117.966 149.828 118.632 148.94 118.632C148.052 118.632 147.312 117.892 147.312 117.078C147.312 116.264 147.978 115.524 148.866 115.524C149.754 115.45 150.493 116.19 150.493 117.078Z" fill="#E2E2E2"/>
<path d="M117.346 118.632C118.205 118.632 118.9 117.936 118.9 117.078C118.9 116.22 118.205 115.524 117.346 115.524C116.488 115.524 115.793 116.22 115.793 117.078C115.793 117.936 116.488 118.632 117.346 118.632Z" fill="#E2E2E2"/>
<path d="M159.446 118.632C160.304 118.632 161 117.936 161 117.078C161 116.22 160.304 115.524 159.446 115.524C158.588 115.524 157.892 116.22 157.892 117.078C157.892 117.936 158.588 118.632 159.446 118.632Z" fill="#E2E2E2"/>
<path d="M87.307 127.585C87.307 128.473 86.6411 129.139 85.7532 129.139C84.8654 129.139 84.1995 128.473 84.1995 127.585C84.1995 126.697 84.8654 126.031 85.7532 126.031C86.6411 126.031 87.307 126.697 87.307 127.585Z" fill="#E2E2E2"/>
<path d="M129.407 127.585C129.407 128.473 128.741 129.139 127.853 129.139C126.965 129.139 126.299 128.473 126.299 127.585C126.299 126.697 126.965 126.031 127.853 126.031C128.741 126.031 129.407 126.697 129.407 127.585Z" fill="#E2E2E2"/>
<path d="M97.8134 127.585C97.8134 128.473 97.1475 129.139 96.2596 129.139C95.3717 129.139 94.7058 128.473 94.7058 127.585C94.7058 126.697 95.4457 126.031 96.2596 126.031C97.1475 126.031 97.8134 126.697 97.8134 127.585Z" fill="#E2E2E2"/>
<path d="M139.913 127.585C139.913 128.473 139.247 129.139 138.359 129.139C137.471 129.139 136.806 128.473 136.806 127.585C136.806 126.697 137.545 126.031 138.359 126.031C139.247 126.031 139.913 126.697 139.913 127.585Z" fill="#E2E2E2"/>
<path d="M108.394 127.585C108.394 128.473 107.728 129.139 106.84 129.139C105.952 129.139 105.212 128.473 105.212 127.585C105.212 126.697 105.952 126.031 106.84 126.031C107.654 126.031 108.394 126.697 108.394 127.585Z" fill="#E2E2E2"/>
<path d="M150.493 127.585C150.493 128.473 149.828 129.139 148.94 129.139C148.052 129.139 147.312 128.473 147.312 127.585C147.312 126.697 148.052 126.031 148.94 126.031C149.754 126.031 150.493 126.697 150.493 127.585Z" fill="#E2E2E2"/>
<path d="M117.346 129.139C118.205 129.139 118.9 128.443 118.9 127.585C118.9 126.727 118.205 126.031 117.346 126.031C116.488 126.031 115.793 126.727 115.793 127.585C115.793 128.443 116.488 129.139 117.346 129.139Z" fill="#E2E2E2"/>
<path d="M159.446 129.139C160.304 129.139 161 128.443 161 127.585C161 126.727 160.304 126.031 159.446 126.031C158.588 126.031 157.892 126.727 157.892 127.585C157.892 128.443 158.588 129.139 159.446 129.139Z" fill="#E2E2E2"/>
<path d="M87.307 138.091C87.307 138.979 86.6411 139.645 85.7532 139.645C84.8654 139.645 84.1995 138.979 84.1995 138.091C84.1995 137.203 84.8654 136.537 85.7532 136.537C86.6411 136.537 87.307 137.203 87.307 138.091Z" fill="#E2E2E2"/>
<path d="M129.333 138.091C129.333 138.979 128.667 139.645 127.779 139.645C126.891 139.645 126.225 138.979 126.225 138.091C126.225 137.203 126.891 136.537 127.779 136.537C128.667 136.537 129.333 137.203 129.333 138.091Z" fill="#E2E2E2"/>
<path d="M97.8134 138.091C97.8134 138.979 97.1475 139.645 96.2596 139.645C95.3717 139.645 94.7058 138.979 94.7058 138.091C94.7058 137.203 95.3717 136.537 96.2596 136.537C97.1475 136.537 97.8134 137.203 97.8134 138.091Z" fill="#E2E2E2"/>
<path d="M139.839 138.091C139.839 138.979 139.173 139.645 138.285 139.645C137.397 139.645 136.732 138.979 136.732 138.091C136.732 137.203 137.397 136.537 138.285 136.537C139.173 136.537 139.839 137.203 139.839 138.091Z" fill="#E2E2E2"/>
<path d="M108.32 138.091C108.32 138.979 107.654 139.645 106.766 139.645C105.878 139.645 105.212 138.979 105.212 138.091C105.212 137.203 105.878 136.537 106.766 136.537C107.58 136.537 108.32 137.203 108.32 138.091Z" fill="#E2E2E2"/>
<path d="M150.345 138.091C150.345 138.979 149.68 139.645 148.792 139.645C147.904 139.645 147.238 138.979 147.238 138.091C147.238 137.203 147.904 136.537 148.792 136.537C149.606 136.537 150.345 137.203 150.345 138.091Z" fill="#E2E2E2"/>
<path d="M117.272 139.645C118.131 139.645 118.826 138.949 118.826 138.091C118.826 137.233 118.131 136.537 117.272 136.537C116.414 136.537 115.719 137.233 115.719 138.091C115.719 138.949 116.414 139.645 117.272 139.645Z" fill="#E2E2E2"/>
<path d="M159.298 139.645C160.156 139.645 160.852 138.949 160.852 138.091C160.852 137.233 160.156 136.537 159.298 136.537C158.44 136.537 157.744 137.233 157.744 138.091C157.744 138.949 158.44 139.645 159.298 139.645Z" fill="#E2E2E2"/>
<path d="M87.307 148.598C87.307 149.486 86.6411 150.151 85.7532 150.151C84.8654 150.151 84.1995 149.412 84.1995 148.598C84.1995 147.71 84.8654 147.044 85.7532 147.044C86.6411 147.044 87.307 147.71 87.307 148.598Z" fill="#E2E2E2"/>
<path d="M129.333 148.598C129.333 149.486 128.667 150.151 127.779 150.151C126.891 150.151 126.225 149.412 126.225 148.598C126.225 147.71 126.891 147.044 127.779 147.044C128.667 147.044 129.333 147.71 129.333 148.598Z" fill="#E2E2E2"/>
<path d="M97.8134 148.598C97.8134 149.486 97.1475 150.151 96.2596 150.151C95.3717 150.151 94.7058 149.486 94.7058 148.598C94.7058 147.71 95.3717 147.044 96.2596 147.044C97.1475 147.044 97.8134 147.71 97.8134 148.598Z" fill="#E2E2E2"/>
<path d="M139.839 148.598C139.839 149.486 139.173 150.151 138.285 150.151C137.397 150.151 136.732 149.486 136.732 148.598C136.732 147.71 137.397 147.044 138.285 147.044C139.173 147.044 139.839 147.71 139.839 148.598Z" fill="#E2E2E2"/>
<path d="M108.32 148.598C108.32 149.486 107.654 150.151 106.766 150.151C105.878 150.151 105.212 149.486 105.212 148.598C105.212 147.71 105.878 147.044 106.766 147.044C107.58 147.044 108.32 147.71 108.32 148.598Z" fill="#E2E2E2"/>
<path d="M150.345 148.598C150.345 149.486 149.68 150.151 148.792 150.151C147.904 150.151 147.238 149.486 147.238 148.598C147.238 147.71 147.904 147.044 148.792 147.044C149.606 147.044 150.345 147.71 150.345 148.598Z" fill="#E2E2E2"/>
<path d="M118.826 148.598C118.826 149.486 118.16 150.151 117.272 150.151C116.385 150.151 115.719 149.486 115.719 148.598C115.719 147.71 116.385 147.044 117.272 147.044C118.16 147.044 118.826 147.71 118.826 148.598Z" fill="#E2E2E2"/>
<path d="M160.852 148.598C160.852 149.486 160.186 150.151 159.298 150.151C158.41 150.151 157.744 149.486 157.744 148.598C157.744 147.71 158.41 147.044 159.298 147.044C160.186 147.044 160.852 147.71 160.852 148.598Z" fill="#E2E2E2"/>
<path d="M87.307 159.109C87.307 159.997 86.6411 160.663 85.7532 160.663C84.8654 160.663 84.1995 159.923 84.1995 159.109C84.1995 158.295 84.8654 157.555 85.7532 157.555C86.6411 157.555 87.307 158.221 87.307 159.109Z" fill="#E2E2E2"/>
<path d="M129.407 159.109C129.407 159.997 128.741 160.663 127.853 160.663C126.965 160.663 126.299 159.923 126.299 159.109C126.299 158.295 126.965 157.555 127.853 157.555C128.741 157.555 129.407 158.221 129.407 159.109Z" fill="#E2E2E2"/>
<path d="M97.8134 159.109C97.8134 159.997 97.1475 160.663 96.2596 160.663C95.3717 160.663 94.7058 159.997 94.7058 159.109C94.7058 158.221 95.3717 157.555 96.2596 157.555C97.1475 157.481 97.8134 158.221 97.8134 159.109Z" fill="#E2E2E2"/>
<path d="M139.913 159.109C139.913 159.997 139.247 160.663 138.359 160.663C137.471 160.663 136.806 159.997 136.806 159.109C136.806 158.221 137.471 157.555 138.359 157.555C139.247 157.481 139.913 158.221 139.913 159.109Z" fill="#E2E2E2"/>
<path d="M108.394 159.109C108.394 159.997 107.728 160.663 106.84 160.663C105.952 160.663 105.212 159.923 105.212 159.109C105.212 158.295 105.878 157.555 106.766 157.555C107.654 157.481 108.394 158.221 108.394 159.109Z" fill="#E2E2E2"/>
<path d="M150.493 159.109C150.493 159.997 149.828 160.663 148.94 160.663C148.052 160.663 147.312 159.923 147.312 159.109C147.312 158.295 147.978 157.555 148.866 157.555C149.754 157.481 150.493 158.221 150.493 159.109Z" fill="#E2E2E2"/>
<path d="M117.346 160.663C118.205 160.663 118.9 159.967 118.9 159.109C118.9 158.251 118.205 157.555 117.346 157.555C116.488 157.555 115.793 158.251 115.793 159.109C115.793 159.967 116.488 160.663 117.346 160.663Z" fill="#E2E2E2"/>
<path d="M159.446 160.663C160.304 160.663 161 159.967 161 159.109C161 158.251 160.304 157.555 159.446 157.555C158.588 157.555 157.892 158.251 157.892 159.109C157.892 159.967 158.588 160.663 159.446 160.663Z" fill="#E2E2E2"/>
</svg>
