<svg width="555" height="556" viewBox="0 0 555 556" fill="none" xmlns="http://www.w3.org/2000/svg">
<g opacity="0.3">
<path d="M278.065 552.87C430.46 552.87 554 429.33 554 276.935C554 124.54 430.46 1 278.065 1C125.67 1 2.13019 124.54 2.13019 276.935C2.13019 429.33 125.67 552.87 278.065 552.87Z" stroke="#F4901D" stroke-width="0.9014" stroke-miterlimit="10"/>
<path d="M278.065 535.5C420.867 535.5 536.63 419.736 536.63 276.935C536.63 134.133 420.867 18.37 278.065 18.37C135.264 18.37 19.5003 134.133 19.5003 276.935C19.5003 419.736 135.264 535.5 278.065 535.5Z" stroke="#F4901D" stroke-width="0.9014" stroke-miterlimit="10"/>
<path d="M278.065 518.13C411.273 518.13 519.26 410.143 519.26 276.935C519.26 143.727 411.273 35.74 278.065 35.74C144.857 35.74 36.8701 143.727 36.8701 276.935C36.8701 410.143 144.857 518.13 278.065 518.13Z" stroke="#F4901D" stroke-width="0.9014" stroke-miterlimit="10"/>
<path d="M278.065 500.76C401.68 500.76 501.89 400.55 501.89 276.935C501.89 153.32 401.68 53.11 278.065 53.11C154.45 53.11 54.2402 153.32 54.2402 276.935C54.2402 400.55 154.45 500.76 278.065 500.76Z" stroke="#F4901D" stroke-width="0.9014" stroke-miterlimit="10"/>
<path d="M278.065 483.39C392.087 483.39 484.52 390.957 484.52 276.935C484.52 162.913 392.087 70.4802 278.065 70.4802C164.043 70.4802 71.6101 162.913 71.6101 276.935C71.6101 390.957 164.043 483.39 278.065 483.39Z" stroke="#F4901D" stroke-width="0.9014" stroke-miterlimit="10"/>
<path d="M278.065 466.02C382.494 466.02 467.15 381.364 467.15 276.935C467.15 172.506 382.494 87.85 278.065 87.85C173.636 87.85 88.9802 172.506 88.9802 276.935C88.9802 381.364 173.636 466.02 278.065 466.02Z" stroke="#F4901D" stroke-width="0.9014" stroke-miterlimit="10"/>
<path d="M394.692 527.063C256.477 591.58 92.4542 531.778 27.937 393.562C-36.5802 255.347 23.4704 91.3241 161.438 26.8069" stroke="#F4901D" stroke-width="4" stroke-miterlimit="10"/>
<path d="M387.496 511.43C257.966 571.729 104.117 515.897 43.8182 386.366C-16.4805 256.835 39.3516 102.987 168.882 42.6881" stroke="#F4901D" stroke-width="4" stroke-miterlimit="10"/>
<path d="M380.052 495.549C259.454 551.877 115.78 499.519 59.4511 378.922C3.12267 258.324 55.4808 114.649 176.078 58.321" stroke="#F4901D" stroke-width="4" stroke-miterlimit="10"/>
<path d="M372.856 479.916C260.943 532.274 127.69 483.638 75.3322 371.726C22.9741 259.565 71.6101 126.312 183.523 74.2023" stroke="#F4901D" stroke-width="4" stroke-miterlimit="10"/>
<path d="M365.411 464.035C262.184 512.174 139.353 467.509 90.9653 364.281C42.8256 261.054 87.4913 138.223 190.719 89.8351" stroke="#F4901D" stroke-width="4" stroke-miterlimit="10"/>
<path d="M357.967 448.402C263.425 492.571 151.016 451.628 106.846 356.837C62.6771 262.295 103.621 149.886 198.163 105.716" stroke="#F4901D" stroke-width="4" stroke-miterlimit="10"/>
</g>
</svg>
