<?xml version="1.0" encoding="utf-8"?>
<!-- Generator: Adobe Illustrator 22.0.1, SVG Export Plug-In . SVG Version: 6.00 Build 0)  -->
<svg version="1.1" id="Layer_1" xmlns="http://www.w3.org/2000/svg" xmlns:xlink="http://www.w3.org/1999/xlink" x="0px" y="0px"
	 width="148.4px" height="148.4px" viewBox="0 0 148.4 148.4" style="enable-background:new 0 0 148.4 148.4;" xml:space="preserve"
	>
<style type="text/css">
	.st0{opacity:0.3;}
	.st1{fill:none;stroke:#F4901D;stroke-width:0.9014;stroke-miterlimit:10;}
	.st2{fill:none;stroke:#F4901D;stroke-width:2;stroke-miterlimit:10;}
</style>
<g class="st0">
	<path class="st1" d="M10.9,111.2c20.3,35.1,65.2,47.2,100.4,26.9c35.1-20.3,47.2-65.2,26.9-100.4C117.8,2.6,72.9-9.4,37.8,10.8
		C2.6,31.1-9.4,76.1,10.9,111.2z"/>
	<path class="st1" d="M14.9,108.9c19,32.9,61.1,44.2,94,25.2c32.9-19,44.2-61.1,25.2-94c-19-32.9-61.1-44.2-94-25.2
		C7.1,33.9-4.1,76,14.9,108.9z"/>
	<path class="st1" d="M18.9,106.6c17.7,30.7,57,41.2,87.7,23.5c30.7-17.7,41.2-57,23.5-87.7c-17.7-30.7-57-41.2-87.7-23.5
		C11.7,36.6,1.1,75.9,18.9,106.6z"/>
	<path class="st1" d="M22.9,104.3c16.5,28.5,52.9,38.3,81.4,21.8c28.5-16.5,38.3-52.9,21.8-81.4C109.7,16.2,73.2,6.4,44.7,22.9
		C16.2,39.3,6.4,75.8,22.9,104.3z"/>
	<path class="st1" d="M26.9,102c15.2,26.3,48.8,35.3,75.1,20.1c26.3-15.2,35.3-48.8,20.1-75.1C106.9,20.7,73.3,11.7,47,26.9
		C20.7,42,11.7,75.7,26.9,102z"/>
	<path class="st1" d="M30.9,99.6c13.9,24.1,44.7,32.3,68.8,18.4c24.1-13.9,32.3-44.7,18.4-68.8C104.2,25.2,73.4,17,49.3,30.9
		C25.2,44.8,17,75.6,30.9,99.6z"/>
	<path class="st2" d="M32.3,134.7C-0.9,111.4-9,65.6,14.3,32.3C37.6-1,83.4-8.9,116.6,14.3"/>
	<path class="st2" d="M35,130.9C3.8,109.1-3.8,66.2,18.1,35C39.9,3.9,82.8-3.7,114,18.1"/>
	<path class="st2" d="M37.7,127.1c-29-20.3-36.1-60.4-15.8-89.5c20.3-29,60.4-36.1,89.5-15.8"/>
	<path class="st2" d="M40.3,123.4c-27-18.8-33.5-56-14.7-83c18.9-27,56.1-33.5,83-14.7"/>
	<path class="st2" d="M43,119.5C18.1,102.1,12.1,67.9,29.4,43C46.8,18.1,81.1,12.1,106,29.4"/>
	<path class="st2" d="M45.6,115.7C22.8,99.8,17.3,68.4,33.3,45.6c15.9-22.8,47.3-28.3,70.1-12.4"/>
</g>
</svg>
