<svg width="170" height="33" viewBox="0 0 170 33" fill="none" xmlns="http://www.w3.org/2000/svg">
<path d="M36.9115 8.27439L39.1426 2.19231C36.5931 1.54857 33.9027 1.7493 31.4777 2.76417C29.0527 3.77904 27.0248 5.55295 25.7002 7.81802C24.3756 10.0831 23.8263 12.7163 24.1351 15.3201C24.444 17.9238 25.5943 20.3567 27.4123 22.2513L29.7252 27.8012L30.8479 24.7487L33.0933 18.6701C32.008 17.9711 31.1934 16.9248 30.7836 15.7032C30.3737 14.4816 30.3928 13.1573 30.8378 11.948C31.2828 10.7386 32.1272 9.71617 33.2322 9.04857C34.3373 8.38097 35.6373 8.10796 36.9186 8.27439" fill="#F4901D"/>
<path d="M44.9269 5.55173L42.621 0L41.4983 3.05079L39.2601 9.13287C40.3454 9.83191 41.1599 10.8782 41.5698 12.0998C41.9797 13.3214 41.9606 14.6457 41.5156 15.855C41.0706 17.0644 40.2262 18.0868 39.1211 18.7544C38.0161 19.422 36.7161 19.6951 35.4348 19.5286L33.1965 25.6107C35.746 26.2544 38.4364 26.0537 40.8614 25.0388C43.2864 24.024 45.3143 22.2501 46.6389 19.985C47.9635 17.7199 48.5128 15.0867 48.204 12.4829C47.8951 9.8792 46.7449 7.44633 44.9269 5.55173Z" fill="#F4901D"/>
<path d="M163.138 2.49205V4.63648C161.627 2.90178 159.385 1.85352 156.32 1.85352C153.857 1.85352 151.452 2.83083 149.614 4.34736L145.488 15.575C146.224 21.5365 150.825 25.937 156.32 25.937C159.385 25.937 161.627 24.8888 163.138 23.1541V25.2985H170V2.49205H163.138ZM157.693 19.4594C154.535 19.4594 152.249 17.3168 152.249 13.8953C152.249 10.4738 154.535 8.33645 157.693 8.33645C160.851 8.33645 163.138 10.4791 163.138 13.9006C163.138 17.3221 160.849 19.4648 157.693 19.4648" fill="#E31837"/>
<path d="M83.8274 25.6391L85.6066 20.8926V11.4316C85.6066 5.64749 82.1265 1.85352 76.7871 1.85352C73.492 1.85352 71.3569 3.0561 70.0563 4.90786C68.7575 2.95677 66.7149 1.85352 63.9767 1.85352C60.8667 1.85352 58.817 3.0561 57.7495 4.62938V2.14618H52.8638L50.791 7.7866V25.6391H56.1037L57.7548 21.2331V12.5934C57.7548 9.86362 59.0537 8.24244 61.3755 8.24244C63.6031 8.24244 64.7169 9.7235 64.7169 12.0382V25.6426H70.1204L71.6807 21.4779V12.5934C71.6807 9.86362 72.9796 8.24244 75.2996 8.24244C77.529 8.24244 78.6428 9.7235 78.6428 12.0382V25.6426L83.8274 25.6391Z" fill="#E31837"/>
<path d="M119.874 22.2637V2.16217H114.628L112.912 6.73481V25.648H118.608L119.874 22.2637Z" fill="#E31837"/>
<path d="M103.673 2.14264L98.2356 19.3548L97.99 14.9702L93.7697 2.14264H86.064L94.7679 25.6391H102.659L111.379 2.14264H103.673Z" fill="#E31837"/>
<path d="M12.031 19.1863C9.05618 19.1863 6.85886 17.0437 6.85886 13.8953C6.85886 10.747 9.05618 8.60433 12.031 8.60433C14.0433 8.60433 15.6909 9.56213 16.4684 11.1585L22.4625 7.69264C20.4947 4.18068 16.5591 1.85356 12.1218 1.85356C10.4416 1.84663 8.77759 2.18068 7.23107 2.83538C5.68455 3.49007 4.28787 4.45171 3.12607 5.66173L0 14.1738C0.138778 20.8341 5.2629 25.9371 12.1218 25.9371C16.6054 25.9371 20.4947 23.6117 22.4625 20.0537L16.4684 16.6322C15.7353 18.2285 14.0433 19.1863 12.031 19.1863Z" fill="#E31837"/>
<path d="M139.894 2.14264L134.459 19.3548L134.213 14.9702L129.975 2.14264H122.271L130.991 25.6391H138.882L147.6 2.14264H139.894Z" fill="#E31837"/>
<path d="M97.7836 32.8474L97.3548 31.8755H95.8549L95.4155 32.8474H94.7678L96.6111 28.9222L98.4419 32.8474H97.7836ZM96.0773 31.3646H97.1448L96.7499 30.5079C96.7267 30.4529 96.7036 30.3908 96.6805 30.3181C96.6573 30.2454 96.6307 30.1674 96.6075 30.0804C96.5862 30.162 96.5648 30.2401 96.5417 30.311C96.5186 30.382 96.4937 30.4476 96.4705 30.5079L96.0773 31.3646Z" fill="#A7A9AC"/>
<path d="M101.614 29.5927V32.8475H100.997V29.5927H99.9917V29.0712H102.614V29.5927H101.614Z" fill="#A7A9AC"/>
<path d="M103.086 32.8475V29.0712H105.199V29.5927H103.701V30.5381H105.199V31.0773H103.701V32.2976H105.199V32.8475H103.086Z" fill="#A7A9AC"/>
<path d="M108.945 29.99C108.781 29.8481 108.595 29.7353 108.393 29.6565C108.198 29.5824 107.99 29.5451 107.781 29.5466C107.594 29.5391 107.408 29.5706 107.234 29.639C107.06 29.7074 106.902 29.8112 106.77 29.9439C106.52 30.2235 106.381 30.5841 106.377 30.9587C106.374 31.3332 106.507 31.6962 106.753 31.9801C106.875 32.1101 107.023 32.2128 107.187 32.2813C107.352 32.3498 107.53 32.3826 107.708 32.3774C107.927 32.3788 108.145 32.3385 108.349 32.2586C108.562 32.1747 108.76 32.0547 108.932 31.9038V32.5974C108.77 32.715 108.59 32.8049 108.398 32.8634C108.193 32.9239 107.979 32.9538 107.765 32.9521C107.491 32.9547 107.219 32.9065 106.963 32.8102C106.721 32.7154 106.501 32.572 106.318 32.3889C106.134 32.2058 105.99 31.9869 105.895 31.746C105.698 31.2436 105.698 30.6857 105.895 30.1833C105.994 29.9429 106.14 29.7247 106.326 29.5418C106.511 29.359 106.731 29.2152 106.973 29.1191C107.224 29.0217 107.492 28.9729 107.761 28.9754C107.978 28.9741 108.193 29.007 108.398 29.073C108.608 29.1409 108.806 29.2395 108.986 29.3657L108.945 29.99Z" fill="#A7A9AC"/>
<path d="M109.708 32.8475V29.0712H110.324V30.4636H112.186V29.0712H112.802V32.8475H112.186V31.0135H110.324V32.8475H109.708Z" fill="#A7A9AC"/>
<path d="M118.358 30.9833C118.358 30.9531 118.341 30.8733 118.326 30.7403C118.312 30.6073 118.3 30.5381 118.289 30.4671C118.273 30.5543 118.251 30.6402 118.223 30.7243C118.193 30.8141 118.158 30.9018 118.116 30.9868L117.125 33L116.134 30.946C116.093 30.8621 116.057 30.7805 116.028 30.7013C115.997 30.6232 115.971 30.5434 115.947 30.4671C115.946 30.5502 115.939 30.6331 115.928 30.7155C115.917 30.8068 115.9 30.8974 115.878 30.9868L115.471 32.8475H114.903L115.793 28.9116L116.91 31.2955C116.928 31.3327 116.955 31.3948 116.99 31.4835C117.026 31.5722 117.068 31.6786 117.118 31.8081C117.169 31.667 117.229 31.529 117.296 31.3948L117.342 31.2919L118.435 28.9116L119.349 32.8475H118.778L118.358 30.9833Z" fill="#A7A9AC"/>
<path d="M122.661 32.8474L122.232 31.8755H120.732L120.291 32.8474H119.645L121.479 28.9222L123.31 32.8474H122.661ZM120.958 31.3646H122.015L121.627 30.5079C121.604 30.4529 121.581 30.3908 121.556 30.3181C121.531 30.2454 121.508 30.1674 121.484 30.0804C121.463 30.162 121.442 30.2401 121.419 30.311C121.396 30.382 121.371 30.4476 121.347 30.5079L120.958 31.3646Z" fill="#A7A9AC"/>
<path d="M123.667 32.8475V29.0712H124.283V30.4636H126.146V29.0712H126.762V32.8475H126.146V31.0135H124.283V32.8475H123.667Z" fill="#A7A9AC"/>
<path d="M128.045 29.0712H127.429V32.8475H128.045V29.0712Z" fill="#A7A9AC"/>
<path d="M128.717 32.8474V28.9222L131.124 31.228C131.19 31.2937 131.256 31.3628 131.324 31.4373C131.391 31.5118 131.461 31.5952 131.535 31.6874V29.0712H132.105V32.9911L129.649 30.6409C129.584 30.5771 129.519 30.5115 129.459 30.4405C129.398 30.3696 129.34 30.2951 129.281 30.2188V32.8439L128.717 32.8474Z" fill="#A7A9AC"/>
<path d="M132.761 32.8475V29.0712H133.592C133.974 29.0578 134.355 29.0852 134.731 29.1528C134.94 29.2027 135.137 29.295 135.309 29.4242C135.528 29.5912 135.7 29.8126 135.807 30.0663C135.928 30.3494 135.988 30.6544 135.985 30.962C135.988 31.2667 135.928 31.5687 135.807 31.8488C135.699 32.1021 135.528 32.3233 135.309 32.4909C135.141 32.618 134.949 32.7102 134.745 32.7623C134.42 32.8275 134.089 32.8549 133.758 32.8439H132.761V32.8475ZM133.377 32.2923H133.895C134.11 32.2997 134.325 32.2807 134.535 32.2355C134.672 32.2006 134.799 32.1358 134.907 32.0457C135.05 31.922 135.16 31.7656 135.229 31.5899C135.371 31.1797 135.371 30.7337 135.229 30.3234C135.16 30.1478 135.05 29.9913 134.907 29.8676C134.795 29.7767 134.663 29.7119 134.523 29.6778C134.292 29.6328 134.057 29.6138 133.822 29.6211H133.377V32.2923Z" fill="#A7A9AC"/>
<path d="M137.049 31.1571V32.8474H136.465V29.0712H137.325C137.521 29.0657 137.717 29.0824 137.91 29.1209C138.039 29.1487 138.16 29.2037 138.266 29.2823C138.385 29.376 138.479 29.4979 138.538 29.637C138.603 29.7863 138.636 29.9477 138.634 30.1106C138.649 30.3658 138.57 30.6177 138.414 30.8201C138.245 31.0018 138.012 31.1117 137.764 31.1269L139.068 32.8457H138.373L137.113 31.1553L137.049 31.1571ZM137.086 30.68H137.198C137.421 30.701 137.645 30.6618 137.848 30.5664C137.905 30.5179 137.95 30.4559 137.978 30.386C138.006 30.3161 138.016 30.2404 138.008 30.1656C138.016 30.0834 138.004 30.0004 137.973 29.9238C137.942 29.8472 137.893 29.7792 137.83 29.7257C137.635 29.6218 137.413 29.5774 137.193 29.598H137.081L137.086 30.68Z" fill="#A7A9AC"/>
<path d="M142.258 32.8474L141.828 31.8755H140.328L139.889 32.8474H139.241L141.075 28.9222L142.908 32.8474H142.258ZM140.558 31.3646H141.613L141.223 30.5079C141.202 30.4529 141.177 30.3908 141.154 30.3181C141.13 30.2454 141.106 30.1674 141.081 30.0804C141.061 30.162 141.038 30.2401 141.015 30.311C140.992 30.382 140.969 30.4476 140.944 30.5079L140.558 31.3646Z" fill="#A7A9AC"/>
<path d="M147.904 29.99C147.74 29.848 147.553 29.7352 147.351 29.6565C147.155 29.5824 146.948 29.5451 146.739 29.5466C146.552 29.5393 146.365 29.5709 146.191 29.6393C146.018 29.7077 145.86 29.8114 145.728 29.9439C145.481 30.2258 145.345 30.5875 145.345 30.962C145.345 31.3365 145.481 31.6982 145.728 31.9801C145.85 32.1101 145.998 32.2128 146.163 32.2813C146.328 32.3498 146.505 32.3826 146.684 32.3774C146.903 32.3787 147.12 32.3383 147.324 32.2586C147.537 32.1743 147.735 32.0543 147.908 31.9038V32.5974C147.746 32.7146 147.565 32.8045 147.374 32.8634C147.168 32.9237 146.954 32.9536 146.739 32.9521C146.465 32.9545 146.193 32.9064 145.936 32.8102C145.694 32.7168 145.473 32.5742 145.289 32.3916C145.103 32.2109 144.959 31.9934 144.863 31.7531C144.665 31.251 144.665 30.6925 144.863 30.1904C144.96 29.9491 145.107 29.7309 145.294 29.5501C145.478 29.3667 145.698 29.223 145.94 29.128C146.192 29.0307 146.46 28.982 146.73 28.9843C146.945 28.983 147.16 29.0159 147.365 29.0819C147.574 29.149 147.772 29.2477 147.952 29.3745L147.904 29.99Z" fill="#A7A9AC"/>
<path d="M152.338 30.9673C152.339 31.2285 152.287 31.4871 152.187 31.7283C152.084 31.9686 151.934 32.1858 151.745 32.3668C151.555 32.5515 151.331 32.6979 151.085 32.7978C150.588 33.0001 150.031 33.0001 149.534 32.7978C149.289 32.6999 149.066 32.554 148.879 32.3686C148.69 32.1888 148.54 31.972 148.44 31.7318C148.338 31.4905 148.286 31.231 148.288 30.9691C148.286 30.707 148.338 30.4473 148.439 30.2055C148.541 29.9638 148.69 29.745 148.879 29.5626C149.067 29.3782 149.291 29.2329 149.536 29.1351C149.784 29.0368 150.048 28.9868 150.315 28.9879C150.58 28.9868 150.843 29.0368 151.089 29.1351C151.333 29.2338 151.556 29.379 151.745 29.5626C151.934 29.7474 152.084 29.9674 152.187 30.21C152.287 30.4505 152.338 30.7086 152.338 30.9691V30.9673ZM151.696 30.9691C151.698 30.5944 151.552 30.2339 151.29 29.9652C151.164 29.8342 151.013 29.7301 150.845 29.6593C150.677 29.5886 150.497 29.5526 150.315 29.5537C150.132 29.5528 149.95 29.5884 149.781 29.6583C149.612 29.7294 149.46 29.8338 149.333 29.9652C149.203 30.0961 149.101 30.2517 149.032 30.4228C148.963 30.5965 148.928 30.7821 148.929 30.9691C148.926 31.3422 149.071 31.7013 149.333 31.9677C149.524 32.1647 149.77 32.2999 150.039 32.3559C150.308 32.4119 150.587 32.386 150.842 32.2817C151.009 32.2091 151.162 32.1049 151.29 31.9748C151.551 31.7074 151.696 31.3491 151.696 30.9762" fill="#A7A9AC"/>
<path d="M155.921 30.9833C155.921 30.9531 155.903 30.8733 155.887 30.7403C155.871 30.6073 155.861 30.5381 155.852 30.4671C155.835 30.5543 155.813 30.6402 155.784 30.7243C155.754 30.8141 155.719 30.9018 155.677 30.9868L154.686 33L153.695 30.946C153.654 30.8621 153.618 30.7805 153.589 30.7013C153.558 30.6232 153.532 30.5434 153.51 30.4671C153.51 30.5452 153.51 30.6285 153.491 30.7155C153.471 30.8024 153.462 30.8928 153.439 30.9868L153.034 32.8475H152.468L153.368 28.9116L154.485 31.2955C154.503 31.3327 154.528 31.3948 154.564 31.4835C154.599 31.5722 154.642 31.6786 154.692 31.8081C154.729 31.6999 154.786 31.5615 154.87 31.3948C154.891 31.3504 154.907 31.3167 154.916 31.2919L155.996 28.9116L156.912 32.8475H156.339L155.921 30.9833Z" fill="#A7A9AC"/>
<path d="M157.98 31.1535V32.8474H157.403V29.0712H158.334C158.538 29.0659 158.742 29.0808 158.944 29.1155C159.066 29.1429 159.181 29.1935 159.284 29.2645C159.406 29.3568 159.502 29.479 159.563 29.6193C159.632 29.7739 159.666 29.9415 159.664 30.1106C159.666 30.2809 159.632 30.4496 159.563 30.6055C159.503 30.7465 159.407 30.8689 159.284 30.9602C159.181 31.0314 159.066 31.0814 158.944 31.1074C158.742 31.1422 158.538 31.157 158.334 31.1518H157.978L157.98 31.1535ZM158.019 30.6498H158.172C158.405 30.6705 158.64 30.6321 158.855 30.5381C158.916 30.4937 158.965 30.4343 158.996 30.3656C159.027 30.2968 159.04 30.2212 159.033 30.1461C159.042 30.0662 159.03 29.9854 158.999 29.9113C158.968 29.8371 158.918 29.7721 158.855 29.7221C158.647 29.6204 158.415 29.5774 158.184 29.598H158.026L158.019 30.6498Z" fill="#A7A9AC"/>
<path d="M162.221 32.8474L161.793 31.8755H160.291L159.851 32.8474H159.206L161.04 28.9222L162.871 32.8474H162.221ZM160.519 31.3646H161.575L161.186 30.5079C161.164 30.4529 161.141 30.3908 161.116 30.3181C161.092 30.2454 161.068 30.1674 161.043 30.0804C161.024 30.162 161.001 30.2401 160.978 30.311C160.955 30.382 160.931 30.4476 160.906 30.5079L160.519 31.3646Z" fill="#A7A9AC"/>
<path d="M163.122 32.8474V28.9222L165.527 31.228C165.593 31.2937 165.661 31.3628 165.726 31.4373C165.792 31.5118 165.865 31.5952 165.94 31.6874V29.0712H166.507V32.9911L164.052 30.6409C163.988 30.5771 163.924 30.5115 163.864 30.4405C163.803 30.3696 163.744 30.2951 163.686 30.2188V32.8439L163.122 32.8474Z" fill="#A7A9AC"/>
<path d="M168.086 32.8475V31.1199L166.812 29.0712H167.458L168.253 30.3536C168.271 30.3856 168.296 30.4281 168.322 30.4831C168.349 30.5381 168.381 30.5931 168.409 30.6605C168.434 30.6002 168.459 30.5434 168.486 30.4831C168.511 30.4326 168.539 30.3835 168.57 30.3359L169.381 29.0712H169.997L168.694 31.1199V32.8475H168.086Z" fill="#A7A9AC"/>
</svg>
