<svg width="65" height="65" viewBox="0 0 65 65" fill="none" xmlns="http://www.w3.org/2000/svg">
<circle cx="32.5" cy="32.5" r="31.75" stroke="url(#paint0_linear_539_321)" stroke-width="1.5"/>
<mask id="path-2-inside-1_539_321" fill="white">
<path fill-rule="evenodd" clip-rule="evenodd" d="M39.6977 24.355C40.7557 24.1302 41.4255 23.9879 40.9482 23.1819C44.8219 25.4708 47.4266 29.6772 47.4266 34.5012C47.4266 36.6005 46.9347 38.585 46.0598 40.3458L47.3768 45.6115C47.6786 46.8155 46.5875 47.9066 45.3834 47.6048L40.1187 46.2881C38.3574 47.1636 36.372 47.6559 34.2718 47.6559C29.4479 47.6559 25.2414 45.0513 22.9525 41.1776C23.9999 35.9999 27.0593 35.9999 29.4999 35.9999C35.3716 35.9999 35.3446 35.5195 35.1184 31.4991C35.0647 30.5455 34.9999 29.3927 34.9999 27.9999C35.8823 25.1656 38.1862 24.6761 39.6977 24.355Z"/>
</mask>
<path d="M40.9482 23.1819L41.7113 21.8905L39.6575 23.9461L40.9482 23.1819ZM39.6977 24.355L40.0095 25.8223H40.0095L39.6977 24.355ZM46.0598 40.3458L44.7165 39.6784L44.4705 40.1735L44.6047 40.7098L46.0598 40.3458ZM47.3768 45.6115L45.9216 45.9754L45.9218 45.9761L47.3768 45.6115ZM45.3834 47.6048L45.7481 46.1498L45.7474 46.1496L45.3834 47.6048ZM40.1187 46.2881L40.4827 44.8329L39.9462 44.6988L39.4511 44.9449L40.1187 46.2881ZM22.9525 41.1776L21.4823 40.8802L21.3681 41.4448L21.6611 41.9407L22.9525 41.1776ZM35.1184 31.4991L36.616 31.4149V31.4149L35.1184 31.4991ZM34.9999 27.9999L33.5677 27.5541L33.4999 27.7719V27.9999H34.9999ZM39.6575 23.9461C39.7123 24.0387 39.5783 23.8661 39.6095 23.5336C39.6269 23.3481 39.6917 23.1677 39.7944 23.0142C39.8905 22.8705 39.9944 22.7877 40.051 22.7489C40.1391 22.6886 40.1645 22.7 39.9995 22.7465C39.8525 22.788 39.6648 22.8285 39.386 22.8878L40.0095 25.8223C40.2596 25.7691 40.5524 25.7076 40.8136 25.634C41.0568 25.5654 41.4183 25.4487 41.7464 25.2239C42.1226 24.9662 42.5314 24.5063 42.5964 23.8137C42.652 23.2208 42.4228 22.7281 42.2389 22.4177L39.6575 23.9461ZM48.9266 34.5012C48.9266 29.1221 46.0201 24.4365 41.7113 21.8905L40.1852 24.4733C43.6237 26.5051 45.9266 30.2323 45.9266 34.5012H48.9266ZM47.4032 41.0133C48.3787 39.0497 48.9266 36.8372 48.9266 34.5012H45.9266C45.9266 36.3638 45.4906 38.1204 44.7165 39.6784L47.4032 41.0133ZM44.6047 40.7098L45.9216 45.9754L48.8319 45.2475L47.515 39.9819L44.6047 40.7098ZM45.9218 45.9761C45.931 46.0128 45.9275 46.0344 45.9231 46.0492C45.9176 46.0681 45.9053 46.091 45.8841 46.1121C45.863 46.1333 45.8401 46.1456 45.8212 46.1512C45.8064 46.1555 45.7848 46.159 45.7481 46.1498L45.0188 49.0598C47.322 49.6371 49.409 47.55 48.8318 45.2468L45.9218 45.9761ZM45.7474 46.1496L40.4827 44.8329L39.7548 47.7433L45.0195 49.06L45.7474 46.1496ZM34.2718 49.1559C36.6089 49.1559 38.8223 48.6076 40.7864 47.6313L39.4511 44.9449C37.8925 45.7196 36.1352 46.1559 34.2718 46.1559V49.1559ZM21.6611 41.9407C24.2072 46.2495 28.8928 49.1559 34.2718 49.1559V46.1559C30.003 46.1559 26.2757 43.8531 24.2439 40.4145L21.6611 41.9407ZM29.4999 34.4999C28.3449 34.4999 26.5797 34.4711 24.9921 35.3267C23.2854 36.2466 22.0651 37.9992 21.4823 40.8802L24.4227 41.475C24.8873 39.1783 25.7204 38.3422 26.4154 37.9676C27.2295 37.5288 28.2142 37.4999 29.4999 37.4999V34.4999ZM33.6208 31.5834C33.6799 32.6345 33.7126 33.2862 33.6682 33.758C33.6274 34.1918 33.5432 34.186 33.5981 34.1372C33.603 34.1328 33.5649 34.1699 33.4202 34.2208C33.2701 34.2736 33.0401 34.3289 32.691 34.3749C31.98 34.4684 30.9705 34.4999 29.4999 34.4999V37.4999C30.9651 37.4999 32.1541 37.4714 33.0824 37.3492C33.983 37.2307 34.8984 36.9966 35.5937 36.3772C36.3474 35.7056 36.581 34.8259 36.6551 34.0389C36.7255 33.2899 36.67 32.3739 36.616 31.4149L33.6208 31.5834ZM33.4999 27.9999C33.4999 29.4389 33.5671 30.6288 33.6208 31.5834L36.616 31.4149C36.5624 30.4622 36.4999 29.3466 36.4999 27.9999H33.4999ZM39.386 22.8878C38.6525 23.0436 37.4655 23.2848 36.3502 23.9434C35.1746 24.6375 34.1262 25.7602 33.5677 27.5541L36.4321 28.4458C36.756 27.4054 37.3007 26.8661 37.8756 26.5267C38.5107 26.1516 39.2314 25.9875 40.0095 25.8223L39.386 22.8878Z" fill="url(#paint1_linear_539_321)" mask="url(#path-2-inside-1_539_321)"/>
<path d="M18.5743 35.864L18.6413 35.5963L18.5187 35.349C17.696 33.689 17.224 31.8308 17.224 29.8584C17.224 23.0081 22.7785 17.4536 29.6288 17.4536C36.4791 17.4536 42.0335 23.0081 42.0335 29.8584C42.0335 36.7087 36.4791 42.2631 29.6288 42.2631C27.6563 42.2631 25.7982 41.7911 24.1381 40.9684L23.8909 40.8459L23.6232 40.9128L18.3365 42.2345L18.3361 42.2346C17.6816 42.3986 17.0885 41.8055 17.2526 41.1511L17.2527 41.1506L18.5743 35.864Z" fill="white" stroke="url(#paint2_linear_539_321)" stroke-width="1.5"/>
<defs>
<linearGradient id="paint0_linear_539_321" x1="6.93333" y1="15.1667" x2="65" y2="30.3333" gradientUnits="userSpaceOnUse">
<stop stop-color="#C61530"/>
<stop offset="1" stop-color="#F4901D"/>
</linearGradient>
<linearGradient id="paint1_linear_539_321" x1="25.5632" y1="28.8925" x2="47.4275" y2="34.6035" gradientUnits="userSpaceOnUse">
<stop stop-color="#C61530"/>
<stop offset="1" stop-color="#F4901D"/>
</linearGradient>
<linearGradient id="paint2_linear_539_321" x1="19.2803" y1="22.8425" x2="42.7835" y2="28.9814" gradientUnits="userSpaceOnUse">
<stop stop-color="#C61530"/>
<stop offset="1" stop-color="#F4901D"/>
</linearGradient>
</defs>
</svg>
