<svg width="75" height="75" viewBox="0 0 75 75" fill="none" xmlns="http://www.w3.org/2000/svg">
<circle cx="37.5" cy="37.5" r="36.75" stroke="url(#paint0_linear_92_1211)" stroke-width="1.5"/>
<path fill-rule="evenodd" clip-rule="evenodd" d="M59.4092 52.3601L60.8099 55.6917C60.94 55.9818 61 56.302 61 56.6221C61 57.9528 59.9295 59.0233 58.5988 59.0233H15.3979C15.0777 59.0233 14.7576 58.9533 14.4674 58.8332C13.2468 58.323 12.6766 56.9123 13.1868 55.6917L14.5875 52.3601V27.0078C14.5875 23.9163 17.0987 21.405 20.1902 21.405H26.5933V16.6027C26.5933 13.5112 29.1045 11 32.196 11H49.9646L48.1238 21.405H53.8065C56.898 21.405 59.4092 23.9163 59.4092 27.0078V52.3601ZM57.8085 27.0078C57.8085 24.7967 56.0176 23.0058 53.8065 23.0058H47.8436L47.5635 24.6066H47.6835C47.8936 24.6066 48.1037 24.6266 48.3139 24.6666C50.0447 25.0168 51.1752 26.7076 50.8251 28.4385L50.775 28.6686C50.615 29.4389 50.1848 30.1293 49.5545 30.5995L47.2033 32.3604C46.7031 34.6215 45.3424 36.5924 43.4015 37.853V40.7144L51.9656 41.855C53.9366 42.1251 55.6174 43.4057 56.3878 45.2366L57.7884 48.5582V39.2837L56.858 39.5939C54.867 40.2542 52.716 40.2542 50.725 39.5939L48.7341 38.9335L49.2443 37.4128L51.2353 38.0731C52.8961 38.6234 54.6969 38.6234 56.3577 38.0731L57.7984 37.5929V34.5214L56.868 34.8316C54.877 35.4919 52.726 35.4919 50.735 34.8316L48.7441 34.1712L49.2543 32.6505L51.2453 33.3108C52.9061 33.8611 54.7069 33.8611 56.3678 33.3108L57.8085 32.8306V27.0078ZM32.196 40.8845L36.9984 42.9455L41.8007 40.8845V38.6734L38.5391 40.0341C37.5486 40.4443 36.4481 40.4443 35.4576 40.0341L32.196 38.6734V40.8845ZM38.5991 45.4167V45.3166L37.0084 44.6763H36.9984H36.9884L35.3976 45.3166V45.4167C35.3976 46.2971 36.1179 47.0175 36.9984 47.0175C37.8788 47.0175 38.5991 46.2971 38.5991 45.4167ZM29.7248 45.8569L34.9073 43.7859L31.2856 42.2351L28.6343 42.5853L29.7248 45.8569ZM45.3624 42.5853L42.7111 42.2351L39.0894 43.7859L44.2719 45.8569L45.3624 42.5853ZM47.4034 26.2074V30.2093L48.584 29.3189C48.9041 29.0788 49.1142 28.7386 49.1943 28.3484L49.2443 28.1183C49.2643 28.0183 49.2743 27.9182 49.2743 27.8082C49.2743 26.9277 48.554 26.2074 47.6735 26.2074H47.4034ZM32.196 12.6008C29.985 12.6008 28.1941 14.3916 28.1941 16.6027V18.9839C28.3442 18.8338 28.5042 18.6837 28.6743 18.5537C30.2751 17.273 32.4462 16.9729 34.3271 17.7833L35.4476 18.2635C36.4481 18.6837 37.5686 18.6837 38.5591 18.2635L39.6797 17.7833C42.2909 16.6728 45.3324 17.7033 46.7131 20.1945L48.0537 12.6008H32.196ZM32.136 18.9439C29.9549 18.9439 28.1941 20.7047 28.1941 22.8858V30.4794C28.1841 33.3909 29.9349 36.0221 32.6262 37.1327L36.0779 38.5734C36.6682 38.8135 37.3385 38.8135 37.9288 38.5734L41.3805 37.1327C44.0718 36.0121 45.8226 33.3909 45.8126 30.4794V22.8858C45.8126 22.3555 45.7026 21.8252 45.4925 21.335C44.6321 19.334 42.3109 18.4036 40.31 19.264L39.1894 19.7442C37.7887 20.3345 36.218 20.3345 34.8173 19.7442L33.6968 19.264C33.2065 19.0539 32.6763 18.9439 32.136 18.9439ZM16.1983 39.2871L17.1187 39.5939C19.1097 40.2542 21.2607 40.2542 23.2517 39.5939L25.2427 38.9335L24.7324 37.4128L22.7415 38.0731C21.0806 38.6234 19.2798 38.6234 17.619 38.0731L16.1883 37.5929V34.5214L17.1187 34.8316C19.1097 35.4919 21.2607 35.4919 23.2517 34.8316L25.2427 34.1712L24.7324 32.6505L22.7415 33.3108C21.0806 33.8611 19.2798 33.8611 17.619 33.3108L16.1883 32.8306V27.0078C16.1883 24.7967 17.9791 23.0058 20.1902 23.0058H26.5933V24.6066H26.3232C24.5523 24.6066 23.1216 26.0373 23.1216 27.8082C23.1216 28.0183 23.1416 28.2284 23.1817 28.4385L23.2317 28.6686C23.3818 29.4389 23.822 30.1293 24.4523 30.5995L26.8034 32.3604C27.2937 34.6215 28.6643 36.5924 30.6053 37.853V40.7144L22.0211 41.855C20.0501 42.1251 18.3693 43.4057 17.599 45.2366L16.1983 48.5582V39.2871ZM26.5933 30.2093V26.2074H26.3132C26.2131 26.2074 26.1031 26.2174 26.003 26.2374C25.1326 26.4075 24.5723 27.2479 24.7424 28.1183L24.7924 28.3484C24.8725 28.7386 25.0826 29.0788 25.4027 29.3189L26.5933 30.2093ZM14.5975 56.6221C14.5975 57.0623 14.9577 57.4225 15.3979 57.4225H28.054L24.0421 52.7402L24.7824 51.2595L21.5809 48.8584L24.4323 43.1556L22.2212 43.4457C20.8105 43.6358 19.6099 44.5463 19.0597 45.8569L14.6575 56.312C14.6175 56.412 14.5975 56.5121 14.5975 56.6221ZM25.953 52.5001L30.165 57.4225H31.8859L27.0235 42.8054L26.3532 42.8955L23.6119 48.3781L26.8134 50.7793L25.953 52.5001ZM33.8368 45.9469L30.2251 47.3876L32.8163 55.1914L34.4871 47.4177C34.147 46.9875 33.9269 46.4872 33.8368 45.9469ZM35.9178 48.4282L33.9869 57.4225H40.0198L38.0889 48.4282C37.3886 48.6783 36.6182 48.6783 35.9178 48.4282ZM40.1499 45.9369C40.0699 46.4772 39.8397 46.9774 39.4996 47.4077L41.1604 55.1814L43.7616 47.3776L40.1499 45.9369ZM46.9832 42.8054L42.1108 57.4225H43.8317L48.0537 52.5001L47.1933 50.7793L50.3949 48.3781L47.6535 42.8955L46.9832 42.8054ZM58.5988 57.4225C58.869 57.4225 59.1191 57.2824 59.2692 57.0623C59.4192 56.8422 59.4392 56.5621 59.3392 56.312L54.9371 45.8569C54.3768 44.5563 53.1762 43.6358 51.7755 43.4457L49.5645 43.1556L52.4158 48.8584L49.2143 51.2595L49.9546 52.7402L45.9427 57.4225H58.5988ZM32.8564 23.316L35.2475 23.7962L35.5577 22.2254L33.1665 21.7452C31.9459 21.5051 30.6753 21.6752 29.5648 22.2254L29.4347 22.2855L30.1551 23.7162L30.2851 23.6561C31.0755 23.266 31.9859 23.1359 32.8564 23.316ZM34.5072 31.0497C34.7873 31.64 35.2976 32.0902 35.9179 32.2903L36.118 32.3604C36.7183 32.5605 37.3786 32.5205 37.9488 32.2303L38.9593 31.7301L38.239 30.2994L37.2285 30.7996C37.0384 30.8997 36.8183 30.9097 36.6182 30.8396L36.4181 30.7696C35.9979 30.6295 35.7678 30.1793 35.9079 29.7591C35.9079 29.7541 35.9104 29.7491 35.9129 29.7441C35.9154 29.7391 35.9179 29.7341 35.9179 29.7291L37.7387 24.8767L36.238 24.3165L34.4171 29.1688C34.197 29.7791 34.227 30.4594 34.5072 31.0497ZM32.1961 24.6066H34.5972V26.2074H32.1961V24.6066ZM38.7892 34.0212C37.6587 34.5814 36.3381 34.5814 35.2075 34.0212L34.157 33.4909L33.4367 34.9216L34.4872 35.4519C36.0679 36.2322 37.9188 36.2322 39.4996 35.4519L40.5501 34.9216L39.8298 33.4909L38.7892 34.0212ZM43.7116 23.6561C42.9212 23.266 42.0108 23.1459 41.1404 23.316L38.7492 23.7962L38.4391 22.2254L40.8302 21.7452C42.0508 21.5051 43.3214 21.6752 44.432 22.2254L44.562 22.2855L43.8417 23.7162L43.7116 23.6561ZM41.8007 24.6066H39.3995V26.2074H41.8007V24.6066Z" fill="url(#paint1_linear_92_1211)"/>
<defs>
<linearGradient id="paint0_linear_92_1211" x1="8" y1="17.5" x2="75" y2="35" gradientUnits="userSpaceOnUse">
<stop stop-color="#C61530"/>
<stop offset="1" stop-color="#F4901D"/>
</linearGradient>
<linearGradient id="paint1_linear_92_1211" x1="15" y1="16.6098" x2="52.2932" y2="64.5161" gradientUnits="userSpaceOnUse">
<stop stop-color="#C61530"/>
<stop offset="1" stop-color="#F4901D"/>
</linearGradient>
</defs>
</svg>