<?xml version="1.0" encoding="utf-8"?>
<!-- Generator: Adobe Illustrator 22.0.1, SVG Export Plug-In . SVG Version: 6.00 Build 0)  -->
<svg version="1.1" id="Layer_1" xmlns="http://www.w3.org/2000/svg" xmlns:xlink="http://www.w3.org/1999/xlink" x="0px" y="0px"
	 width="75px" height="75px" viewBox="0 0 75 75" style="enable-background:new 0 0 75 75;" xml:space="preserve">
<style type="text/css">
	.st0{fill:none;stroke:#FFFFFF;stroke-width:1.5;}
	.st1{fill:none;stroke:#FFFFFF;stroke-miterlimit:10;}
	.st2{fill:none;stroke:#FFFFFF;}
</style>
<circle class="st0" cx="37.5" cy="37.5" r="36.8"/>
<path class="st1" d="M15.4,37.3c0.2,0.2,0.6,0.4,0.9,0.4c0,0,0,0,0,0c0.2,0,0.4-0.1,0.6-0.2l4.3,4.2L19.9,43c-1.4,1.4-1.4,3.6,0,4.9
	l0.4,0.4c0.6,0.6,1.3,0.9,2.1,1c0.1,0.8,0.4,1.5,1,2.1l0.4,0.4c0.6,0.6,1.3,0.9,2.1,1c0.1,0.8,0.4,1.5,1,2.1l0.4,0.4
	c0.6,0.6,1.3,0.9,2.1,1c0.1,0.8,0.4,1.5,1,2.1l0.4,0.4c0.7,0.7,1.5,1,2.5,1c0.9,0,1.8-0.4,2.5-1l1.4-1.4l2.2,2.2
	c0.7,0.7,1.5,1,2.5,1c0,0,0,0,0,0c0.9,0,1.8-0.4,2.5-1l0.4-0.4c0.6-0.6,0.9-1.3,1-2.1c0.8-0.1,1.5-0.4,2.1-1l0.4-0.4
	c0.6-0.6,0.9-1.3,1-2.1c0.8-0.1,1.5-0.4,2.1-1l0.4-0.4c0.6-0.6,0.9-1.3,1-2.1c0.8-0.1,1.5-0.4,2.1-1l0.4-0.4c0.7-0.7,1-1.5,1-2.5
	c0-0.9-0.4-1.8-1-2.5l-1.5-1.5l5.2-5.3l0,0c0.3,0.3,0.6,0.4,0.9,0.4c0.3,0,0.7-0.1,0.9-0.4l5-5c0.2-0.2,0.4-0.6,0.4-0.9
	c0-0.3-0.1-0.7-0.4-0.9L49.9,14.7c-0.5-0.5-1.3-0.5-1.8,0l-5,5c-0.2,0.2-0.4,0.6-0.4,0.9c0,0.3,0.1,0.7,0.4,0.9l1.1,1.1L43.9,23
	c-0.6,0.6-1.2,0.9-1.8,0.9c-0.9,0-1.6-0.8-1.6-0.8c0,0,0,0-0.1-0.1l-0.8-0.8c-0.8-0.8-1.9-1.3-3-1.3c0,0,0,0,0,0
	c-1.2,0-2.2,0.5-3,1.3l-0.2,0.2l-0.8-0.8c0.4-0.5,0.4-1.3-0.1-1.8l-5-5c-0.2-0.2-0.6-0.4-0.9-0.4c-0.3,0-0.7,0.1-0.9,0.4L10.4,30.5
	c-0.5,0.5-0.5,1.3,0,1.8L15.4,37.3z M21.8,46.1c-0.3-0.3-0.3-0.9,0-1.3l5.7-5.8c0.2-0.2,0.4-0.3,0.6-0.3c0.2,0,0.5,0.1,0.6,0.3
	l0.4,0.4c0.2,0.2,0.3,0.4,0.3,0.6c0,0.2-0.1,0.5-0.3,0.6l-5.7,5.8c-0.3,0.3-0.9,0.3-1.3,0L21.8,46.1z M25.3,49.6
	c-0.2-0.2-0.3-0.4-0.3-0.6c0-0.2,0.1-0.5,0.3-0.6l5.7-5.8c0.2-0.2,0.4-0.3,0.6-0.3s0.5,0.1,0.6,0.3l0.4,0.4c0.3,0.3,0.3,0.9,0,1.3
	l-3.1,3.1l-2.6,2.6l0,0c-0.3,0.3-0.9,0.3-1.3,0L25.3,49.6z M28.7,53c-0.3-0.3-0.3-0.9,0-1.3c0,0,0,0,0,0l2.6-2.6l1.8-1.9
	c0.2-0.2,0.4-0.3,0.6-0.3c0.2,0,0.5,0.1,0.6,0.3l0.4,0.4c0.2,0.2,0.3,0.4,0.3,0.6c0,0.2-0.1,0.5-0.3,0.6l-4.5,4.5
	c-0.3,0.3-0.9,0.3-1.3,0L28.7,53z M33.9,56.9c-0.3,0.3-0.9,0.3-1.3,0l-0.4-0.4c-0.3-0.3-0.3-0.9,0-1.3v0l3.2-3.2
	c0.2-0.2,0.4-0.3,0.6-0.3c0.2,0,0.5,0.1,0.6,0.3l0.4,0.4c0.3,0.3,0.3,0.9,0,1.3L33.9,56.9z M42.8,57.3l-0.4,0.4
	C42.3,57.9,42,58,41.8,58h0c-0.2,0-0.5-0.1-0.6-0.3l-2.3-2.2c0.7-0.7,1-1.6,1-2.5c0.1,0.2,0.2,0.4,0.3,0.5l2.6,2.6
	c0.1,0.1,0.1,0.1,0.2,0.2C43.2,56.6,43.1,57,42.8,57.3z M49,17.5l13.8,13.8l-3.2,3.2L45.9,20.6L49,17.5z M36.7,23.6
	C36.7,23.6,36.7,23.6,36.7,23.6c0.5,0,0.9,0.2,1.2,0.5l0.8,0.8c0.3,0.3,1.5,1.6,3.4,1.6c1.3,0,2.6-0.5,3.7-1.7l0.3-0.3l10.8,10.8
	l-5.2,5.2L40.1,29c0.1-0.4,0-0.8-0.3-1.2c-0.5-0.5-1.3-0.5-1.8,0l-4.8,4.6c-0.7,0.7-1.8,0.7-2.4,0l-0.6-0.6
	c-0.3-0.3-0.5-0.8-0.5-1.2c0-0.5,0.2-0.9,0.5-1.2l5.3-5.3C35.8,23.7,36.2,23.6,36.7,23.6z M28.3,27.6c-0.8,0.8-1.3,1.9-1.3,3
	c0,1.2,0.5,2.2,1.3,3l0.6,0.6c0.8,0.8,1.9,1.3,3.1,1.3c1.1,0,2.2-0.4,3-1.2l3.4-3.3l14.8,14.7c0.2,0.2,0.3,0.4,0.3,0.6
	c0,0.2-0.1,0.5-0.3,0.6l-0.4,0.4c-0.2,0.2-0.4,0.3-0.6,0.3c0,0,0,0,0,0c-0.2,0-0.4-0.1-0.6-0.2c0,0,0,0,0,0l-3.4-3.4
	c-0.5-0.5-1.3-0.5-1.8,0c-0.5,0.5-0.5,1.3,0,1.8l3.3,3.3c0,0,0,0.1,0.1,0.1c0,0,0,0,0,0c0.3,0.3,0.3,0.9,0,1.2l-0.4,0.4
	c-0.3,0.3-0.9,0.3-1.2,0c0,0,0,0,0,0L45.3,48c-0.5-0.5-1.3-0.5-1.8,0c-0.3,0.3-0.4,0.6-0.4,0.9c0,0.3,0.1,0.7,0.4,0.9l2.8,2.7
	c0,0,0,0.1,0.1,0.1c0,0,0,0,0,0c0.1,0.2,0.2,0.4,0.2,0.6c0,0.2-0.1,0.5-0.3,0.6l-0.4,0.4c-0.2,0.2-0.4,0.3-0.6,0.3
	c-0.2,0-0.3,0-0.4-0.1c-0.1-0.1-0.1-0.1-0.2-0.2L42,51.7c-0.5-0.5-1.3-0.5-1.8,0c-0.2,0.2-0.3,0.5-0.4,0.8c-0.1-0.7-0.4-1.3-1-1.9
	l-0.4-0.4c-0.3-0.3-0.6-0.5-1-0.7c0.1-0.4,0.2-0.8,0.2-1.2c0-0.9-0.4-1.8-1-2.5l-0.4-0.4c-0.3-0.3-0.6-0.5-1-0.7
	c0.5-1.2,0.2-2.7-0.8-3.7l-0.4-0.4c-0.6-0.6-1.3-0.9-2.1-1c-0.1-0.8-0.4-1.5-1-2.1l-0.4-0.4c-0.7-0.7-1.5-1-2.5-1
	c-0.9,0-1.8,0.4-2.5,1l-2.6,2.6l-4.3-4.1l12-12.2l0.8,0.7L28.3,27.6z M26.6,17.6l3.2,3.2L16.3,34.6l-3.2-3.2L26.6,17.6z"/>
<path class="st2" d="M26.6,22.2c0.3,0,0.7-0.1,0.9-0.4c0.2-0.2,0.4-0.6,0.4-0.9c0-0.3-0.1-0.7-0.4-0.9c-0.5-0.5-1.4-0.5-1.8,0
	c-0.2,0.2-0.4,0.6-0.4,0.9c0,0.3,0.1,0.7,0.4,0.9C25.9,22,26.2,22.2,26.6,22.2z"/>
<path class="st2" d="M61,31.1c0-0.3-0.1-0.7-0.4-0.9c-0.5-0.5-1.4-0.5-1.8,0c-0.2,0.2-0.4,0.6-0.4,0.9c0,0.3,0.1,0.7,0.4,0.9
	c0.2,0.2,0.6,0.4,0.9,0.4c0.3,0,0.7-0.1,0.9-0.4C60.8,31.7,61,31.4,61,31.1z"/>
</svg>