<svg width="75" height="75" viewBox="0 0 75 75" fill="none" xmlns="http://www.w3.org/2000/svg">
<circle cx="37.5" cy="37.5" r="36.75" stroke="url(#paint0_linear_92_1222)" stroke-width="1.5"/>
<path d="M44.5033 26.7684C44.3618 26.6976 44.4325 26.7684 41.461 25.6363C42.0977 24.7166 42.4515 23.5138 42.4515 22.4525C42.4515 20.1177 40.5412 18.2075 38.2064 18.2075C34.8811 18.2075 32.617 21.8865 34.9518 25.5656C31.9803 26.6976 32.051 26.6269 31.9095 26.6976C30.636 27.5466 30.7068 28.8202 30.7068 30.5182C30.7068 31.2965 30.7775 32.287 30.7068 33.4897C30.7068 33.702 30.7775 33.8435 30.919 33.985C31.0605 34.1265 31.2728 34.1973 31.4143 34.1973H44.9278C45.14 34.1973 45.2815 34.1265 45.423 33.985C45.5645 33.8435 45.6353 33.6312 45.6353 33.4897C45.5645 32.287 45.6353 31.2965 45.6353 30.5182C45.7768 28.8909 45.7768 27.6174 44.5033 26.7684ZM38.2064 19.6932C39.7629 19.6932 41.0365 20.9668 41.0365 22.5233C41.0365 24.5751 38.8432 27.8296 36.6499 25.4948C35.9424 24.7166 35.3763 23.5138 35.3763 22.5233C35.3763 20.9668 36.6499 19.6932 38.2064 19.6932ZM44.291 30.5182C44.291 31.155 44.2203 31.9332 44.291 32.853H32.1925C32.1925 31.9332 32.1925 31.155 32.1925 30.4474C32.1218 28.8202 32.1218 28.3249 32.6878 27.9004L35.9424 26.6976C37.2866 27.9004 39.0554 27.9711 40.4704 26.7684L43.7958 27.9711C44.291 28.3957 44.3618 28.9617 44.291 30.5182Z" fill="url(#paint1_linear_92_1222)"/>
<path d="M49.5266 49.5503C49.1021 47.8523 46.2721 46.791 44.6448 46.3665C41.744 45.7297 36.7914 42.5459 36.2961 42.2629C33.6783 40.1404 29.8578 41.1309 27.3815 42.1922L27.3107 41.7676C27.24 41.4139 26.8862 41.1309 26.5325 41.1309L15.6368 42.4752C15.4245 42.4752 15.283 42.6167 15.1415 42.7582C15 42.8997 15 43.1119 15 43.2534L16.6273 56.9792C16.698 57.3329 16.981 57.6159 17.3348 57.6159H17.4055L28.3012 56.3424C28.655 56.2717 28.938 55.9179 28.938 55.5642L28.7965 54.5736C33.3953 55.5642 39.4092 57.9697 39.4092 57.9697C41.1072 58.6772 42.7345 58.9602 44.291 58.9602C47.8286 58.9602 50.0927 57.6867 52.852 56.5547C55.3283 55.5642 58.1583 54.4321 59.7148 52.9464C61.7666 51.1068 61.6251 44.6685 49.5266 49.5503ZM17.9716 56.1302L16.4858 43.7487L25.9665 42.6167L27.4522 54.9274L17.9716 56.1302ZM58.7951 51.9558C57.4508 53.2294 54.7622 54.2906 52.3567 55.2812C48.9606 56.6254 44.9986 58.8187 40.046 56.6962C39.763 56.5547 33.4661 54.0784 28.655 53.0879L27.523 43.6779C29.4333 42.8289 33.1831 41.6261 35.4471 43.3949C36.0131 43.8194 41.3902 47.074 44.291 47.7108C45.4231 47.9938 48.6069 49.1258 48.1116 50.1871C46.4136 51.6728 44.1495 51.8143 42.027 50.3993C40.1875 49.1965 37.8527 48.772 37.7819 48.7013C37.4282 48.6305 37.0037 48.9135 36.9329 49.2673C36.8622 49.621 37.1452 50.0456 37.4989 50.1163C41.178 50.8238 41.9563 52.8049 44.9986 52.8049C46.6258 52.8049 48.0409 52.0973 49.0314 51.2483C51.5077 50.1163 58.5828 47.7108 59.2196 50.3286C59.2903 50.8238 59.2903 51.4606 58.7951 51.9558Z" fill="url(#paint2_linear_92_1222)"/>
<path d="M32.1925 39.1498C34.1028 40.1404 36.2253 40.6356 38.2771 40.6356C40.3996 40.6356 42.5222 40.1404 44.4324 39.0791L43.9372 40.7771C43.7957 41.1309 44.0787 41.5554 44.4324 41.6261C44.7862 41.7676 45.2107 41.4846 45.2815 41.1309L46.272 37.6641C46.3427 37.3103 46.1305 36.8858 45.7767 36.7443L42.2392 35.7538C41.8854 35.683 41.4609 35.8953 41.3901 36.249C41.2486 36.6028 41.5316 37.0273 41.8854 37.0981L43.9372 37.6641C40.5411 39.5744 36.3668 39.6451 32.8292 37.8056C28.7964 35.7538 26.3909 31.7917 26.3909 27.2636C26.3909 24.7166 27.1691 22.311 28.6549 20.2592C28.8672 19.9762 28.7964 19.481 28.5134 19.2687C28.2304 19.0565 27.7351 19.1272 27.5229 19.4102C25.8248 21.6743 24.9758 24.4336 24.9758 27.2636C24.9758 32.4285 27.6644 36.8151 32.1925 39.1498Z" fill="url(#paint3_linear_92_1222)"/>
<path d="M30.1407 17.4999C30.4237 18.0659 30.9189 17.8537 34.1028 18.915C35.0225 19.198 35.3763 17.7829 34.4565 17.5707L32.4755 17.0047C34.2443 16.0142 36.1545 15.5189 38.1356 15.5189C44.6447 15.5189 50.0218 20.8252 50.0218 27.4051C50.0218 29.9522 49.2435 32.3577 47.7578 34.4095C47.5455 34.6925 47.6163 35.1878 47.8993 35.4C48.1823 35.6123 48.6775 35.5415 48.8898 35.2585C50.5878 32.9945 51.4368 30.3059 51.4368 27.4051C51.4368 20.1177 45.4937 14.1039 38.1356 14.1039C35.9423 14.1039 33.8198 14.6699 31.9095 15.6604L32.4047 13.8916C32.6877 12.9719 31.2727 12.6181 31.0605 13.5379C30.4237 16.3679 29.9284 16.9339 30.1407 17.4999Z" fill="url(#paint4_linear_92_1222)"/>
<defs>
<linearGradient id="paint0_linear_92_1222" x1="8" y1="17.5" x2="75" y2="35" gradientUnits="userSpaceOnUse">
<stop stop-color="#C61530"/>
<stop offset="1" stop-color="#F4901D"/>
</linearGradient>
<linearGradient id="paint1_linear_92_1222" x1="30.7061" y1="16.3762" x2="46.7471" y2="32.8332" gradientUnits="userSpaceOnUse">
<stop stop-color="#C61530"/>
<stop offset="1" stop-color="#F4901D"/>
</linearGradient>
<linearGradient id="paint2_linear_92_1222" x1="15" y1="38.9539" x2="26.4544" y2="70.8709" gradientUnits="userSpaceOnUse">
<stop stop-color="#C61530"/>
<stop offset="1" stop-color="#F4901D"/>
</linearGradient>
<linearGradient id="paint3_linear_92_1222" x1="24.9758" y1="16.5664" x2="47.5596" y2="39.9532" gradientUnits="userSpaceOnUse">
<stop stop-color="#C61530"/>
<stop offset="1" stop-color="#F4901D"/>
</linearGradient>
<linearGradient id="paint4_linear_92_1222" x1="30.0908" y1="10.4204" x2="52.6788" y2="33.8459" gradientUnits="userSpaceOnUse">
<stop stop-color="#C61530"/>
<stop offset="1" stop-color="#F4901D"/>
</linearGradient>
</defs>
</svg>