<?xml version="1.0" encoding="utf-8"?>
<!-- Generator: Adobe Illustrator 22.0.1, SVG Export Plug-In . SVG Version: 6.00 Build 0)  -->
<svg version="1.1" id="Layer_1" xmlns="http://www.w3.org/2000/svg" xmlns:xlink="http://www.w3.org/1999/xlink" x="0px" y="0px"
	 width="75px" height="75px" viewBox="0 0 75 75" style="enable-background:new 0 0 75 75;" xml:space="preserve">
<style type="text/css">
	.st0{fill:none;stroke:#FFFFFF;stroke-width:1.5;}
	.st1{fill:#FFFFFF;}
</style>
<circle class="st0" cx="37.5" cy="37.5" r="36.8"/>
<g>
	<path class="st1" d="M44.5,26.8c-0.1-0.1-0.1,0-3-1.1c0.6-0.9,1-2.1,1-3.2c0-2.3-1.9-4.2-4.2-4.2c-3.3,0-5.6,3.7-3.3,7.4
		c-3,1.1-2.9,1.1-3,1.1c-1.3,0.8-1.2,2.1-1.2,3.8c0,0.8,0.1,1.8,0,3c0,0.2,0.1,0.4,0.2,0.5c0.1,0.1,0.4,0.2,0.5,0.2h13.5
		c0.2,0,0.4-0.1,0.5-0.2c0.1-0.1,0.2-0.4,0.2-0.5c-0.1-1.2,0-2.2,0-3C45.8,28.9,45.8,27.6,44.5,26.8z M38.2,19.7
		c1.6,0,2.8,1.3,2.8,2.8c0,2.1-2.2,5.3-4.4,3c-0.7-0.8-1.3-2-1.3-3C35.4,21,36.6,19.7,38.2,19.7z M44.3,30.5c0,0.6-0.1,1.4,0,2.3
		H32.2c0-0.9,0-1.7,0-2.4c-0.1-1.6-0.1-2.1,0.5-2.5l3.3-1.2c1.3,1.2,3.1,1.3,4.5,0.1l3.3,1.2C44.3,28.4,44.4,29,44.3,30.5z"/>
	<path class="st1" d="M49.5,49.6c-0.4-1.7-3.3-2.8-4.9-3.2c-2.9-0.6-7.9-3.8-8.3-4.1c-2.6-2.1-6.4-1.1-8.9-0.1l-0.1-0.4
		c-0.1-0.4-0.4-0.6-0.8-0.6l-10.9,1.3c-0.2,0-0.4,0.1-0.5,0.3C15,42.9,15,43.1,15,43.3L16.6,57c0.1,0.4,0.4,0.6,0.7,0.6h0.1
		l10.9-1.3c0.4-0.1,0.6-0.4,0.6-0.8l-0.1-1c4.6,1,10.6,3.4,10.6,3.4c1.7,0.7,3.3,1,4.9,1c3.5,0,5.8-1.3,8.6-2.4
		c2.5-1,5.3-2.1,6.9-3.6C61.8,51.1,61.6,44.7,49.5,49.6z M18,56.1l-1.5-12.4l9.5-1.1l1.5,12.3L18,56.1z M58.8,52
		c-1.3,1.3-4,2.3-6.4,3.3C49,56.6,45,58.8,40,56.7c-0.3-0.1-6.6-2.6-11.4-3.6l-1.1-9.4c1.9-0.8,5.7-2.1,7.9-0.3
		c0.6,0.4,5.9,3.7,8.8,4.3c1.1,0.3,4.3,1.4,3.8,2.5c-1.7,1.5-4,1.6-6.1,0.2c-1.8-1.2-4.2-1.6-4.2-1.7c-0.4-0.1-0.8,0.2-0.8,0.6
		c-0.1,0.4,0.2,0.8,0.6,0.8c3.7,0.7,4.5,2.7,7.5,2.7c1.6,0,3-0.7,4-1.6c2.5-1.1,9.6-3.5,10.2-0.9C59.3,50.8,59.3,51.5,58.8,52z"/>
	<path class="st1" d="M32.2,39.1c1.9,1,4,1.5,6.1,1.5c2.1,0,4.2-0.5,6.2-1.6l-0.5,1.7c-0.1,0.4,0.1,0.8,0.5,0.8
		c0.4,0.1,0.8-0.1,0.8-0.5l1-3.5c0.1-0.4-0.1-0.8-0.5-0.9l-3.5-1c-0.4-0.1-0.8,0.1-0.8,0.5c-0.1,0.4,0.1,0.8,0.5,0.8l2.1,0.6
		c-3.4,1.9-7.6,2-11.1,0.1c-4-2.1-6.4-6-6.4-10.5c0-2.5,0.8-5,2.3-7c0.2-0.3,0.1-0.8-0.1-1c-0.3-0.2-0.8-0.1-1,0.1
		c-1.7,2.3-2.5,5-2.5,7.9C25,32.4,27.7,36.8,32.2,39.1z"/>
	<path class="st1" d="M30.1,17.5c0.3,0.6,0.8,0.4,4,1.4c0.9,0.3,1.3-1.1,0.4-1.3l-2-0.6c1.8-1,3.7-1.5,5.7-1.5
		c6.5,0,11.9,5.3,11.9,11.9c0,2.5-0.8,5-2.3,7c-0.2,0.3-0.1,0.8,0.1,1c0.3,0.2,0.8,0.1,1-0.1c1.7-2.3,2.5-5,2.5-7.9
		c0-7.3-5.9-13.3-13.3-13.3c-2.2,0-4.3,0.6-6.2,1.6l0.5-1.8c0.3-0.9-1.1-1.3-1.3-0.4C30.4,16.4,29.9,16.9,30.1,17.5z"/>
</g>
</svg>