<svg width="75" height="75" viewBox="0 0 75 75" fill="none" xmlns="http://www.w3.org/2000/svg">
<circle cx="37.5" cy="37.5" r="36.75" stroke="url(#paint0_linear_92_1216)" stroke-width="1.5"/>
<path d="M15.3749 37.3157C15.6183 37.5591 15.9485 37.6954 16.2916 37.6954C16.2928 37.6954 16.2953 37.6954 16.2966 37.6954C16.5214 37.6942 16.737 37.6304 16.929 37.5213L21.2444 41.68L19.9368 42.9925C18.5815 44.3534 18.5853 46.5628 19.9442 47.9162L20.3301 48.3008C20.9024 48.8719 21.6439 49.2021 22.441 49.2807C22.5222 50.0791 22.8548 50.8206 23.4284 51.3929L23.8118 51.7738C24.3829 52.3449 25.1243 52.6751 25.9215 52.755C26.0001 53.5255 26.3198 54.2768 26.91 54.8659L27.2922 55.2443C27.8645 55.8154 28.606 56.1468 29.4019 56.2255C29.4818 56.996 29.8002 57.7461 30.3892 58.3327L30.7751 58.7173C31.4311 59.372 32.3044 59.7325 33.236 59.7325C34.1701 59.7325 35.0447 59.3696 35.7012 58.7118L37.1011 57.3069L39.344 59.5436C39.9999 60.1983 40.8745 60.5588 41.8048 60.5588C41.8061 60.5588 41.8073 60.5588 41.8086 60.5588C42.7401 60.5576 43.6147 60.1959 44.2738 59.5368L44.6535 59.1546C45.2295 58.5761 45.5609 57.8458 45.6458 57.0908C46.4262 57.001 47.146 56.6553 47.7084 56.0929L48.0893 55.7095C48.6579 55.1397 48.9881 54.402 49.0692 53.6079C49.836 53.5267 50.5824 53.2084 51.1696 52.6218L51.5518 52.2371C52.1371 51.6506 52.4543 50.9029 52.5329 50.1355C53.3251 50.0519 54.0635 49.7193 54.6321 49.1494L55.013 48.7672C55.669 48.11 56.0295 47.2354 56.0282 46.3026C56.027 45.3698 55.6652 44.4952 55.0074 43.8393L53.5289 42.3645L58.7647 37.1144L58.7939 37.1447C59.0466 37.3962 59.378 37.522 59.7087 37.522C60.0413 37.522 60.3727 37.395 60.6254 37.1423L65.6203 32.1462C65.8637 31.9015 66 31.5713 66 31.227C65.9988 30.8832 65.8606 30.553 65.6178 30.3102L49.9482 14.7273C49.4402 14.2231 48.622 14.2237 48.1166 14.7298L43.1217 19.7259C42.8783 19.9705 42.742 20.3007 42.742 20.6451C42.7432 20.9888 42.8814 21.319 43.1242 21.5618L44.2422 22.6736L43.9263 22.9907C43.3181 23.6002 42.7166 23.892 42.1542 23.887C41.2672 23.8629 40.5778 23.1053 40.5778 23.1053C40.5561 23.0799 40.5332 23.0558 40.5103 23.0329L39.697 22.2221C38.885 21.4125 37.8047 20.9678 36.6533 20.9678C36.6508 20.9678 36.6496 20.9678 36.6471 20.9678C35.4931 20.969 34.4104 21.4181 33.6008 22.2307L33.4373 22.3943L32.6135 21.6312C33.0502 21.122 33.0322 20.357 32.5503 19.8745L27.5561 14.8796C27.3108 14.6344 26.9509 14.4888 26.6332 14.5C26.2869 14.5012 25.9555 14.6406 25.714 14.8871L10.3726 30.4942C9.87272 31.0021 9.87644 31.8166 10.38 32.3196L15.3749 37.3157ZM21.7758 46.0803C21.4345 45.7402 21.4345 45.1642 21.7746 44.8235L27.5208 39.0612C27.688 38.8939 27.9129 38.801 28.1526 38.801C28.3923 38.801 28.6146 38.8927 28.7831 39.0612L29.1653 39.4396C29.3325 39.6069 29.4242 39.8305 29.4254 40.0714C29.4254 40.3099 29.335 40.5323 29.1678 40.6995L23.4203 46.4643C23.0889 46.7969 22.4949 46.7969 22.1623 46.4668L21.7758 46.0803ZM25.2587 49.5564C25.0927 49.3904 25.001 49.1667 25.001 48.927C24.9998 48.6873 25.0915 48.4637 25.2575 48.2977L31.0049 42.5342C31.1722 42.3669 31.3958 42.2753 31.6355 42.2753C31.8752 42.2753 32.0976 42.3657 32.2636 42.5305L32.6482 42.9151C32.9957 43.2614 32.9969 43.8262 32.6494 44.1744L29.5134 47.3184L26.9026 49.9367L26.9014 49.9379C26.5688 50.2693 25.9785 50.273 25.6434 49.9367L25.2587 49.5564ZM28.7404 53.0281C28.3991 52.6881 28.3979 52.112 28.7379 51.7701C28.7379 51.7701 28.7391 51.7701 28.7404 51.7689L31.3512 49.1506L33.1995 47.2974C33.3667 47.1301 33.5903 47.0372 33.83 47.0372C34.0685 47.0372 34.2909 47.1289 34.4581 47.2962L34.8428 47.6783C35.0088 47.8443 35.1004 48.0679 35.1017 48.3064C35.1017 48.5461 35.0112 48.7685 34.8452 48.9357L30.3837 53.4097C30.051 53.7423 29.462 53.746 29.1232 53.4084L28.7404 53.0281ZM33.8653 56.8814C33.5327 57.214 32.9387 57.214 32.6073 56.8827L32.2214 56.498C31.8739 56.1518 31.8739 55.5869 32.2202 55.2412V55.24L35.3971 52.0581C35.5619 51.8909 35.7855 51.7992 36.024 51.7992C36.2624 51.7992 36.4848 51.8909 36.6557 52.0606L37.0367 52.4391C37.3792 52.7803 37.3792 53.357 37.0392 53.6983L33.8653 56.8814ZM42.8151 57.3255L42.4354 57.7077C42.2694 57.8749 42.0458 57.9666 41.8061 57.9666H41.8048C41.5664 57.9666 41.344 57.8762 41.1768 57.7089L38.9265 55.4661C39.5837 54.7742 39.9014 53.8798 39.881 52.9872C39.9417 53.1854 40.0433 53.3731 40.2006 53.5292L42.7798 56.101C42.843 56.1642 42.908 56.2242 42.9755 56.2825C43.1502 56.6176 43.0982 57.0425 42.8151 57.3255ZM49.0358 17.478L62.8671 31.2331L59.7056 34.3952L45.8743 20.6401L49.0358 17.478ZM36.6502 23.5618C36.6514 23.5618 36.6514 23.5618 36.6526 23.5618C37.1135 23.5618 37.544 23.7384 37.8661 24.0592L38.6515 24.8434C38.919 25.1388 40.1758 26.4099 42.0427 26.4792C43.3719 26.5275 44.6194 25.9701 45.7628 24.8229L46.0812 24.5033L56.9257 35.2871L51.6936 40.5347L40.1256 28.999C40.2117 28.5939 40.1027 28.1535 39.7943 27.8314C39.2981 27.3148 38.4768 27.2968 37.9602 27.7924L33.1561 32.4013C32.4884 33.0715 31.3982 33.074 30.7268 32.4051L30.1328 31.8111C29.8101 31.4902 29.6317 31.0585 29.6317 30.5976C29.6305 30.1368 29.807 29.7063 30.1291 29.383L35.4361 24.0623C35.757 23.7408 36.1893 23.5631 36.6502 23.5618ZM28.2932 27.552C27.4824 28.3653 27.0376 29.448 27.0389 30.602C27.0401 31.7559 27.4892 32.8386 28.3006 33.6482L28.8946 34.2422C29.7376 35.0815 30.8445 35.5002 31.9483 35.5002C33.0477 35.5002 34.1453 35.084 34.9741 34.2527L38.4136 30.9538L53.1765 45.6789C53.3437 45.8449 53.4354 46.0673 53.4354 46.307C53.4366 46.5467 53.345 46.769 53.1777 46.9363L52.7968 47.3197C52.6296 47.4869 52.4059 47.5786 52.1662 47.5786C52.1662 47.5786 52.1662 47.5786 52.165 47.5786C51.9426 47.5786 51.737 47.4925 51.5747 47.3463C51.5636 47.3352 51.558 47.3222 51.5468 47.3123L48.168 43.9433C47.6613 43.4391 46.8394 43.4397 46.3339 43.947C45.8285 44.4543 45.8297 45.2757 46.3364 45.7811L49.6273 49.0608C49.6539 49.0937 49.6756 49.1271 49.706 49.1575C49.7159 49.1674 49.7276 49.1729 49.7376 49.1829C50.0497 49.5279 50.0473 50.0767 49.7171 50.4087L49.3349 50.7921C49.0036 51.1234 48.4529 51.1272 48.1085 50.815C48.0998 50.8051 48.0943 50.7945 48.0844 50.7859L45.2537 47.9595C44.7458 47.4541 43.9244 47.4553 43.4196 47.962C43.1669 48.2147 43.0412 48.5461 43.0399 48.8769C43.0399 49.2095 43.1669 49.5421 43.4209 49.7961L46.1716 52.54C46.1958 52.5704 46.2162 52.6032 46.2441 52.6305C46.254 52.6404 46.2658 52.6459 46.2757 52.6546C46.4244 52.8169 46.5117 53.025 46.5129 53.2499C46.5129 53.4883 46.4213 53.7119 46.254 53.8804L45.8731 54.2626C45.7071 54.4298 45.4823 54.5215 45.2425 54.5215C45.0672 54.5085 44.952 54.4874 44.8263 54.4224C44.7668 54.3524 44.703 54.283 44.6361 54.2167L42.0204 51.6797C41.5088 51.1848 40.6918 51.1934 40.1925 51.7026C39.9782 51.9206 39.8624 52.1963 39.8333 52.4793C39.7162 51.7924 39.3978 51.1315 38.8676 50.6019L38.4855 50.2235C38.1882 49.9261 37.8419 49.6982 37.469 49.5279C37.6127 49.1407 37.6963 48.7295 37.6963 48.3033C37.6939 47.3717 37.3321 46.4971 36.6743 45.8412L36.2909 45.459C35.9936 45.1623 35.6474 44.935 35.2757 44.7659C35.7378 43.5246 35.4776 42.074 34.4823 41.0811L34.0964 40.6952C33.524 40.1253 32.7826 39.7952 31.9854 39.7165C31.9043 38.9193 31.5717 38.1767 30.9956 37.6019L30.6135 37.2234C29.9575 36.5687 29.0842 36.2082 28.1538 36.2082C27.221 36.2082 26.3451 36.5712 25.6873 37.229L23.079 39.8441L18.789 35.7096L30.8011 23.4887L31.6057 24.2326L28.2932 27.552ZM26.6462 17.6379L29.8064 20.7993L16.2836 34.5563L13.1234 31.3948L26.6462 17.6379Z" fill="url(#paint1_linear_92_1216)" stroke="white"/>
<path d="M26.5736 22.1682C26.9137 22.1682 27.2488 22.0313 27.4903 21.7897C27.7313 21.5488 27.8737 21.2137 27.8737 20.8736C27.8737 20.5323 27.7313 20.1985 27.4903 19.9569C27.0066 19.4744 26.1332 19.4744 25.6563 19.9569C25.4141 20.1991 25.2791 20.5329 25.2791 20.8736C25.2791 21.2137 25.4147 21.5488 25.6563 21.7897C25.8985 22.0319 26.2323 22.1682 26.5736 22.1682Z" fill="url(#paint2_linear_92_1216)" stroke="white"/>
<path d="M60.9506 31.0684C60.9506 30.7283 60.8137 30.3932 60.5721 30.1517C60.0896 29.6692 59.2218 29.6692 58.7393 30.1517C58.4971 30.3939 58.3608 30.729 58.3608 31.0684C58.3608 31.4097 58.4977 31.7435 58.7393 31.9851C58.9802 32.2273 59.3153 32.3623 59.6554 32.3623C59.9967 32.3623 60.3318 32.2267 60.5721 31.9851C60.8143 31.7435 60.9506 31.4097 60.9506 31.0684Z" fill="url(#paint3_linear_92_1216)" stroke="white"/>
<defs>
<linearGradient id="paint0_linear_92_1216" x1="8" y1="17.5" x2="75" y2="35" gradientUnits="userSpaceOnUse">
<stop stop-color="#C61530"/>
<stop offset="1" stop-color="#F4901D"/>
</linearGradient>
<linearGradient id="paint1_linear_92_1216" x1="10" y1="9.05744" x2="54.5843" y2="68.1824" gradientUnits="userSpaceOnUse">
<stop stop-color="#C61530"/>
<stop offset="1" stop-color="#F4901D"/>
</linearGradient>
<linearGradient id="paint2_linear_92_1216" x1="25.2791" y1="19.3003" x2="27.8488" y2="22.1359" gradientUnits="userSpaceOnUse">
<stop stop-color="#C61530"/>
<stop offset="1" stop-color="#F4901D"/>
</linearGradient>
<linearGradient id="paint3_linear_92_1216" x1="58.3608" y1="29.4952" x2="60.9304" y2="32.3258" gradientUnits="userSpaceOnUse">
<stop stop-color="#C61530"/>
<stop offset="1" stop-color="#F4901D"/>
</linearGradient>
</defs>
</svg>