<svg width="75" height="75" viewBox="0 0 75 75" fill="none" xmlns="http://www.w3.org/2000/svg">
<circle cx="37.5" cy="37.5" r="36.75" stroke="url(#paint0_linear_92_1233)" stroke-width="1.5"/>
<path fill-rule="evenodd" clip-rule="evenodd" d="M60.4193 33.8192L60.4943 33.7441C60.8389 33.3995 61.397 33.3995 61.7416 33.7441C62.0861 34.0886 62.0861 34.6468 61.7416 34.9913L56.2069 40.5264C56.0346 40.6987 55.809 40.7848 55.5833 40.7848C55.3576 40.7848 55.1319 40.6987 54.9597 40.5264C54.6151 40.1819 54.6151 39.6237 54.9597 39.2792L59.1721 35.0665L58.2159 34.1108L52.7158 39.6108L52.715 39.6121C52.7147 39.6126 52.7145 39.613 52.7141 39.6134C52.7133 39.6142 52.7123 39.6145 52.7115 39.6151L50.2213 42.1053V57.118C50.2213 57.6055 49.8264 58 49.3393 58H20.882C20.3949 58 20 57.6055 20 57.118V16.5444C20 16.0569 20.3949 15.6624 20.882 15.6624H41.6258C41.6353 15.6624 41.6444 15.665 41.6534 15.6676C41.6614 15.6699 41.6695 15.6723 41.6779 15.6728C41.7576 15.6776 41.8344 15.6929 41.9099 15.719C41.9179 15.7217 41.9258 15.7243 41.9337 15.7268L41.9337 15.7268L41.9337 15.7268C41.9528 15.733 41.9717 15.7391 41.9904 15.7477C42.0843 15.7907 42.1735 15.845 42.2494 15.9208L49.9625 23.6334C50.0381 23.709 50.0921 23.7979 50.135 23.8915C50.1442 23.9114 50.1507 23.9316 50.1573 23.9521L50.1648 23.975C50.19 24.0488 50.2048 24.1237 50.2098 24.2016C50.2104 24.2105 50.2129 24.219 50.2153 24.2275C50.2181 24.2372 50.2209 24.2468 50.2209 24.257V32.6256L56.2491 26.5973C56.5415 26.3045 57.2014 25.8884 58.3431 26.3975C58.8771 26.6361 59.4642 27.0608 59.996 27.5931C60.5279 28.1245 60.9517 28.7111 61.1899 29.2452C61.6977 30.3839 61.2821 31.0446 60.9892 31.3374L59.4632 32.8635L60.4193 33.8192ZM58.7475 28.8386C58.1583 28.2494 57.6325 27.9781 57.4098 27.9316L49.8447 35.4965L52.0899 37.742L59.6554 30.1763C59.6084 29.9541 59.3367 29.4278 58.7475 28.8386ZM38.3466 50.459L37.1275 49.2402L36.7806 50.8059L38.3466 50.459ZM37.8615 47.4796L40.1071 49.725L50.8427 38.9892L48.5974 36.7436L42.982 42.3588L37.8615 47.4796ZM42.5078 23.375H47.2091L42.5078 18.6737V23.375ZM48.4572 56.2359V43.8702L40.7308 51.5958C40.656 51.6707 40.5661 51.725 40.4709 51.7685C40.4462 51.7798 40.422 51.7881 40.3967 51.7967L40.3886 51.7995C40.3765 51.8036 40.3647 51.8087 40.353 51.8138C40.3351 51.8216 40.3172 51.8294 40.298 51.8335L35.8107 52.8284C35.7474 52.8422 35.6832 52.8491 35.6199 52.8491L35.6173 52.8488L35.6136 52.8479L35.6104 52.8471C35.6094 52.8468 35.6084 52.8467 35.6073 52.8467C35.5068 52.8451 35.4097 52.8234 35.3161 52.789C35.294 52.7808 35.2738 52.7714 35.2525 52.7614C35.1594 52.7186 35.0709 52.6654 34.9963 52.5907C34.943 52.5375 34.8975 52.4785 34.8601 52.4151C34.748 52.225 34.7098 51.997 34.7586 51.7767L35.7526 47.289C35.7569 47.2698 35.7646 47.252 35.7723 47.2342C35.7774 47.2226 35.7824 47.211 35.7865 47.199C35.7962 47.1701 35.8053 47.143 35.8181 47.1151C35.8617 47.02 35.9157 46.9304 35.9903 46.8557L43.7079 39.1383L43.8039 39.0423H25.182C24.6949 39.0423 24.2999 38.6478 24.2999 38.1603C24.2999 37.6727 24.6949 37.2782 25.182 37.2782H45.0389C45.1909 37.2782 45.3269 37.3267 45.4518 37.3944L47.9735 34.8726L47.9736 34.8724H47.9736L48.4568 34.3892V25.1391H41.6258C41.1387 25.1391 40.7437 24.7446 40.7437 24.257V17.4264H21.7641V56.2359H48.4572ZM45.0389 30.6518H25.182C24.6949 30.6518 24.2999 30.2573 24.2999 29.7697C24.2999 29.2822 24.6949 28.8877 25.182 28.8877H45.0389C45.526 28.8877 45.921 29.2822 45.921 29.7697C45.921 30.2573 45.526 30.6518 45.0389 30.6518ZM25.182 34.8466H45.0389C45.526 34.8466 45.921 34.4521 45.921 33.9646C45.921 33.4771 45.526 33.0826 45.0389 33.0826H25.182C24.6949 33.0826 24.2999 33.4771 24.2999 33.9646C24.2999 34.4521 24.6949 34.8466 25.182 34.8466ZM34.5648 41.4731C35.0519 41.4731 35.4468 41.8676 35.4468 42.3551C35.4468 42.8426 35.0519 43.2372 34.5648 43.2372H25.182C24.6949 43.2372 24.2999 42.8426 24.2999 42.3551C24.2999 41.8676 24.6949 41.4731 25.182 41.4731H34.5648ZM25.182 22.0519H34.5648C35.0519 22.0519 35.4468 21.6574 35.4468 21.1699C35.4468 20.6824 35.0519 20.2879 34.5648 20.2879H25.182C24.6949 20.2879 24.2999 20.6824 24.2999 21.1699C24.2999 21.6574 24.6949 22.0519 25.182 22.0519ZM37.6519 26.3519H25.182C24.6949 26.3519 24.2999 25.9573 24.2999 25.4698C24.2999 24.9823 24.6949 24.5878 25.182 24.5878H37.6519C38.139 24.5878 38.5339 24.9823 38.5339 25.4698C38.5339 25.9573 38.139 26.3519 37.6519 26.3519Z" fill="url(#paint1_linear_92_1233)"/>
<defs>
<linearGradient id="paint0_linear_92_1233" x1="8" y1="17.5" x2="75" y2="35" gradientUnits="userSpaceOnUse">
<stop stop-color="#C61530"/>
<stop offset="1" stop-color="#F4901D"/>
</linearGradient>
<linearGradient id="paint1_linear_92_1233" x1="20" y1="10.8135" x2="62.3444" y2="56.7806" gradientUnits="userSpaceOnUse">
<stop stop-color="#C61530"/>
<stop offset="1" stop-color="#F4901D"/>
</linearGradient>
</defs>
</svg>