<svg width="75" height="75" viewBox="0 0 75 75" fill="none" xmlns="http://www.w3.org/2000/svg">
<circle cx="37.5" cy="37.5" r="36.75" stroke="url(#paint0_linear_92_1211)" stroke-width="1.5"/>
<path d="M58.3333 21H16.6667C16.2248 21.0006 15.8012 21.1764 15.4888 21.4888C15.1764 21.8012 15.0006 22.2248 15 22.6667V51.8333C15.0006 52.2752 15.1764 52.6988 15.4888 53.0112C15.8012 53.3236 16.2248 53.4994 16.6667 53.5H32.9037L36.8221 58.9843C36.8991 59.0922 37.0008 59.1803 37.1187 59.241C37.2366 59.3017 37.3674 59.3334 37.5 59.3334C37.6326 59.3334 37.7634 59.3017 37.8813 59.241C37.9992 59.1803 38.1009 59.0922 38.1779 58.9843L42.0955 53.5H58.3333C58.7752 53.4994 59.1988 53.3236 59.5112 53.0112C59.8236 52.6988 59.9994 52.2752 60 51.8333V22.6667C59.9994 22.2248 59.8236 21.8012 59.5112 21.4888C59.1988 21.1764 58.7752 21.0006 58.3333 21V21ZM41.6667 51.8333C41.534 51.8333 41.4033 51.865 41.2854 51.9257C41.1675 51.9864 41.0658 52.0745 40.9887 52.1824L37.5 57.0661L34.0104 52.1828C33.9334 52.0747 33.8317 51.9867 33.7138 51.9259C33.5959 51.8651 33.4652 51.8334 33.3325 51.8333H16.6667V22.6667H58.3333L58.335 51.8333H41.6667ZM42.6408 34.8298L39.6257 34.3683L38.2691 31.4793C38.2018 31.3361 38.0952 31.2149 37.9616 31.13C37.828 31.0451 37.673 31.0001 37.5147 31.0001C37.3564 31.0001 37.2014 31.0451 37.0678 31.13C36.9342 31.2149 36.8276 31.3361 36.7603 31.4793L35.4037 34.3683L32.3885 34.8298C32.2371 34.853 32.0951 34.9174 31.978 35.0161C31.8608 35.1147 31.7732 35.2437 31.7245 35.389C31.6759 35.5342 31.6683 35.69 31.7024 35.8392C31.7366 35.9885 31.8112 36.1255 31.9181 36.2352L34.1243 38.4959L33.6018 41.6991C33.5767 41.8534 33.5954 42.0118 33.656 42.156C33.7166 42.3002 33.8165 42.4244 33.9444 42.5145C34.0722 42.6045 34.2229 42.6568 34.379 42.6653C34.5352 42.6738 34.6906 42.6382 34.8275 42.5625L37.5147 41.0773L40.2018 42.5625C40.3399 42.6342 40.4947 42.6676 40.6501 42.6592C40.8054 42.6507 40.9557 42.6008 41.0852 42.5145C41.2129 42.4243 41.3128 42.3001 41.3733 42.1559C41.4339 42.0117 41.4528 41.8534 41.4277 41.6991L40.9052 38.4959L43.1115 36.2352C43.2184 36.1255 43.293 35.9885 43.3271 35.8392C43.3613 35.69 43.3536 35.5342 43.305 35.389C43.2564 35.2437 43.1687 35.1147 43.0516 35.0161C42.9345 34.9174 42.7924 34.853 42.6411 34.8298H42.6408ZM39.4182 37.6333C39.327 37.7267 39.2591 37.8401 39.2198 37.9645C39.1805 38.0889 39.1709 38.2208 39.1919 38.3495L39.5061 40.2745L37.9175 39.396C37.7942 39.3277 37.6556 39.2918 37.5147 39.2918C37.3737 39.2918 37.2351 39.3277 37.1118 39.396L35.5233 40.2741L35.8375 38.3491C35.8585 38.2203 35.8489 38.0885 35.8096 37.9641C35.7703 37.8397 35.7024 37.7263 35.6112 37.6329L34.2441 36.2316L36.0955 35.9483C36.2307 35.9276 36.3588 35.874 36.4684 35.7921C36.578 35.7102 36.6657 35.6025 36.7237 35.4787L37.5147 33.7941L38.3057 35.4787C38.3638 35.6025 38.4515 35.7102 38.5611 35.7921C38.6707 35.874 38.7988 35.9276 38.934 35.9483L40.7854 36.2316L39.4182 37.6333ZM55.1408 34.8298L52.1257 34.3683L50.7691 31.4793C50.7018 31.3361 50.5952 31.2149 50.4616 31.13C50.328 31.0451 50.173 31.0001 50.0147 31.0001C49.8564 31.0001 49.7014 31.0451 49.5678 31.13C49.4342 31.2149 49.3276 31.3361 49.2603 31.4793L47.9037 34.3683L44.8885 34.8298C44.7371 34.853 44.5951 34.9174 44.478 35.0161C44.3608 35.1147 44.2732 35.2437 44.2245 35.389C44.1759 35.5342 44.1683 35.69 44.2024 35.8392C44.2366 35.9885 44.3112 36.1255 44.4181 36.2352L46.6243 38.4959L46.1018 41.6991C46.0767 41.8534 46.0954 42.0118 46.156 42.156C46.2166 42.3002 46.3165 42.4244 46.4444 42.5145C46.5722 42.6045 46.7229 42.6568 46.879 42.6653C47.0352 42.6738 47.1906 42.6382 47.3275 42.5625L50.0147 41.0773L52.7018 42.5625C52.8399 42.6342 52.9947 42.6676 53.1501 42.6592C53.3054 42.6507 53.4557 42.6008 53.5852 42.5145C53.7129 42.4243 53.8128 42.3001 53.8733 42.1559C53.9339 42.0117 53.9528 41.8534 53.9277 41.6991L53.4052 38.4959L55.6115 36.2352C55.7184 36.1255 55.793 35.9885 55.8271 35.8392C55.8613 35.69 55.8536 35.5342 55.805 35.389C55.7564 35.2437 55.6687 35.1147 55.5516 35.0161C55.4345 34.9174 55.2924 34.853 55.1411 34.8298H55.1408ZM51.9182 37.6333C51.827 37.7267 51.7591 37.8401 51.7198 37.9645C51.6805 38.0889 51.6709 38.2208 51.6919 38.3495L52.0061 40.2745L50.4175 39.396C50.2942 39.3277 50.1556 39.2918 50.0147 39.2918C49.8737 39.2918 49.7351 39.3277 49.6118 39.396L48.0233 40.2741L48.3375 38.3491C48.3585 38.2203 48.3489 38.0885 48.3096 37.9641C48.2703 37.8397 48.2024 37.7263 48.1113 37.6329L46.7441 36.2316L48.5955 35.9483C48.7307 35.9276 48.8588 35.874 48.9684 35.7921C49.078 35.7102 49.1657 35.6025 49.2237 35.4787L50.0147 33.7941L50.8057 35.4787C50.8638 35.6025 50.9515 35.7102 51.0611 35.7921C51.1707 35.874 51.2988 35.9276 51.434 35.9483L53.2854 36.2316L51.9182 37.6333ZM30.1408 34.8298L27.1257 34.3683L25.7691 31.4793C25.7018 31.3361 25.5952 31.2149 25.4616 31.13C25.328 31.0451 25.173 31.0001 25.0147 31.0001C24.8564 31.0001 24.7014 31.0451 24.5678 31.13C24.4342 31.2149 24.3276 31.3361 24.2603 31.4793L22.9037 34.3683L19.8885 34.8298C19.7371 34.853 19.5951 34.9174 19.478 35.0161C19.3608 35.1147 19.2732 35.2437 19.2245 35.389C19.1759 35.5342 19.1683 35.69 19.2024 35.8392C19.2366 35.9885 19.3112 36.1255 19.4181 36.2352L21.6243 38.4959L21.1018 41.6991C21.0767 41.8534 21.0954 42.0118 21.156 42.156C21.2166 42.3002 21.3165 42.4244 21.4444 42.5145C21.5722 42.6045 21.7229 42.6568 21.879 42.6653C22.0352 42.6738 22.1906 42.6382 22.3275 42.5625L25.0147 41.0773L27.7018 42.5625C27.8399 42.6342 27.9947 42.6676 28.1501 42.6592C28.3054 42.6507 28.4557 42.6008 28.5852 42.5145C28.7129 42.4243 28.8128 42.3001 28.8733 42.1559C28.9339 42.0117 28.9528 41.8534 28.9278 41.6991L28.4052 38.4959L30.6115 36.2352C30.7184 36.1255 30.793 35.9885 30.8272 35.8392C30.8613 35.69 30.8536 35.5342 30.805 35.389C30.7564 35.2437 30.6687 35.1147 30.5516 35.0161C30.4345 34.9174 30.2924 34.853 30.1411 34.8298H30.1408ZM26.9182 37.6333C26.827 37.7267 26.7591 37.8401 26.7198 37.9645C26.6805 38.0889 26.6709 38.2208 26.6919 38.3495L27.0061 40.2745L25.4175 39.396C25.2942 39.3277 25.1556 39.2918 25.0147 39.2918C24.8737 39.2918 24.7351 39.3277 24.6118 39.396L23.0233 40.2741L23.3375 38.3491C23.3585 38.2203 23.3489 38.0885 23.3096 37.9641C23.2703 37.8397 23.2024 37.7263 23.1112 37.6329L21.7441 36.2316L23.5955 35.9483C23.7307 35.9276 23.8588 35.874 23.9684 35.7921C24.078 35.7102 24.1657 35.6025 24.2238 35.4787L25.0147 33.7941L25.8057 35.4787C25.8638 35.6025 25.9515 35.7102 26.0611 35.7921C26.1707 35.874 26.2988 35.9276 26.434 35.9483L28.2854 36.2316L26.9182 37.6333Z" fill="url(#paint1_linear_92_1211)"/>
<defs>
<linearGradient id="paint0_linear_92_1211" x1="8" y1="17.5" x2="75" y2="35" gradientUnits="userSpaceOnUse">
<stop stop-color="#C61530"/>
<stop offset="1" stop-color="#F4901D"/>
</linearGradient>
<linearGradient id="paint1_linear_92_1211" x1="15" y1="16.6098" x2="52.2932" y2="64.5161" gradientUnits="userSpaceOnUse">
<stop stop-color="#C61530"/>
<stop offset="1" stop-color="#F4901D"/>
</linearGradient>
</defs>
</svg>