<?xml version="1.0" encoding="utf-8"?>
<!-- Generator: Adobe Illustrator 22.0.1, SVG Export Plug-In . SVG Version: 6.00 Build 0)  -->
<svg version="1.1" id="Layer_1" xmlns="http://www.w3.org/2000/svg" xmlns:xlink="http://www.w3.org/1999/xlink" x="0px" y="0px"
	 width="75px" height="75px" viewBox="0 0 75 75" style="enable-background:new 0 0 75 75;" xml:space="preserve">
<style type="text/css">
	.st0{fill:none;stroke:#FFFFFF;stroke-width:1.5;}
	.st1{fill:#FFFFFF;}
</style>
<circle class="st0" cx="37.5" cy="37.5" r="36.8"/>
<path class="st1" d="M58.3,21H16.7c-0.4,0-0.9,0.2-1.2,0.5S15,22.2,15,22.7v29.2c0,0.4,0.2,0.9,0.5,1.2s0.7,0.5,1.2,0.5h16.2
	l3.9,5.5c0.1,0.1,0.2,0.2,0.3,0.3c0.1,0.1,0.2,0.1,0.4,0.1s0.3,0,0.4-0.1c0.1-0.1,0.2-0.1,0.3-0.3l3.9-5.5h16.2
	c0.4,0,0.9-0.2,1.2-0.5s0.5-0.7,0.5-1.2V22.7c0-0.4-0.2-0.9-0.5-1.2S58.8,21,58.3,21L58.3,21z M41.7,51.8c-0.1,0-0.3,0-0.4,0.1
	s-0.2,0.1-0.3,0.3l-3.5,4.9L34,52.2c-0.1-0.1-0.2-0.2-0.3-0.3c-0.1-0.1-0.2-0.1-0.4-0.1H16.7V22.7h41.7l0,29.2H41.7z M42.6,34.8
	l-3-0.5l-1.4-2.9c-0.1-0.1-0.2-0.3-0.3-0.3C37.8,31,37.7,31,37.5,31c-0.2,0-0.3,0-0.4,0.1c-0.1,0.1-0.2,0.2-0.3,0.3l-1.4,2.9l-3,0.5
	c-0.2,0-0.3,0.1-0.4,0.2c-0.1,0.1-0.2,0.2-0.3,0.4c0,0.1-0.1,0.3,0,0.5c0,0.1,0.1,0.3,0.2,0.4l2.2,2.3l-0.5,3.2c0,0.2,0,0.3,0.1,0.5
	c0.1,0.1,0.2,0.3,0.3,0.4c0.1,0.1,0.3,0.1,0.4,0.2c0.2,0,0.3,0,0.4-0.1l2.7-1.5l2.7,1.5c0.1,0.1,0.3,0.1,0.4,0.1
	c0.2,0,0.3-0.1,0.4-0.1c0.1-0.1,0.2-0.2,0.3-0.4c0.1-0.1,0.1-0.3,0.1-0.5l-0.5-3.2l2.2-2.3c0.1-0.1,0.2-0.2,0.2-0.4
	c0-0.1,0-0.3,0-0.5c0-0.1-0.1-0.3-0.3-0.4C42.9,34.9,42.8,34.9,42.6,34.8L42.6,34.8z M39.4,37.6c-0.1,0.1-0.2,0.2-0.2,0.3
	c0,0.1,0,0.3,0,0.4l0.3,1.9l-1.6-0.9c-0.1-0.1-0.3-0.1-0.4-0.1c-0.1,0-0.3,0-0.4,0.1l-1.6,0.9l0.3-1.9c0-0.1,0-0.3,0-0.4
	s-0.1-0.2-0.2-0.3l-1.4-1.4l1.9-0.3c0.1,0,0.3-0.1,0.4-0.2c0.1-0.1,0.2-0.2,0.3-0.3l0.8-1.7l0.8,1.7c0.1,0.1,0.1,0.2,0.3,0.3
	c0.1,0.1,0.2,0.1,0.4,0.2l1.9,0.3L39.4,37.6z M55.1,34.8l-3-0.5l-1.4-2.9c-0.1-0.1-0.2-0.3-0.3-0.3C50.3,31,50.2,31,50,31
	c-0.2,0-0.3,0-0.4,0.1c-0.1,0.1-0.2,0.2-0.3,0.3l-1.4,2.9l-3,0.5c-0.2,0-0.3,0.1-0.4,0.2c-0.1,0.1-0.2,0.2-0.3,0.4
	c0,0.1-0.1,0.3,0,0.5c0,0.1,0.1,0.3,0.2,0.4l2.2,2.3l-0.5,3.2c0,0.2,0,0.3,0.1,0.5c0.1,0.1,0.2,0.3,0.3,0.4c0.1,0.1,0.3,0.1,0.4,0.2
	c0.2,0,0.3,0,0.4-0.1l2.7-1.5l2.7,1.5c0.1,0.1,0.3,0.1,0.4,0.1c0.2,0,0.3-0.1,0.4-0.1c0.1-0.1,0.2-0.2,0.3-0.4
	c0.1-0.1,0.1-0.3,0.1-0.5l-0.5-3.2l2.2-2.3c0.1-0.1,0.2-0.2,0.2-0.4c0-0.1,0-0.3,0-0.5c0-0.1-0.1-0.3-0.3-0.4
	C55.4,34.9,55.3,34.9,55.1,34.8L55.1,34.8z M51.9,37.6c-0.1,0.1-0.2,0.2-0.2,0.3c0,0.1,0,0.3,0,0.4l0.3,1.9l-1.6-0.9
	c-0.1-0.1-0.3-0.1-0.4-0.1c-0.1,0-0.3,0-0.4,0.1L48,40.3l0.3-1.9c0-0.1,0-0.3,0-0.4s-0.1-0.2-0.2-0.3l-1.4-1.4l1.9-0.3
	c0.1,0,0.3-0.1,0.4-0.2c0.1-0.1,0.2-0.2,0.3-0.3l0.8-1.7l0.8,1.7c0.1,0.1,0.1,0.2,0.3,0.3c0.1,0.1,0.2,0.1,0.4,0.2l1.9,0.3
	L51.9,37.6z M30.1,34.8l-3-0.5l-1.4-2.9c-0.1-0.1-0.2-0.3-0.3-0.3S25.2,31,25,31s-0.3,0-0.4,0.1s-0.2,0.2-0.3,0.3l-1.4,2.9l-3,0.5
	c-0.2,0-0.3,0.1-0.4,0.2c-0.1,0.1-0.2,0.2-0.3,0.4c0,0.1-0.1,0.3,0,0.5c0,0.1,0.1,0.3,0.2,0.4l2.2,2.3l-0.5,3.2c0,0.2,0,0.3,0.1,0.5
	c0.1,0.1,0.2,0.3,0.3,0.4c0.1,0.1,0.3,0.1,0.4,0.2c0.2,0,0.3,0,0.4-0.1l2.7-1.5l2.7,1.5c0.1,0.1,0.3,0.1,0.4,0.1
	c0.2,0,0.3-0.1,0.4-0.1c0.1-0.1,0.2-0.2,0.3-0.4c0.1-0.1,0.1-0.3,0.1-0.5l-0.5-3.2l2.2-2.3c0.1-0.1,0.2-0.2,0.2-0.4
	c0-0.1,0-0.3,0-0.5c0-0.1-0.1-0.3-0.3-0.4C30.4,34.9,30.3,34.9,30.1,34.8L30.1,34.8z M26.9,37.6c-0.1,0.1-0.2,0.2-0.2,0.3
	c0,0.1,0,0.3,0,0.4l0.3,1.9l-1.6-0.9c-0.1-0.1-0.3-0.1-0.4-0.1c-0.1,0-0.3,0-0.4,0.1L23,40.3l0.3-1.9c0-0.1,0-0.3,0-0.4
	c0-0.1-0.1-0.2-0.2-0.3l-1.4-1.4l1.9-0.3c0.1,0,0.3-0.1,0.4-0.2c0.1-0.1,0.2-0.2,0.3-0.3l0.8-1.7l0.8,1.7c0.1,0.1,0.1,0.2,0.3,0.3
	c0.1,0.1,0.2,0.1,0.4,0.2l1.9,0.3L26.9,37.6z"/>
</svg>