<?xml version="1.0" encoding="utf-8"?>
<!-- Generator: Adobe Illustrator 22.0.1, SVG Export Plug-In . SVG Version: 6.00 Build 0)  -->
<svg version="1.1" id="Layer_1" xmlns="http://www.w3.org/2000/svg" xmlns:xlink="http://www.w3.org/1999/xlink" x="0px" y="0px"
	 width="75px" height="75px" viewBox="0 0 75 75" style="enable-background:new 0 0 75 75;" xml:space="preserve">
<style type="text/css">
	.st0{fill:none;stroke:#FFFFFF;stroke-width:1.5;}
	.st1{fill:#FFFFFF;}
</style>
<circle class="st0" cx="37.5" cy="37.5" r="36.8"/>
<path class="st1" d="M60.4,33.8L60.4,33.8c0.4-0.4,1-0.4,1.3-0.1c0.3,0.3,0.3,0.9,0,1.2l-5.5,5.5c-0.2,0.2-0.4,0.3-0.6,0.3
	c-0.2,0-0.5-0.1-0.6-0.3c-0.3-0.3-0.3-0.9,0-1.2l4.2-4.2l-1-1l-5.5,5.5l0,0c0,0,0,0,0,0c0,0,0,0,0,0l-2.5,2.5v15
	c0,0.5-0.4,0.9-0.9,0.9H20.9c-0.5,0-0.9-0.4-0.9-0.9V16.5c0-0.5,0.4-0.9,0.9-0.9h20.7c0,0,0,0,0,0c0,0,0,0,0,0c0.1,0,0.2,0,0.2,0
	c0,0,0,0,0,0l0,0l0,0c0,0,0,0,0.1,0c0.1,0,0.2,0.1,0.3,0.2l7.7,7.7c0.1,0.1,0.1,0.2,0.2,0.3c0,0,0,0,0,0.1l0,0c0,0.1,0,0.1,0,0.2
	c0,0,0,0,0,0c0,0,0,0,0,0v8.4l6-6c0.3-0.3,1-0.7,2.1-0.2c0.5,0.2,1.1,0.7,1.7,1.2c0.5,0.5,1,1.1,1.2,1.7c0.5,1.1,0.1,1.8-0.2,2.1
	l-1.5,1.5L60.4,33.8z M58.7,28.8c-0.6-0.6-1.1-0.9-1.3-0.9l-7.6,7.6l2.2,2.2l7.6-7.6C59.6,30,59.3,29.4,58.7,28.8z M38.3,50.5
	l-1.2-1.2l-0.3,1.6L38.3,50.5z M37.9,47.5l2.2,2.2L50.8,39l-2.2-2.2L43,42.4L37.9,47.5z M42.5,23.4h4.7l-4.7-4.7V23.4z M48.5,56.2
	V43.9l-7.7,7.7c-0.1,0.1-0.2,0.1-0.3,0.2c0,0,0,0-0.1,0l0,0c0,0,0,0,0,0c0,0,0,0-0.1,0l-4.5,1c-0.1,0-0.1,0-0.2,0l0,0l0,0l0,0
	c0,0,0,0,0,0c-0.1,0-0.2,0-0.3-0.1c0,0,0,0-0.1,0c-0.1,0-0.2-0.1-0.3-0.2c-0.1-0.1-0.1-0.1-0.1-0.2c-0.1-0.2-0.2-0.4-0.1-0.6l1-4.5
	c0,0,0,0,0-0.1c0,0,0,0,0,0c0,0,0-0.1,0-0.1c0-0.1,0.1-0.2,0.2-0.3l7.7-7.7l0.1-0.1H25.2c-0.5,0-0.9-0.4-0.9-0.9
	c0-0.5,0.4-0.9,0.9-0.9H45c0.2,0,0.3,0,0.4,0.1l2.5-2.5l0,0l0,0l0.5-0.5v-9.3h-6.8c-0.5,0-0.9-0.4-0.9-0.9v-6.8h-19v38.8H48.5z
	 M45,30.7H25.2c-0.5,0-0.9-0.4-0.9-0.9c0-0.5,0.4-0.9,0.9-0.9H45c0.5,0,0.9,0.4,0.9,0.9C45.9,30.3,45.5,30.7,45,30.7z M25.2,34.8H45
	c0.5,0,0.9-0.4,0.9-0.9s-0.4-0.9-0.9-0.9H25.2c-0.5,0-0.9,0.4-0.9,0.9S24.7,34.8,25.2,34.8z M34.6,41.5c0.5,0,0.9,0.4,0.9,0.9
	c0,0.5-0.4,0.9-0.9,0.9h-9.4c-0.5,0-0.9-0.4-0.9-0.9c0-0.5,0.4-0.9,0.9-0.9H34.6z M25.2,22.1h9.4c0.5,0,0.9-0.4,0.9-0.9
	c0-0.5-0.4-0.9-0.9-0.9h-9.4c-0.5,0-0.9,0.4-0.9,0.9C24.3,21.7,24.7,22.1,25.2,22.1z M37.7,26.4H25.2c-0.5,0-0.9-0.4-0.9-0.9
	c0-0.5,0.4-0.9,0.9-0.9h12.5c0.5,0,0.9,0.4,0.9,0.9C38.5,26,38.1,26.4,37.7,26.4z"/>
</svg>