<svg width="87" height="87" viewBox="0 0 87 87" fill="none" xmlns="http://www.w3.org/2000/svg">
<path d="M4.2 2.1C4.2 3.3 3.3 4.2 2.1 4.2C0.9 4.2 0 3.3 0 2.1C0 0.9 0.9 0 2.1 0C3.3 0 4.2 0.9 4.2 2.1Z" fill="#FF6C36"/>
<path d="M31.7 2.1C31.7 3.3 30.8 4.2 29.6 4.2C28.4 4.2 27.5 3.3 27.5 2.1C27.5 0.9 28.5 0 29.6 0C30.8 0 31.7 0.9 31.7 2.1Z" fill="#FF6C36"/>
<path d="M59.3 2.1C59.3 3.3 58.4 4.2 57.2 4.2C56 4.2 55 3.3 55 2.1C55 0.9 56 0 57.2 0C58.3 0 59.3 0.9 59.3 2.1Z" fill="#FF6C36"/>
<path d="M84.7001 4.2C85.8599 4.2 86.8001 3.2598 86.8001 2.1C86.8001 0.940202 85.8599 0 84.7001 0C83.5403 0 82.6001 0.940202 82.6001 2.1C82.6001 3.2598 83.5403 4.2 84.7001 4.2Z" fill="#FF6C36"/>
<path d="M4.2 29.4C4.2 30.6 3.3 31.5 2.1 31.5C0.9 31.5 0 30.6 0 29.4C0 28.2 0.9 27.3 2.1 27.3C3.3 27.3 4.2 28.2 4.2 29.4Z" fill="#FF6C36"/>
<path d="M31.7 29.4C31.7 30.6 30.8 31.5 29.6 31.5C28.4 31.5 27.5 30.6 27.5 29.4C27.5 28.2 28.4 27.3 29.6 27.3C30.8 27.3 31.7 28.2 31.7 29.4Z" fill="#FF6C36"/>
<path d="M59.3001 29.4C59.3001 30.6 58.4001 31.5 57.2001 31.5C56.0001 31.5 55.1001 30.6 55.1001 29.4C55.1001 28.2 56.0001 27.3 57.2001 27.3C58.3001 27.3 59.3001 28.2 59.3001 29.4Z" fill="#FF6C36"/>
<path d="M84.7001 31.5C85.8599 31.5 86.8001 30.5598 86.8001 29.4C86.8001 28.2402 85.8599 27.3 84.7001 27.3C83.5403 27.3 82.6001 28.2402 82.6001 29.4C82.6001 30.5598 83.5403 31.5 84.7001 31.5Z" fill="#FF6C36"/>
<path d="M4.2 56.7C4.2 57.9 3.3 58.8 2.1 58.8C0.9 58.8 0 57.8 0 56.7C0 55.5 0.9 54.6 2.1 54.6C3.3 54.6 4.2 55.5 4.2 56.7Z" fill="#FF6C36"/>
<path d="M31.7 56.7C31.7 57.9 30.8 58.8 29.6 58.8C28.4 58.8 27.5 57.9 27.5 56.7C27.5 55.5 28.4 54.6 29.6 54.6C30.8 54.6 31.7 55.5 31.7 56.7Z" fill="#FF6C36"/>
<path d="M59.3001 56.7C59.3001 57.9 58.4001 58.8 57.2001 58.8C56.0001 58.8 55.1001 57.9 55.1001 56.7C55.1001 55.5 56.0001 54.6 57.2001 54.6C58.3001 54.6 59.3001 55.5 59.3001 56.7Z" fill="#FF6C36"/>
<path d="M86.8001 56.7C86.8001 57.9 85.9001 58.8 84.7001 58.8C83.5001 58.8 82.6001 57.9 82.6001 56.7C82.6001 55.5 83.5001 54.6 84.7001 54.6C85.9001 54.6 86.8001 55.5 86.8001 56.7Z" fill="#FF6C36"/>
<path d="M4.2 84C4.2 85.2 3.3 86.1 2.1 86.1C0.9 86.1 0 85.1 0 84C0 82.9 0.9 81.9 2.1 81.9C3.3 81.9 4.2 82.8 4.2 84Z" fill="#FF6C36"/>
<path d="M31.7 84C31.7 85.2 30.8 86.1 29.6 86.1C28.4 86.1 27.5 85.2 27.5 84C27.5 82.8 28.4 81.9 29.6 81.9C30.8 81.8 31.7 82.8 31.7 84Z" fill="#FF6C36"/>
<path d="M59.3 84C59.3 85.2 58.4 86.1 57.2 86.1C56 86.1 55 85.1 55 84C55 82.9 55.9 81.9 57.1 81.9C58.3 81.8 59.3 82.8 59.3 84Z" fill="#FF6C36"/>
<path d="M84.7001 86.1C85.8599 86.1 86.8001 85.1598 86.8001 84C86.8001 82.8402 85.8599 81.9 84.7001 81.9C83.5403 81.9 82.6001 82.8402 82.6001 84C82.6001 85.1598 83.5403 86.1 84.7001 86.1Z" fill="#FF6C36"/>
</svg>
