<svg width="503" height="214" viewBox="0 0 503 214" fill="none" xmlns="http://www.w3.org/2000/svg">
<g opacity="0.2">
<path d="M398.093 210.814C616.747 210.814 794 33.56 794 -185.093C794 -403.746 616.747 -581 398.093 -581C179.44 -581 2.18665 -403.746 2.18665 -185.093C2.18665 33.56 179.44 210.814 398.093 210.814Z" stroke="#F4901D" stroke-width="0.9014" stroke-miterlimit="10"/>
<path d="M398.093 185.891C602.983 185.891 769.078 19.7958 769.078 -185.093C769.078 -389.982 602.983 -556.078 398.093 -556.078C193.204 -556.078 27.109 -389.982 27.109 -185.093C27.109 19.7958 193.204 185.891 398.093 185.891Z" stroke="#F4901D" stroke-width="0.9014" stroke-miterlimit="10"/>
<path d="M398.093 160.969C589.218 160.969 744.156 6.03149 744.156 -185.093C744.156 -376.218 589.218 -531.156 398.093 -531.156C206.968 -531.156 52.031 -376.218 52.031 -185.093C52.031 6.03149 206.968 160.969 398.093 160.969Z" stroke="#F4901D" stroke-width="0.9014" stroke-miterlimit="10"/>
<path d="M398.094 136.047C575.454 136.047 719.234 -7.73248 719.234 -185.093C719.234 -362.454 575.454 -506.233 398.094 -506.233C220.733 -506.233 76.9534 -362.454 76.9534 -185.093C76.9534 -7.73248 220.733 136.047 398.094 136.047Z" stroke="#F4901D" stroke-width="0.9014" stroke-miterlimit="10"/>
<path d="M398.093 111.125C561.69 111.125 694.311 -21.4962 694.311 -185.093C694.311 -348.69 561.69 -481.311 398.093 -481.311C234.497 -481.311 101.875 -348.69 101.875 -185.093C101.875 -21.4962 234.497 111.125 398.093 111.125Z" stroke="#F4901D" stroke-width="0.9014" stroke-miterlimit="10"/>
<path d="M398.093 86.2025C547.926 86.2025 669.389 -35.2608 669.389 -185.093C669.389 -334.926 547.926 -456.389 398.093 -456.389C248.261 -456.389 126.798 -334.926 126.798 -185.093C126.798 -35.2608 248.261 86.2025 398.093 86.2025Z" stroke="#F4901D" stroke-width="0.9014" stroke-miterlimit="10"/>
<path d="M565.428 173.786C367.119 266.354 131.782 180.551 39.214 -17.7588C-53.3541 -216.068 32.8054 -451.405 230.759 -543.973" stroke="#F4901D" stroke-width="4" stroke-miterlimit="10"/>
<path d="M555.103 151.356C369.255 237.872 148.516 157.765 62.0002 -28.0833C-24.5154 -213.932 55.5916 -434.671 241.44 -521.187" stroke="#F4901D" stroke-width="4" stroke-miterlimit="10"/>
<path d="M544.422 128.57C371.391 209.389 165.249 134.267 84.43 -38.7646C3.61091 -211.796 78.7335 -417.938 251.765 -498.757" stroke="#F4901D" stroke-width="4" stroke-miterlimit="10"/>
<path d="M534.097 106.14C373.527 181.263 182.338 111.481 107.216 -49.0894C32.0932 -210.015 101.875 -401.204 262.445 -475.971" stroke="#F4901D" stroke-width="4" stroke-miterlimit="10"/>
<path d="M523.416 83.354C375.307 152.424 199.072 88.3385 129.646 -59.7705C60.5758 -207.879 124.661 -384.115 272.77 -453.541" stroke="#F4901D" stroke-width="4" stroke-miterlimit="10"/>
<path d="M512.735 60.9242C377.088 124.298 215.805 65.5526 152.432 -70.4513C89.0583 -206.099 147.803 -367.381 283.451 -430.755" stroke="#F4901D" stroke-width="4" stroke-miterlimit="10"/>
</g>
</svg>
